<?xml version="1.0" encoding="utf-8"?>
<!-- Generator: Adobe Illustrator 23.0.3, SVG Export Plug-In . SVG Version: 6.00 Build 0)  -->
<svg version="1.1" id="Layer_1" xmlns="http://www.w3.org/2000/svg" xmlns:xlink="http://www.w3.org/1999/xlink" x="0px" y="0px"
	 viewBox="0 0 159.05 124.8" style="enable-background:new 0 0 159.05 124.8;" xml:space="preserve">
<style type="text/css">
	.st0{fill:#FAA32C;}
	.st1{fill:#0069BF;}
	.st2{fill:#231F20;}
	.st3{fill:#FFFFFF;}
	.st4{stroke:#231F20;stroke-miterlimit:10;}
	.st5{fill:none;}
	.st6{fill:none;stroke:#000000;stroke-width:3.5129;stroke-miterlimit:10;}
	.st7{stroke:#231F20;stroke-width:1.9309;stroke-miterlimit:10;}
	.st8{stroke:#000000;stroke-miterlimit:10;}
	.st9{stroke:#000000;stroke-width:2.2024;stroke-linecap:round;stroke-linejoin:round;stroke-miterlimit:10;}
	.st10{stroke:#231F20;stroke-width:0.25;stroke-miterlimit:10;}
	.st11{stroke:#231F20;stroke-width:2;stroke-miterlimit:10;}
	.st12{fill:none;stroke:#000000;stroke-width:3.5;stroke-miterlimit:10;}
	.st13{stroke:#231F20;stroke-width:0.5;stroke-miterlimit:10;}
	.st14{fill:none;stroke:#231F20;stroke-width:3;stroke-miterlimit:10;}
	.st15{fill:none;stroke:#231F20;stroke-width:3.5;stroke-miterlimit:10;}
	.st16{fill:#231F20;stroke:#231F20;stroke-width:1.25;stroke-miterlimit:10;}
	.st17{fill:#231F20;stroke:#000000;stroke-miterlimit:10;}
</style>
<g>
	<path class="st1" d="M104.82,63.97V21.28c0-10.78-8.74-19.53-19.53-19.53h-4.06H23.59h-4.06C8.74,1.75,0,10.5,0,21.28v42.69v42.6
		h85.28c10.79,0,19.53-8.75,19.53-19.53v-3.38V63.97z"/>
	<g>
		<path class="st12" d="M27.33,114.39c0,4.79,3.87,8.66,8.66,8.66h103.98c4.79,0,8.66-3.87,8.66-8.66V38.73H27.33V114.39z
			 M68.33,59.31c0-1.79,1.46-3.25,3.25-3.25h32.81c1.79,0,3.25,1.46,3.25,3.25v6.81c0,1.79-1.46,3.25-3.25,3.25H71.58
			c-1.79,0-3.25-1.46-3.25-3.25V59.31z M148.63,1.75H27.33c-4.79,0-8.66,3.87-8.66,8.66v10.67c0,2.38,1.95,4.33,4.33,4.33h129.97
			c2.38,0,4.33-1.95,4.33-4.33V10.41C157.3,5.62,153.43,1.75,148.63,1.75z"/>
	</g>
</g>
</svg>
