<?xml version="1.0" encoding="utf-8"?>
<!-- Generator: Adobe Illustrator 23.0.3, SVG Export Plug-In . SVG Version: 6.00 Build 0)  -->
<svg version="1.1" id="Layer_1" xmlns="http://www.w3.org/2000/svg" xmlns:xlink="http://www.w3.org/1999/xlink" x="0px" y="0px"
	 viewBox="0 0 126.44 128.98" style="enable-background:new 0 0 126.44 128.98;" xml:space="preserve">
<style type="text/css">
	.st0{fill:#FAA32C;}
	.st1{fill:#0069BF;}
	.st2{fill:#231F20;}
	.st3{fill:#FFFFFF;}
	.st4{stroke:#231F20;stroke-miterlimit:10;}
	.st5{fill:none;}
	.st6{fill:none;stroke:#000000;stroke-width:3.5129;stroke-miterlimit:10;}
	.st7{stroke:#231F20;stroke-width:1.9309;stroke-miterlimit:10;}
	.st8{stroke:#000000;stroke-miterlimit:10;}
	.st9{stroke:#000000;stroke-width:2.2024;stroke-linecap:round;stroke-linejoin:round;stroke-miterlimit:10;}
	.st10{stroke:#231F20;stroke-width:0.25;stroke-miterlimit:10;}
	.st11{stroke:#231F20;stroke-width:2;stroke-miterlimit:10;}
	.st12{fill:none;stroke:#000000;stroke-width:3.5;stroke-miterlimit:10;}
	.st13{stroke:#231F20;stroke-width:0.5;stroke-miterlimit:10;}
	.st14{fill:none;stroke:#231F20;stroke-width:3;stroke-miterlimit:10;}
	.st15{fill:none;stroke:#231F20;stroke-width:3.5;stroke-miterlimit:10;}
	.st16{fill:#231F20;stroke:#231F20;stroke-width:1.25;stroke-miterlimit:10;}
	.st17{fill:#231F20;stroke:#000000;stroke-miterlimit:10;}
</style>
<g>
	<path class="st1" d="M104.82,62.74V20.06c0-10.78-8.74-19.53-19.53-19.53h-4.06H23.59h-4.06C8.74,0.53,0,9.27,0,20.06v42.69v42.6
		h85.28c10.79,0,19.53-8.75,19.53-19.53v-3.38V62.74z"/>
	<g>
		<path d="M63.24,25.35h23.88c2.19,0,3.98-1.79,3.98-3.98s-1.79-3.98-3.98-3.98H63.24c-2.19,0-3.98,1.79-3.98,3.98
			S61.05,25.35,63.24,25.35z M75.18,76.99c8.78,0,15.92-7.14,15.92-15.92s-7.14-15.92-15.92-15.92s-15.92,7.14-15.92,15.92
			S66.4,76.99,75.18,76.99z M52.89,106.5h44.57c3.08,0,5.57-2.14,5.57-4.78v-4.78c0-7.91-7.49-14.33-16.71-14.33
			c-2.69,0-4.65,1.99-11.14,1.99c-6.69,0-8.31-1.99-11.14-1.99c-9.23,0-16.71,6.42-16.71,14.33v4.78
			C47.32,104.36,49.81,106.5,52.89,106.5z"/>
		<path d="M110.14,0H40.22C33.48,0,27.68,4.11,25.2,9.96c-0.83,1.95-1.28,4.09-1.28,6.34v0v96.38v0c0,2.25,0.46,4.39,1.28,6.34
			c2.48,5.85,8.27,9.96,15.02,9.96h69.92c8.99,0,16.3-7.31,16.3-16.3V85.69v-42.4V16.3C126.44,7.31,119.13,0,110.14,0z
			 M110.22,120.72H40.31c-1.66,0-3.21-0.51-4.5-1.38c-2.14-1.45-3.55-3.9-3.55-6.67V16.3c0-2.77,1.41-5.22,3.55-6.67
			c1.28-0.87,2.83-1.38,4.5-1.38h69.92c4.44,0,8.05,3.61,8.05,8.05l0.13,48.19l-0.13,48.19
			C118.27,117.11,114.66,120.72,110.22,120.72z"/>
	</g>
</g>
</svg>
