<?xml version="1.0" encoding="utf-8"?>
<!-- Generator: Adobe Illustrator 23.0.3, SVG Export Plug-In . SVG Version: 6.00 Build 0)  -->
<svg version="1.1" id="Layer_1" xmlns="http://www.w3.org/2000/svg" xmlns:xlink="http://www.w3.org/1999/xlink" x="0px" y="0px"
	 viewBox="0 0 139.45 128.58" style="enable-background:new 0 0 139.45 128.58;" xml:space="preserve">
<style type="text/css">
	.st0{fill:#FAA32C;}
	.st1{fill:#0069BF;}
	.st2{fill:#231F20;}
	.st3{fill:#FFFFFF;}
	.st4{stroke:#231F20;stroke-miterlimit:10;}
	.st5{fill:none;}
	.st6{fill:none;stroke:#000000;stroke-width:3.5129;stroke-miterlimit:10;}
	.st7{stroke:#231F20;stroke-width:1.9309;stroke-miterlimit:10;}
	.st8{stroke:#000000;stroke-miterlimit:10;}
	.st9{stroke:#000000;stroke-width:2.2024;stroke-linecap:round;stroke-linejoin:round;stroke-miterlimit:10;}
	.st10{stroke:#231F20;stroke-width:0.25;stroke-miterlimit:10;}
	.st11{stroke:#231F20;stroke-width:2;stroke-miterlimit:10;}
	.st12{fill:none;stroke:#000000;stroke-width:3.5;stroke-miterlimit:10;}
	.st13{stroke:#231F20;stroke-width:0.5;stroke-miterlimit:10;}
	.st14{fill:none;stroke:#231F20;stroke-width:3;stroke-miterlimit:10;}
	.st15{fill:none;stroke:#231F20;stroke-width:3.5;stroke-miterlimit:10;}
	.st16{fill:#231F20;stroke:#231F20;stroke-width:1.25;stroke-miterlimit:10;}
	.st17{fill:#231F20;stroke:#000000;stroke-miterlimit:10;}
</style>
<g>
	<path class="st0" d="M139.45,62.72V20.03c0-10.78-8.74-19.53-19.53-19.53h-4.06H58.23h-4.06c-10.79,0-19.53,8.75-19.53,19.53v42.69
		v42.6h85.28c10.79,0,19.53-8.75,19.53-19.53V82.4V62.72z"/>
	<g>
		<g>
			<path d="M86.22,15.86h-9.34v8.25h9.42c4.44,0,8.05,3.61,8.05,8.05l0.13,31.93l-0.13,48.19c0,4.44-3.61,8.05-8.05,8.05H16.38
				c-1.66,0-3.21-0.51-4.5-1.38c-2.14-1.45-3.55-3.9-3.55-6.67V32.16c0-2.77,1.41-5.22,3.55-6.67c1.28-0.87,2.83-1.38,4.5-1.38h9.25
				v-8.25H16.3c-6.74,0-12.54,4.11-15.02,9.96C0.46,27.77,0,29.91,0,32.16v0v80.12l0,0c0,2.25,0.46,4.39,1.28,6.34
				c2.48,5.85,8.27,9.96,15.02,9.96h69.92c8.99,0,16.3-7.31,16.3-16.3V85.29v-42.4V32.16C102.51,23.17,95.2,15.86,86.22,15.86z"/>
			<g>
				<g>
					<g>
						<path class="st8" d="M53.32,13.88c-0.54-0.54-1.29-0.85-2.06-0.85s-1.52,0.31-2.06,0.85c-0.54,0.54-0.85,1.29-0.85,2.06
							s0.31,1.52,0.85,2.06c0.54,0.54,1.29,0.85,2.06,0.85s1.52-0.31,2.06-0.85c0.54-0.54,0.85-1.29,0.85-2.06
							S53.86,14.42,53.32,13.88z"/>
					</g>
				</g>
				<g>
					<g>
						<path class="st8" d="M21.88,17.68c-0.95,2.19-1.49,4.6-1.49,7.14v1.89c0,1.61,1.3,2.91,2.91,2.91h55.91
							c1.61,0,2.91-1.3,2.91-2.91v-1.89c0-2.54-0.53-4.95-1.49-7.13c-0.56-2.14-4.08-5.82-4.08-5.82
							c-3.22-3.06-7.56-4.95-12.34-4.95h-2.55C59.71,3.05,55.7,0.5,51.26,0.5s-8.45,2.55-10.4,6.41H38.3
							c-4.78,0-9.13,1.89-12.34,4.95C25.96,11.86,23.21,14.3,21.88,17.68z M38.3,12.73h4.54c1.31,0,2.46-0.87,2.81-2.14
							c0.69-2.51,3-4.27,5.61-4.27s4.92,1.76,5.61,4.27c0.35,1.26,1.5,2.14,2.81,2.14h4.53c6.32,0,11.52,4.88,12.04,11.07h-50
							C26.78,17.61,31.98,12.73,38.3,12.73z"/>
					</g>
				</g>
			</g>
		</g>
		<g>
			<g>
				<g>
					<path class="st17" d="M31.98,45.33H20.41c-1.33,0-2.41,1.08-2.41,2.41v11.57c0,1.33,1.08,2.41,2.41,2.41h11.57
						c1.33,0,2.41-1.08,2.41-2.41V47.74C34.39,46.41,33.32,45.33,31.98,45.33z M29.57,56.9h-6.75v-6.75h6.75V56.9z"/>
				</g>
			</g>
		</g>
		<rect x="46.33" y="49.6" class="st2" width="38.97" height="8.25"/>
		<g>
			<g>
				<g>
					<path class="st17" d="M31.98,68.12H20.41c-1.33,0-2.41,1.08-2.41,2.41V82.1c0,1.33,1.08,2.41,2.41,2.41h11.57
						c1.33,0,2.41-1.08,2.41-2.41V70.53C34.39,69.2,33.32,68.12,31.98,68.12z M29.57,79.69h-6.75v-6.75h6.75V79.69z"/>
				</g>
			</g>
		</g>
		<rect x="46.33" y="72.39" class="st2" width="38.97" height="8.25"/>
		<g>
			<g>
				<g>
					<path class="st17" d="M31.98,90.9H20.41c-1.33,0-2.41,1.08-2.41,2.41v11.57c0,1.33,1.08,2.41,2.41,2.41h11.57
						c1.33,0,2.41-1.08,2.41-2.41V93.32C34.39,91.98,33.32,90.9,31.98,90.9z M29.57,102.48h-6.75v-6.75h6.75V102.48z"/>
				</g>
			</g>
		</g>
		<rect x="46.33" y="95.18" class="st2" width="38.97" height="8.25"/>
	</g>
</g>
</svg>
