<?xml version="1.0" encoding="utf-8"?>
<!-- Generator: Adobe Illustrator 23.0.3, SVG Export Plug-In . SVG Version: 6.00 Build 0)  -->
<svg version="1.1" id="Layer_1" xmlns="http://www.w3.org/2000/svg" xmlns:xlink="http://www.w3.org/1999/xlink" x="0px" y="0px"
	 viewBox="0 0 181.74 132.06" style="enable-background:new 0 0 181.74 132.06;" xml:space="preserve">
<style type="text/css">
	.st0{fill:#FAA32C;}
	.st1{fill:#0069BF;}
	.st2{fill:#231F20;}
	.st3{fill:#FFFFFF;}
	.st4{stroke:#231F20;stroke-miterlimit:10;}
	.st5{fill:none;}
	.st6{fill:none;stroke:#000000;stroke-width:3.5129;stroke-miterlimit:10;}
	.st7{stroke:#231F20;stroke-width:1.9309;stroke-miterlimit:10;}
	.st8{stroke:#000000;stroke-miterlimit:10;}
	.st9{stroke:#000000;stroke-width:2.2024;stroke-linecap:round;stroke-linejoin:round;stroke-miterlimit:10;}
	.st10{stroke:#231F20;stroke-width:0.25;stroke-miterlimit:10;}
	.st11{stroke:#231F20;stroke-width:2;stroke-miterlimit:10;}
	.st12{fill:none;stroke:#000000;stroke-width:3.5;stroke-miterlimit:10;}
	.st13{stroke:#231F20;stroke-width:0.5;stroke-miterlimit:10;}
	.st14{fill:none;stroke:#231F20;stroke-width:3;stroke-miterlimit:10;}
	.st15{fill:none;stroke:#231F20;stroke-width:3.5;stroke-miterlimit:10;}
	.st16{fill:#231F20;stroke:#231F20;stroke-width:1.25;stroke-miterlimit:10;}
	.st17{fill:#231F20;stroke:#000000;stroke-miterlimit:10;}
</style>
<g>
	<path class="st1" d="M165.84,89.46V46.78c0-10.78-8.74-19.53-19.53-19.53h-4.06H84.62h-4.06c-10.79,0-19.53,8.75-19.53,19.53v42.69
		v42.6h85.28c10.79,0,19.53-8.75,19.53-19.53v-3.38V89.46z"/>
	<g>
		<g>
			<path d="M178.21,10.85c-0.01,0-0.02,0-0.04,0l0,0h-11.94V6.76c0.06-1.62-0.98-3.07-2.54-3.52c-8.29-2.17-16.83-3.26-25.4-3.24
				c-14.09,0-33.29,3.17-47.49,17.61C76.72,3.03,57.38,0,43.33,0c-8.57-0.02-17.11,1.07-25.4,3.24c-1.55,0.45-2.6,1.91-2.54,3.52
				v4.05H3.52C1.58,10.81,0,12.39,0,14.34v112.51c0,1.95,1.58,3.52,3.52,3.52c0.61,0,1.2-0.16,1.73-0.46
				c0.35-0.18,35.58-19.45,84.76-7.05h0.53h0.32c0.28,0.03,0.56,0.03,0.85,0c49.32-12.51,84.54,6.73,84.76,7.05
				c1.09,0.63,2.43,0.63,3.52,0c1.08-0.63,1.75-1.78,1.76-3.03V14.37C181.74,12.43,180.16,10.85,178.21,10.85z M7.05,121.25V17.9
				h8.42v88.35c-0.02,1.95,1.54,3.54,3.48,3.56c0.19,0,0.38-0.01,0.57-0.04c7.29-1.11,14.65-1.7,22.02-1.76
				c10.21-0.18,20.38,1.36,30.08,4.54C49.7,109.9,27.48,112.9,7.05,121.25z M41.53,101c-6.41,0.01-12.81,0.43-19.16,1.23V9.55
				c6.86-1.53,13.86-2.31,20.89-2.32c13.17,0,31.35,3.03,43.96,17.26l0.11,87.75C80,107.44,65.7,101,41.53,101z M94.37,24.48
				c12.61-14.09,30.79-17.26,43.96-17.26c7.03,0.02,14.03,0.8,20.89,2.32v92.68c-6.32-0.81-12.69-1.24-19.06-1.27
				c-24.02,0-38.36,6.45-45.8,11.24V24.48z M174.66,121.25c-20.47-8.38-42.75-11.37-64.71-8.7c9.75-3.2,19.97-4.73,30.22-4.54
				c7.42,0.04,14.82,0.62,22.16,1.73c1.92,0.29,3.72-1.03,4.01-2.95c0.03-0.19,0.04-0.38,0.04-0.57V17.9h8.42L174.66,121.25z"/>
		</g>
	</g>
</g>
</svg>
