<?xml version="1.0" encoding="utf-8"?>
<!-- Generator: Adobe Illustrator 23.0.3, SVG Export Plug-In . SVG Version: 6.00 Build 0)  -->
<svg version="1.1" id="Layer_1" xmlns="http://www.w3.org/2000/svg" xmlns:xlink="http://www.w3.org/1999/xlink" x="0px" y="0px"
	 viewBox="0 0 177.59 129.97" style="enable-background:new 0 0 177.59 129.97;" xml:space="preserve">
<style type="text/css">
	.st0{fill:#FAA32C;}
	.st1{fill:#0069BF;}
	.st2{fill:#231F20;}
	.st3{fill:#FFFFFF;}
	.st4{stroke:#231F20;stroke-miterlimit:10;}
	.st5{fill:none;}
	.st6{fill:none;stroke:#000000;stroke-width:3.5129;stroke-miterlimit:10;}
	.st7{stroke:#231F20;stroke-width:1.9309;stroke-miterlimit:10;}
	.st8{stroke:#000000;stroke-miterlimit:10;}
	.st9{stroke:#000000;stroke-width:2.2024;stroke-linecap:round;stroke-linejoin:round;stroke-miterlimit:10;}
	.st10{stroke:#231F20;stroke-width:0.25;stroke-miterlimit:10;}
	.st11{stroke:#231F20;stroke-width:2;stroke-miterlimit:10;}
	.st12{fill:none;stroke:#000000;stroke-width:3.5;stroke-miterlimit:10;}
	.st13{stroke:#231F20;stroke-width:0.5;stroke-miterlimit:10;}
	.st14{fill:none;stroke:#231F20;stroke-width:3;stroke-miterlimit:10;}
	.st15{fill:none;stroke:#231F20;stroke-width:3.5;stroke-miterlimit:10;}
	.st16{fill:#231F20;stroke:#231F20;stroke-width:1.25;stroke-miterlimit:10;}
	.st17{fill:#231F20;stroke:#000000;stroke-miterlimit:10;}
</style>
<g>
	<path class="st1" d="M141.2,74.79V32.1c0-10.78-8.74-19.53-19.53-19.53h-4.06H59.98h-4.06c-10.79,0-19.53,8.75-19.53,19.53v42.69
		v42.6h85.28c10.79,0,19.53-8.75,19.53-19.53v-3.38V74.79z"/>
	<g>
		<g>
			<g>
				<g>
					<path class="st2" d="M141.96,119.35l0.47,0.33c6.63,4.69,17.36,10.29,30.87,10.29c1.72,0,3.27-1.02,3.94-2.59
						c0.68-1.57,0.36-3.39-0.82-4.64l0,0l0,0l0,0l0,0c-0.05-0.05-7.23-7.63-10.76-16.98l-0.26-0.68l0.5-0.53
						c7.64-8.13,11.68-17.75,11.68-27.84c0-25.37-25.52-46-56.89-46S63.8,51.34,63.8,76.7s25.52,46.01,56.89,46.01
						c7.02,0,13.99-1.07,20.72-3.19L141.96,119.35z M163.67,120.37l-2.95-0.95c-4.6-1.48-9.22-3.81-13.35-6.73l-3.95-2.79l-4.6,1.46
						c-5.87,1.86-11.97,2.8-18.13,2.8c-26.65,0-48.33-16.8-48.33-37.44s21.68-37.44,48.33-37.44s48.33,16.8,48.33,37.44
						c0,9.93-5.08,17.43-9.34,21.97l-4.18,4.42l2.15,5.69c1.08,2.86,2.57,5.86,4.42,8.93L163.67,120.37z"/>
				</g>
			</g>
		</g>
		<g>
			<circle cx="141.38" cy="76.32" r="5.61"/>
			<circle cx="121.75" cy="76.32" r="5.61"/>
			<circle cx="102.11" cy="76.32" r="5.61"/>
		</g>
		<path class="st2" d="M70.38,72.14H53.85L28.18,91.39V72.14H16.38c-4.44,0-8.05-3.61-8.05-8.05V16.3c0-4.44,3.61-8.05,8.05-8.05
			h83.85c4.44,0,8.05,3.61,8.05,8.05v19.29l8.17-0.56V16.3c0-8.99-7.31-16.3-16.3-16.3H16.3C7.31,0,0,7.31,0,16.3v47.79
			c0,8.99,7.31,16.3,16.3,16.3h3.54v21.39c0,1.81,1.48,3.06,3.06,3.06c0.61,0,1.25-0.18,1.81-0.61l31.81-23.84h12.64L70.38,72.14z"
			/>
	</g>
</g>
</svg>
