<?xml version="1.0" encoding="utf-8"?>
<!-- Generator: Adobe Illustrator 23.0.3, SVG Export Plug-In . SVG Version: 6.00 Build 0)  -->
<svg version="1.1" id="Layer_1" xmlns="http://www.w3.org/2000/svg" xmlns:xlink="http://www.w3.org/1999/xlink" x="0px" y="0px"
	 viewBox="0 0 156.25 137.66" style="enable-background:new 0 0 156.25 137.66;" xml:space="preserve">
<style type="text/css">
	.st0{fill:#FAA32C;}
	.st1{fill:#0069BF;}
	.st2{fill:#231F20;}
	.st3{fill:#FFFFFF;}
	.st4{stroke:#231F20;stroke-miterlimit:10;}
	.st5{fill:none;}
	.st6{fill:none;stroke:#000000;stroke-width:3.5129;stroke-miterlimit:10;}
	.st7{stroke:#231F20;stroke-width:1.9309;stroke-miterlimit:10;}
	.st8{stroke:#000000;stroke-miterlimit:10;}
	.st9{stroke:#000000;stroke-width:2.2024;stroke-linecap:round;stroke-linejoin:round;stroke-miterlimit:10;}
	.st10{stroke:#231F20;stroke-width:0.25;stroke-miterlimit:10;}
	.st11{stroke:#231F20;stroke-width:2;stroke-miterlimit:10;}
	.st12{fill:none;stroke:#000000;stroke-width:3.5;stroke-miterlimit:10;}
	.st13{stroke:#231F20;stroke-width:0.5;stroke-miterlimit:10;}
	.st14{fill:none;stroke:#231F20;stroke-width:3;stroke-miterlimit:10;}
	.st15{fill:none;stroke:#231F20;stroke-width:3.5;stroke-miterlimit:10;}
	.st16{fill:#231F20;stroke:#231F20;stroke-width:1.25;stroke-miterlimit:10;}
	.st17{fill:#231F20;stroke:#000000;stroke-miterlimit:10;}
</style>
<g>
	<path class="st0" d="M130.53,77.49V34.8c0-10.78-8.74-19.53-19.53-19.53h-4.06H49.31h-4.06c-10.79,0-19.53,8.75-19.53,19.53v42.69
		v42.6H111c10.79,0,19.53-8.75,19.53-19.53v-3.38V77.49z"/>
	<g>
		<g>
			<path d="M139.91,54.88H92.08V42.41l14.79-10.56c1.17-0.83,1.86-2.18,1.86-3.61c0-1.44-0.69-2.78-1.86-3.61L91.9,13.92
				C90.73,6.05,83.93,0,75.74,0H16.33C7.33,0,0,7.33,0,16.33v50.12c0,9.01,7.33,16.33,16.33,16.33h47.83v12.47l-14.79,10.56
				c-1.17,0.83-1.86,2.18-1.86,3.61s0.69,2.78,1.86,3.61l14.97,10.69c1.17,7.87,7.97,13.92,16.16,13.92h59.41
				c9.01,0,16.33-7.33,16.33-16.33V71.21C156.25,62.2,148.92,54.88,139.91,54.88z M16.33,73.9c-4.11,0-7.45-3.34-7.45-7.45V16.33
				c0-4.11,3.34-7.45,7.45-7.45h59.41c4.11,0,7.45,3.34,7.45,7.45c0,1.44,0.69,2.78,1.86,3.61l11.59,8.28l-11.59,8.28
				c-1.17,0.83-1.86,2.18-1.86,3.61v14.75H80.5c-9.01,0-16.33,7.33-16.33,16.33v2.69H16.33z M147.36,121.33
				c0,4.11-3.34,7.45-7.45,7.45H80.5c-4.11,0-7.45-3.34-7.45-7.45c0-1.43-0.69-2.78-1.86-3.61l-11.59-8.28l11.59-8.28
				c1.17-0.83,1.86-2.18,1.86-3.61V71.21c0-4.11,3.34-7.45,7.45-7.45h7.12h0.01h0.01h52.26c4.11,0,7.45,3.34,7.45,7.45V121.33z"/>
		</g>
		<circle cx="130.12" cy="95.49" r="5.61"/>
		<circle cx="110.49" cy="95.49" r="5.61"/>
		<circle cx="90.86" cy="95.49" r="5.61"/>
		<circle cx="65.23" cy="37.81" r="5.61"/>
		<circle cx="45.6" cy="37.81" r="5.61"/>
		<circle cx="25.97" cy="37.81" r="5.61"/>
	</g>
</g>
</svg>
