<?xml version="1.0" encoding="utf-8"?>
<!-- Generator: Adobe Illustrator 23.0.3, SVG Export Plug-In . SVG Version: 6.00 Build 0)  -->
<svg version="1.1" id="Layer_1" xmlns="http://www.w3.org/2000/svg" xmlns:xlink="http://www.w3.org/1999/xlink" x="0px" y="0px"
	 viewBox="0 0 168.89 128.84" style="enable-background:new 0 0 168.89 128.84;" xml:space="preserve">
<style type="text/css">
	.st0{fill:#FAA32C;}
	.st1{fill:#0069BF;}
	.st2{fill:#231F20;}
	.st3{fill:#FFFFFF;}
	.st4{stroke:#231F20;stroke-miterlimit:10;}
	.st5{fill:none;}
	.st6{fill:none;stroke:#000000;stroke-width:3.5129;stroke-miterlimit:10;}
	.st7{stroke:#231F20;stroke-width:1.9309;stroke-miterlimit:10;}
	.st8{stroke:#000000;stroke-miterlimit:10;}
	.st9{stroke:#000000;stroke-width:2.2024;stroke-linecap:round;stroke-linejoin:round;stroke-miterlimit:10;}
	.st10{stroke:#231F20;stroke-width:0.25;stroke-miterlimit:10;}
	.st11{stroke:#231F20;stroke-width:2;stroke-miterlimit:10;}
	.st12{fill:none;stroke:#000000;stroke-width:3.5;stroke-miterlimit:10;}
	.st13{stroke:#231F20;stroke-width:0.5;stroke-miterlimit:10;}
	.st14{fill:none;stroke:#231F20;stroke-width:3;stroke-miterlimit:10;}
	.st15{fill:none;stroke:#231F20;stroke-width:3.5;stroke-miterlimit:10;}
	.st16{fill:#231F20;stroke:#231F20;stroke-width:1.25;stroke-miterlimit:10;}
	.st17{fill:#231F20;stroke:#000000;stroke-miterlimit:10;}
</style>
<g>
	<path class="st1" d="M104.82,62.47V19.78c0-10.78-8.74-19.53-19.53-19.53h-4.06H23.59h-4.06C8.74,0.25,0,9,0,19.78v42.69v42.6
		h85.28c10.79,0,19.53-8.75,19.53-19.53v-3.38V62.47z"/>
	<g>
		<g>
			<g>
				<path class="st13" d="M141.97,53.35c-5.4,0-9.67,0-15.1,0c-2.08,0-3.78,1.69-3.78,3.78s1.69,3.78,3.78,3.78h2.31l-9.86,29.59
					l-9.86-29.59h2.31c2.08,0,3.78-1.69,3.78-3.78s-1.69-3.78-3.78-3.78h-15.1c-2.08,0-3.78,1.69-3.78,3.78s1.69,3.78,3.78,3.78
					h2.31l-9.86,29.59L79.25,60.9h2.31c2.08,0,3.78-1.69,3.78-3.78s-1.69-3.78-3.78-3.78c-5.42,0-9.7,0-15.1,0
					c-2.08,0-3.78,1.69-3.78,3.78s1.69,3.78,3.78,3.78h4.83l14.24,42.72c0.51,1.54,1.96,2.58,3.58,2.58c1.63,0,3.07-1.04,3.58-2.58
					l11.52-34.56l11.52,34.56c0.51,1.54,1.96,2.58,3.58,2.58c1.63,0,3.07-1.04,3.58-2.58l14.24-42.72h4.83
					c2.08,0,3.78-1.69,3.78-3.78S144.05,53.35,141.97,53.35z"/>
			</g>
		</g>
		<g>
			<g>
				<path class="st13" d="M157.32,0.25H51.11c-6.24,0-11.33,5.08-11.33,11.33v105.68c0,6.24,5.08,11.33,11.33,11.33h106.21
					c6.24,0,11.33-5.08,11.33-11.33V11.58C168.64,5.33,163.56,0.25,157.32,0.25z M47.34,11.58c0-2.08,1.69-3.78,3.78-3.78h71.98
					v22.65H47.34V11.58z M161.09,117.26c0,2.08-1.69,3.78-3.78,3.78H51.11c-2.08,0-3.78-1.69-3.78-3.78V38h113.76V117.26z
					 M161.09,30.45h-30.45V7.8h26.68c2.08,0,3.78,1.69,3.78,3.78V30.45z"/>
			</g>
		</g>
		<g>
			<g>
				<path class="st13" d="M66.47,15.35h-7.8c-2.08,0-3.78,1.69-3.78,3.78s1.69,3.78,3.78,3.78h7.8c2.08,0,3.78-1.69,3.78-3.78
					S68.55,15.35,66.47,15.35z"/>
			</g>
		</g>
		<g>
			<g>
				<path class="st13" d="M89.12,15.35h-7.55c-2.08,0-3.78,1.69-3.78,3.78s1.69,3.78,3.78,3.78h7.55c2.08,0,3.78-1.69,3.78-3.78
					S91.2,15.35,89.12,15.35z"/>
			</g>
		</g>
		<g>
			<g>
				<path class="st13" d="M111.77,15.35h-7.55c-2.08,0-3.78,1.69-3.78,3.78s1.69,3.78,3.78,3.78h7.55c2.08,0,3.78-1.69,3.78-3.78
					S113.85,15.35,111.77,15.35z"/>
			</g>
		</g>
	</g>
</g>
</svg>
