<?xml version="1.0" encoding="utf-8"?>
<!-- Generator: Adobe Illustrator 23.0.3, SVG Export Plug-In . SVG Version: 6.00 Build 0)  -->
<svg version="1.1" id="Layer_1" xmlns="http://www.w3.org/2000/svg" xmlns:xlink="http://www.w3.org/1999/xlink" x="0px" y="0px"
	 viewBox="0 0 170.8 120" style="enable-background:new 0 0 170.8 120;" xml:space="preserve">
<style type="text/css">
	.st0{fill:#FAA32C;}
	.st1{fill:#0069BF;}
	.st2{fill:#231F20;}
	.st3{fill:#FFFFFF;}
	.st4{stroke:#231F20;stroke-miterlimit:10;}
	.st5{fill:none;}
	.st6{fill:none;stroke:#000000;stroke-width:3.5129;stroke-miterlimit:10;}
	.st7{stroke:#231F20;stroke-width:1.9309;stroke-miterlimit:10;}
	.st8{stroke:#000000;stroke-miterlimit:10;}
	.st9{stroke:#000000;stroke-width:2.2024;stroke-linecap:round;stroke-linejoin:round;stroke-miterlimit:10;}
	.st10{stroke:#231F20;stroke-width:0.25;stroke-miterlimit:10;}
	.st11{stroke:#231F20;stroke-width:2;stroke-miterlimit:10;}
	.st12{fill:none;stroke:#000000;stroke-width:3.5;stroke-miterlimit:10;}
	.st13{stroke:#231F20;stroke-width:0.5;stroke-miterlimit:10;}
	.st14{fill:none;stroke:#231F20;stroke-width:3;stroke-miterlimit:10;}
	.st15{fill:none;stroke:#231F20;stroke-width:3.5;stroke-miterlimit:10;}
	.st16{fill:#231F20;stroke:#231F20;stroke-width:1.25;stroke-miterlimit:10;}
	.st17{fill:#231F20;stroke:#000000;stroke-miterlimit:10;}
</style>
<g>
	<path class="st1" d="M170.8,62.22V19.53C170.8,8.75,162.06,0,151.27,0l-4.06,0L89.58,0h-4.06C74.73,0,65.99,8.75,65.99,19.53v42.69
		v42.6h85.28c10.79,0,19.53-8.75,19.53-19.53V81.9V62.22z"/>
	<g>
		<path class="st2" d="M147.28,34.01c0-6.94-5.64-12.58-12.58-12.58H75.94L56.63,2.11C55.27,0.75,53.45,0,51.52,0L16.3,0.32
			C7.31,0.32,0,7.63,0,16.62v87.09c0,8.99,7.31,16.3,16.3,16.3h114.05c8.99,0,16.3-7.31,16.3-16.3L147.28,34.01z M138.48,103.71
			c0,4.44-3.61,8.05-8.05,8.05H16.38c-4.44,0-8.05-3.61-8.05-8.05V16.62c0-4.44,3.61-8.05,8.05-8.05l33.96-0.06l19.71,19.89
			c1.37,1.36,3.18,2.12,5.11,2.12h63.01L138.48,103.71z"/>
	</g>
</g>
</svg>
