<?xml version="1.0" encoding="utf-8"?>
<!-- Generator: Adobe Illustrator 23.0.3, SVG Export Plug-In . SVG Version: 6.00 Build 0)  -->
<svg version="1.1" id="Layer_1" xmlns="http://www.w3.org/2000/svg" xmlns:xlink="http://www.w3.org/1999/xlink" x="0px" y="0px"
	 viewBox="0 0 145.42 129.54" style="enable-background:new 0 0 145.42 129.54;" xml:space="preserve">
<style type="text/css">
	.st0{fill:#FAA32C;}
	.st1{fill:#0069BF;}
	.st2{fill:#231F20;}
	.st3{fill:#FFFFFF;}
	.st4{stroke:#231F20;stroke-miterlimit:10;}
	.st5{fill:none;}
	.st6{fill:none;stroke:#000000;stroke-width:3.5129;stroke-miterlimit:10;}
	.st7{stroke:#231F20;stroke-width:1.9309;stroke-miterlimit:10;}
	.st8{stroke:#000000;stroke-miterlimit:10;}
	.st9{stroke:#000000;stroke-width:2.2024;stroke-linecap:round;stroke-linejoin:round;stroke-miterlimit:10;}
	.st10{stroke:#231F20;stroke-width:0.25;stroke-miterlimit:10;}
	.st11{stroke:#231F20;stroke-width:2;stroke-miterlimit:10;}
	.st12{fill:none;stroke:#000000;stroke-width:3.5;stroke-miterlimit:10;}
	.st13{stroke:#231F20;stroke-width:0.5;stroke-miterlimit:10;}
	.st14{fill:none;stroke:#231F20;stroke-width:3;stroke-miterlimit:10;}
	.st15{fill:none;stroke:#231F20;stroke-width:3.5;stroke-miterlimit:10;}
	.st16{fill:#231F20;stroke:#231F20;stroke-width:1.25;stroke-miterlimit:10;}
	.st17{fill:#231F20;stroke:#000000;stroke-miterlimit:10;}
</style>
<g>
	<path class="st0" d="M125.12,74.58V31.89c0-10.78-8.74-19.53-19.53-19.53h-4.06l-57.63,0h-4.06c-10.79,0-19.53,8.75-19.53,19.53
		v42.69v42.6h85.28c10.79,0,19.53-8.75,19.53-19.53v-3.38V74.58z"/>
	<g>
		<path class="st10" d="M135.04,0.12H110.8c-5.65,0-10.25,4.6-10.25,10.25v24.24c0,5.65,4.6,10.25,10.25,10.25h24.24
			c5.65,0,10.25-4.6,10.25-10.25V10.38C145.29,4.72,140.69,0.12,135.04,0.12z M137.45,34.62c0,1.33-1.08,2.4-2.41,2.4H110.8
			c-1.33,0-2.4-1.08-2.4-2.4V10.38c0-1.33,1.08-2.4,2.4-2.4h24.24c1.33,0,2.41,1.08,2.41,2.4V34.62z"/>
		<path class="st10" d="M34.62,0.12H10.38c-5.65,0-10.25,4.6-10.25,10.25v24.24c0,5.65,4.6,10.25,10.25,10.25h24.24
			c5.65,0,10.25-4.6,10.25-10.25V10.38C44.87,4.72,40.27,0.12,34.62,0.12z M37.02,34.62c0,1.33-1.08,2.4-2.41,2.4H10.38
			c-1.33,0-2.4-1.08-2.4-2.4V10.38c0-1.33,1.08-2.4,2.4-2.4h24.24c1.33,0,2.41,1.08,2.41,2.4V34.62z"/>
		<path class="st10" d="M116.26,56.99c-1.88,0-3.66,0.47-5.22,1.29c-2.01-3.01-5.43-4.99-9.31-4.99c-2,0-3.89,0.53-5.51,1.46
			c-2.04-2.77-5.32-4.57-9.01-4.57c-1.16,0-2.29,0.18-3.34,0.51v-5.82h0.93c5.65,0,10.25-4.6,10.25-10.25V10.38
			c0-5.65-4.6-10.25-10.25-10.25H60.56c-5.65,0-10.25,4.6-10.25,10.25v24.24c0,5.65,4.6,10.25,10.25,10.25h0.93V71.5
			c-0.61-0.61-1.29-1.15-2.04-1.62c-2.41-1.5-5.24-2.02-8.01-1.48c-2.98,0.12-5.65,1.42-7.39,3.61c-1.82,2.3-2.46,5.38-1.74,8.46
			l5.16,19.75c2.94,18.41,17.3,27.54,17.92,28.12c0.73,0.69,1.69,1.07,2.7,1.07h44.13c1.32,0,2.55-0.66,3.28-1.77
			c7.82-11.89,11.95-21.05,11.95-35.28l0-24.19c0,0,0,0,0,0C127.45,62.01,122.43,56.99,116.26,56.99z M69.73,121.57
			c-3.16-3.36-12.48-9.58-14.53-22.71c-0.02-0.1-0.03-0.19-0.06-0.29l-5.19-19.89c-0.17-0.74-0.09-1.38,0.25-1.8
			c0.33-0.42,0.9-0.64,1.66-0.71c0.38-0.04,0.54-0.08,0.89-0.1c0.89-0.05,1.8,0,2.56,0.48c0.76,0.47,1.29,1.21,1.49,2.08l4.48,16.83
			c0.37,1.6,1.7,2.8,3.33,3l0.31,0.04c1.12,0.14,2.24-0.21,3.08-0.95c0.84-0.74,1.33-1.82,1.33-2.94V32.25
			c0-1.84,1.5-3.34,3.34-3.34c1.84,0,3.34,1.5,3.34,3.34v29.12v10c0,2.17,1.76,3.92,3.92,3.92c2.17,0,3.92-1.76,3.92-3.92v-10
			c0-1.84,1.5-3.34,3.34-3.34c1.84,0,3.34,1.5,3.34,3.34v3.11v7.33c0,2.17,1.76,3.92,3.92,3.92s3.92-1.76,3.92-3.92v-7.33
			c0-1.84,1.5-3.34,3.34-3.34s3.34,1.5,3.34,3.34v3.7v6.37c0,2.17,1.76,3.92,3.92,3.92c2.17,0,3.92-1.76,3.92-3.92v-6.37
			c0-1.84,1.5-3.34,3.34-3.34c1.84,0,3.34,1.5,3.34,3.34l0,24.19c0,11.99-3.29,19-9.54,29.2L69.73,121.57L69.73,121.57z
			 M58.15,34.62V10.38c0-1.33,1.08-2.4,2.4-2.4H84.8c1.33,0,2.4,1.08,2.4,2.4v24.24c0,1.33-1.08,2.4-2.4,2.4h-0.93v-4.78
			c0-6.17-5.02-11.19-11.19-11.19s-11.19,5.02-11.19,11.19v4.78h-0.93C59.23,37.02,58.15,35.95,58.15,34.62z"/>
	</g>
</g>
</svg>
