<?xml version="1.0" encoding="utf-8"?>
<!-- Generator: Adobe Illustrator 23.0.3, SVG Export Plug-In . SVG Version: 6.00 Build 0)  -->
<svg version="1.1" id="Layer_1" xmlns="http://www.w3.org/2000/svg" xmlns:xlink="http://www.w3.org/1999/xlink" x="0px" y="0px"
	 viewBox="0 0 156.71 139.68" style="enable-background:new 0 0 156.71 139.68;" xml:space="preserve">
<style type="text/css">
	.st0{fill:#FAA32C;}
	.st1{fill:#0069BF;}
	.st2{fill:#231F20;}
	.st3{fill:#FFFFFF;}
	.st4{stroke:#231F20;stroke-miterlimit:10;}
	.st5{fill:none;}
	.st6{fill:none;stroke:#000000;stroke-width:3.5129;stroke-miterlimit:10;}
	.st7{stroke:#231F20;stroke-width:1.9309;stroke-miterlimit:10;}
	.st8{stroke:#000000;stroke-miterlimit:10;}
	.st9{stroke:#000000;stroke-width:2.2024;stroke-linecap:round;stroke-linejoin:round;stroke-miterlimit:10;}
	.st10{stroke:#231F20;stroke-width:0.25;stroke-miterlimit:10;}
	.st11{stroke:#231F20;stroke-width:2;stroke-miterlimit:10;}
	.st12{fill:none;stroke:#000000;stroke-width:3.5;stroke-miterlimit:10;}
	.st13{stroke:#231F20;stroke-width:0.5;stroke-miterlimit:10;}
	.st14{fill:none;stroke:#231F20;stroke-width:3;stroke-miterlimit:10;}
	.st15{fill:none;stroke:#231F20;stroke-width:3.5;stroke-miterlimit:10;}
	.st16{fill:#231F20;stroke:#231F20;stroke-width:1.25;stroke-miterlimit:10;}
	.st17{fill:#231F20;stroke:#000000;stroke-miterlimit:10;}
</style>
<g>
	<path class="st1" d="M130.76,79.65V36.96c0-10.78-8.74-19.53-19.53-19.53h-4.06H49.54h-4.06c-10.79,0-19.53,8.75-19.53,19.53v42.69
		v43.6h85.28c10.79,0,19.53-8.75,19.53-19.53v-4.38V79.65z"/>
	<g>
		<path d="M151.76,40.94l-38.3-36.17c-0.98-0.92-2.1-1.26-3.13-1.26c-0.69,0-1.35,0.15-1.9,0.39c-1.75,0.75-2.79,2.34-2.79,4.24
			v19.16c0,0.96-0.78,1.74-1.74,1.75c-22.55,0.12-38.09,2.85-48.9,8.57c-13.17,6.97-19.58,18.67-19.58,35.78
			c0,15.3,9.88,29.77,19.05,36.74c1.06,0.81,2.22,0.55,2.96,0.05c0.35-0.24,1.44-1.15,0.96-2.76c-4.87-16.25-4.51-27.37,1.12-34.99
			c6.53-8.84,19.8-12.68,44.37-12.84c0,0,0.01,0,0.01,0c0.46,0,0.91,0.18,1.23,0.51c0.33,0.33,0.52,0.78,0.52,1.24v19.14
			c0,1.9,1.04,3.49,2.79,4.24c1.36,0.59,3.4,0.67,5.02-0.88l38.3-36.17c0.94-0.88,1.45-2.08,1.45-3.37
			C153.21,43.02,152.69,41.82,151.76,40.94z"/>
		<path d="M46.71,20.52H14.52c-6.07,0-11.02,4.94-11.02,11.02v93.63c0,6.07,4.94,11.02,11.02,11.02h93.63
			c6.07,0,11.02-4.94,11.02-11.02v-23.62c0-0.47-0.22-0.9-0.61-1.17c-0.39-0.27-0.87-0.34-1.32-0.18c-3.17,1.12-6.6,1.46-9.93,0.98
			c-0.43-0.06-0.85,0.06-1.18,0.34c-0.18,0.16-0.49,0.51-0.49,1.08v18.32c0,0.97-0.78,1.75-1.75,1.75H18.77
			c-0.97,0-1.75-0.78-1.75-1.75V35.8c0-0.97,0.78-1.75,1.75-1.75h13.54c0.39,0,0.77-0.16,1.04-0.44c3.9-4.06,8.61-7.54,14.02-10.36
			c0.93-0.49,0.8-1.36,0.73-1.62C48.05,21.36,47.76,20.52,46.71,20.52z"/>
	</g>
</g>
</svg>
