<?xml version="1.0" encoding="utf-8"?>
<!-- Generator: Adobe Illustrator 23.0.3, SVG Export Plug-In . SVG Version: 6.00 Build 0)  -->
<svg version="1.1" id="Layer_1" xmlns="http://www.w3.org/2000/svg" xmlns:xlink="http://www.w3.org/1999/xlink" x="0px" y="0px"
	 viewBox="0 0 151.42 129.37" style="enable-background:new 0 0 151.42 129.37;" xml:space="preserve">
<style type="text/css">
	.st0{fill:#FAA32C;}
	.st1{fill:#0069BF;}
	.st2{fill:#231F20;}
	.st3{fill:#FFFFFF;}
	.st4{stroke:#231F20;stroke-miterlimit:10;}
	.st5{fill:none;}
	.st6{fill:none;stroke:#000000;stroke-width:3.5129;stroke-miterlimit:10;}
	.st7{stroke:#231F20;stroke-width:1.9309;stroke-miterlimit:10;}
	.st8{stroke:#000000;stroke-miterlimit:10;}
	.st9{stroke:#000000;stroke-width:2.2024;stroke-linecap:round;stroke-linejoin:round;stroke-miterlimit:10;}
	.st10{stroke:#231F20;stroke-width:0.25;stroke-miterlimit:10;}
	.st11{stroke:#231F20;stroke-width:2;stroke-miterlimit:10;}
	.st12{fill:none;stroke:#000000;stroke-width:3.5;stroke-miterlimit:10;}
	.st13{stroke:#231F20;stroke-width:0.5;stroke-miterlimit:10;}
	.st14{fill:none;stroke:#231F20;stroke-width:3;stroke-miterlimit:10;}
	.st15{fill:none;stroke:#231F20;stroke-width:3.5;stroke-miterlimit:10;}
	.st16{fill:#231F20;stroke:#231F20;stroke-width:1.25;stroke-miterlimit:10;}
	.st17{fill:#231F20;stroke:#000000;stroke-miterlimit:10;}
</style>
<g>
	<path class="st0" d="M104.82,70.88V28.2c0-10.78-8.74-19.53-19.53-19.53h-4.06H23.59h-4.06C8.74,8.67,0,17.41,0,28.2v42.69v42.6
		h85.28c10.79,0,19.53-8.75,19.53-19.53v-3.38V70.88z"/>
	<g>
		<path d="M135.13,16.66H35.01c-6.74,0-12.54,4.11-15.02,9.96c-0.83,1.95-1.28,4.09-1.28,6.34v0v80.12v0c0,2.25,0.46,4.39,1.28,6.34
			c2.48,5.85,8.27,9.96,15.02,9.96h100.11c8.99,0,16.3-7.31,16.3-16.3V86.08V41.36v-8.41C151.42,23.96,144.11,16.66,135.13,16.66z
			 M135.21,121.12H35.1c-1.66,0-3.21-0.51-4.5-1.38c-2.14-1.45-3.55-3.9-3.55-6.67V32.95c0-2.77,1.41-5.22,3.55-6.67
			c1.28-0.87,2.83-1.38,4.5-1.38h100.11c4.44,0,8.05,3.61,8.05,8.05l0.13,31.93l-0.13,48.19
			C143.26,117.51,139.65,121.12,135.21,121.12z"/>
		<path d="M120.02,64.68L77.56,106.8c-1.4,1.39-3.67,1.38-5.06-0.02L50.1,84.19c-1.39-1.4-1.38-3.67,0.02-5.06l6.78-6.72
			c1.4-1.39,3.67-1.38,5.06,0.02l13.16,13.26l33.14-32.87c1.4-1.39,3.67-1.38,5.06,0.02l6.72,6.78
			C121.43,61.02,121.42,63.29,120.02,64.68L120.02,64.68z"/>
		<rect x="24.3" y="22.03" width="121.54" height="17.37"/>
		<g>
			<path d="M39.86,17.58V3.3c0-1.81,1.48-3.3,3.3-3.3h10.99c1.81,0,3.3,1.48,3.3,3.3v14.29H39.86z"/>
			<path d="M112.69,17.58V3.3c0-1.81,1.48-3.3,3.3-3.3h10.99c1.81,0,3.3,1.48,3.3,3.3v14.29H112.69z"/>
		</g>
	</g>
</g>
</svg>
