<?xml version="1.0" encoding="utf-8"?>
<!-- Generator: Adobe Illustrator 23.0.3, SVG Export Plug-In . SVG Version: 6.00 Build 0)  -->
<svg version="1.1" id="Layer_1" xmlns="http://www.w3.org/2000/svg" xmlns:xlink="http://www.w3.org/1999/xlink" x="0px" y="0px"
	 viewBox="0 0 143.51 130.39" style="enable-background:new 0 0 143.51 130.39;" xml:space="preserve">
<style type="text/css">
	.st0{fill:#FAA32C;}
	.st1{fill:#0069BF;}
	.st2{fill:#231F20;}
	.st3{fill:#FFFFFF;}
	.st4{stroke:#231F20;stroke-miterlimit:10;}
	.st5{fill:none;}
	.st6{fill:none;stroke:#000000;stroke-width:3.5129;stroke-miterlimit:10;}
	.st7{stroke:#231F20;stroke-width:1.9309;stroke-miterlimit:10;}
	.st8{stroke:#000000;stroke-miterlimit:10;}
	.st9{stroke:#000000;stroke-width:2.2024;stroke-linecap:round;stroke-linejoin:round;stroke-miterlimit:10;}
	.st10{stroke:#231F20;stroke-width:0.25;stroke-miterlimit:10;}
	.st11{stroke:#231F20;stroke-width:2;stroke-miterlimit:10;}
	.st12{fill:none;stroke:#000000;stroke-width:3.5;stroke-miterlimit:10;}
	.st13{stroke:#231F20;stroke-width:0.5;stroke-miterlimit:10;}
	.st14{fill:none;stroke:#231F20;stroke-width:3;stroke-miterlimit:10;}
	.st15{fill:none;stroke:#231F20;stroke-width:3.5;stroke-miterlimit:10;}
	.st16{fill:#231F20;stroke:#231F20;stroke-width:1.25;stroke-miterlimit:10;}
	.st17{fill:#231F20;stroke:#000000;stroke-miterlimit:10;}
</style>
<g>
	<path class="st0" d="M104.82,87.79V45.1c0-10.78-8.74-19.53-19.53-19.53h-4.06H23.59h-4.06C8.74,25.57,0,34.32,0,45.1v42.69v42.6
		h85.28c10.79,0,19.53-8.75,19.53-19.53v-3.38V87.79z"/>
	<g>
		<path d="M127.21,0H29.42c-8.99,0-16.3,7.31-16.3,16.3v73.34c0,8.99,7.31,16.3,16.3,16.3h24.45v21.39c0,1.81,1.48,3.06,3.06,3.06
			c0.61,0,1.25-0.18,1.81-0.61l31.81-23.84h36.67c8.99,0,16.3-7.31,16.3-16.3V16.3C143.51,7.31,136.2,0,127.21,0z M135.34,89.64
			c0,4.44-3.61,8.05-8.05,8.05H87.88L62.2,116.94V97.69H29.5c-4.44,0-8.05-3.61-8.05-8.05V16.3c0-4.44,3.61-8.05,8.05-8.05h97.79
			c4.44,0,8.05,3.61,8.05,8.05V89.64z"/>
		<path d="M78.4,67.58c-4.47,0-8.1,3.64-8.1,8.1c0,4.47,3.64,8.1,8.1,8.1s8.1-3.64,8.1-8.1C86.51,71.22,82.87,67.58,78.4,67.58z"/>
		<path d="M79.57,23.89c-9.34,0-15.39,3.83-20.14,10.65c-0.86,1.24-0.6,2.94,0.61,3.85l5.05,3.83c1.21,0.92,2.94,0.71,3.89-0.49
			c2.93-3.67,5.1-5.79,9.68-5.79c3.6,0,8.05,2.32,8.05,5.81c0,2.64-2.18,3.99-5.73,5.99c-4.14,2.32-9.63,5.22-9.63,12.45v1.15
			c0,1.55,1.26,2.81,2.81,2.81h8.48c1.55,0,2.81-1.26,2.81-2.81v-0.68c0-5.01,14.66-5.22,14.66-18.79
			C100.1,31.64,89.5,23.89,79.57,23.89z"/>
	</g>
</g>
</svg>
