<?xml version="1.0" encoding="utf-8"?>
<!-- Generator: Adobe Illustrator 23.0.3, SVG Export Plug-In . SVG Version: 6.00 Build 0)  -->
<svg version="1.1" id="Layer_1" xmlns="http://www.w3.org/2000/svg" xmlns:xlink="http://www.w3.org/1999/xlink" x="0px" y="0px"
	 viewBox="0 0 150.8 128.98" style="enable-background:new 0 0 150.8 128.98;" xml:space="preserve">
<style type="text/css">
	.st0{fill:#FAA32C;}
	.st1{fill:#0069BF;}
	.st2{fill:#231F20;}
	.st3{fill:#FFFFFF;}
	.st4{stroke:#231F20;stroke-miterlimit:10;}
	.st5{fill:none;}
	.st6{fill:none;stroke:#000000;stroke-width:3.5129;stroke-miterlimit:10;}
	.st7{stroke:#231F20;stroke-width:1.9309;stroke-miterlimit:10;}
	.st8{stroke:#000000;stroke-miterlimit:10;}
	.st9{stroke:#000000;stroke-width:2.2024;stroke-linecap:round;stroke-linejoin:round;stroke-miterlimit:10;}
	.st10{stroke:#231F20;stroke-width:0.25;stroke-miterlimit:10;}
	.st11{stroke:#231F20;stroke-width:2;stroke-miterlimit:10;}
	.st12{fill:none;stroke:#000000;stroke-width:3.5;stroke-miterlimit:10;}
	.st13{stroke:#231F20;stroke-width:0.5;stroke-miterlimit:10;}
	.st14{fill:none;stroke:#231F20;stroke-width:3;stroke-miterlimit:10;}
	.st15{fill:none;stroke:#231F20;stroke-width:3.5;stroke-miterlimit:10;}
	.st16{fill:#231F20;stroke:#231F20;stroke-width:1.25;stroke-miterlimit:10;}
	.st17{fill:#231F20;stroke:#000000;stroke-miterlimit:10;}
</style>
<g>
	<path class="st1" d="M150.8,69.87V27.19c0-10.78-8.74-19.53-19.53-19.53h-4.06H69.57h-4.06c-10.79,0-19.53,8.75-19.53,19.53v42.69
		v42.6h85.28c10.79,0,19.53-8.75,19.53-19.53v-3.38V69.87z"/>
	<g>
		<path d="M86.22,0H16.3C9.56,0,3.76,4.11,1.28,9.96C0.46,11.91,0,14.05,0,16.3v0v96.38v0c0,2.25,0.46,4.39,1.28,6.34
			c2.48,5.85,8.27,9.96,15.02,9.96h69.92c8.99,0,16.3-7.31,16.3-16.3V85.69v-42.4V16.3C102.51,7.31,95.2,0,86.22,0z M86.3,120.72
			H16.38c-1.66,0-3.21-0.51-4.5-1.38c-2.14-1.45-3.55-3.9-3.55-6.67V16.3c0-2.77,1.41-5.22,3.55-6.67c1.28-0.87,2.83-1.38,4.5-1.38
			H86.3c4.44,0,8.05,3.61,8.05,8.05l0.13,48.19l-0.13,48.19C94.35,117.11,90.74,120.72,86.3,120.72z"/>
		<g>
			<g>
				<g>
					<g>
						<path class="st8" d="M37.86,57c-0.94-0.94-2.47-0.94-3.41,0L24.14,67.31l-3.18-3.18c-0.94-0.94-2.47-0.94-3.41,0
							c-0.94,0.94-0.94,2.47,0,3.41l4.88,4.88c0.47,0.47,1.09,0.71,1.7,0.71c0.62,0,1.23-0.24,1.7-0.71l12.01-12.01
							C38.8,59.47,38.8,57.94,37.86,57z"/>
					</g>
				</g>
			</g>
			<g>
				<g>
					<g>
						<path class="st8" d="M37.86,29.5c-0.94-0.94-2.47-0.94-3.41,0L24.14,39.81l-3.18-3.18c-0.94-0.94-2.47-0.94-3.41,0
							c-0.94,0.94-0.94,2.47,0,3.41l4.88,4.88c0.47,0.47,1.09,0.71,1.7,0.71c0.62,0,1.23-0.24,1.7-0.71l12.01-12.01
							C38.8,31.97,38.8,30.44,37.86,29.5z"/>
					</g>
				</g>
			</g>
			<g>
				<g>
					<g>
						<path class="st8" d="M31.97,83.79H20.4c-1.33,0-2.41,1.08-2.41,2.41v11.57c0,1.33,1.08,2.41,2.41,2.41h11.57
							c1.33,0,2.41-1.08,2.41-2.41V86.2C34.38,84.87,33.3,83.79,31.97,83.79z M29.56,95.36h-6.75v-6.75h6.75V95.36z"/>
					</g>
				</g>
			</g>
		</g>
		<rect x="46.32" y="32.96" width="38.97" height="8.25"/>
		<rect x="46.32" y="60.51" width="38.97" height="8.25"/>
		<rect x="46.32" y="88.06" width="38.97" height="8.25"/>
	</g>
</g>
</svg>
