<?xml version="1.0" encoding="utf-8"?>
<!-- Generator: Adobe Illustrator 23.0.3, SVG Export Plug-In . SVG Version: 6.00 Build 0)  -->
<svg version="1.1" id="Layer_1" xmlns="http://www.w3.org/2000/svg" xmlns:xlink="http://www.w3.org/1999/xlink" x="0px" y="0px"
	 viewBox="0 0 155.9 128.98" style="enable-background:new 0 0 155.9 128.98;" xml:space="preserve">
<style type="text/css">
	.st0{fill:#FAA32C;}
	.st1{fill:#0069BF;}
	.st2{fill:#231F20;}
	.st3{fill:#FFFFFF;}
	.st4{stroke:#231F20;stroke-miterlimit:10;}
	.st5{fill:none;}
	.st6{fill:none;stroke:#000000;stroke-width:3.5129;stroke-miterlimit:10;}
	.st7{stroke:#231F20;stroke-width:1.9309;stroke-miterlimit:10;}
	.st8{stroke:#000000;stroke-miterlimit:10;}
	.st9{stroke:#000000;stroke-width:2.2024;stroke-linecap:round;stroke-linejoin:round;stroke-miterlimit:10;}
	.st10{stroke:#231F20;stroke-width:0.25;stroke-miterlimit:10;}
	.st11{stroke:#231F20;stroke-width:2;stroke-miterlimit:10;}
	.st12{fill:none;stroke:#000000;stroke-width:3.5;stroke-miterlimit:10;}
	.st13{stroke:#231F20;stroke-width:0.5;stroke-miterlimit:10;}
	.st14{fill:none;stroke:#231F20;stroke-width:3;stroke-miterlimit:10;}
	.st15{fill:none;stroke:#231F20;stroke-width:3.5;stroke-miterlimit:10;}
	.st16{fill:#231F20;stroke:#231F20;stroke-width:1.25;stroke-miterlimit:10;}
	.st17{fill:#231F20;stroke:#000000;stroke-miterlimit:10;}
</style>
<g>
	<path class="st1" d="M104.82,69.66V26.97c0-10.78-8.74-19.53-19.53-19.53h-4.06H23.59h-4.06C8.74,7.44,0,16.19,0,26.97v42.69v42.6
		h85.28c10.79,0,19.53-8.75,19.53-19.53v-3.38V69.66z"/>
	<g>
		<path d="M139.6,0H69.69c-8.99,0-16.3,7.31-16.3,16.3v16.74l8.34,0.09V16.3c0-4.44,3.61-8.05,8.05-8.05h69.92
			c4.44,0,8.05,3.61,8.05,8.05l0.17,63.12h-38.86c-2.45,0-4.04,2.03-4.04,4.07v37.24l-35.24,0c-4.44,0-8.05-3.61-8.05-8.05V93.89
			l-8.34-0.09v18.87c0,8.99,7.31,16.3,16.3,16.3l42.99-0.18l43.23-43.11V16.3C155.9,7.31,148.59,0,139.6,0z M113.12,116.52V87.16
			h29.16L113.12,116.52z"/>
		<g>
			<g>
				<path class="st2" d="M68.4,102.93c-1.6,0-2.51-0.66-2.98-1.22c-0.26-0.31-0.51-0.6-3.61-6.47c-1.49,0.21-3,0.32-4.5,0.32
					c-1.42,0-2.86-0.1-4.28-0.29c-3.72,6.43-4.3,6.8-5.61,7.05c-0.42,0.08-0.87,0.12-1.35,0.12l-0.29,0
					c-3.05-0.1-6.77-1.81-8.47-3.33c-1.36-1.22-1.58-2.42-1.51-3.22c0.03-0.41,0.06-0.77,1.93-6.84c-2.45-1.83-4.62-3.97-6.46-6.4
					c-4.52,1.2-6.04,1.44-6.95,1.44c-0.86,0-1.31-0.25-1.69-0.51c-2.81-1.91-4.73-6.78-4.87-9.43c-0.1-1.83,0.6-2.83,1.21-3.34
					c0.31-0.26,0.57-0.49,6-3.36c-0.44-3.1-0.44-6.22,0.01-9.29c-5.99-3.49-6.37-4.1-6.61-5.35c-0.63-3.34,1.45-8.14,3.22-10.12
					c0.9-1.01,1.9-1.52,2.95-1.52c0.09,0,0.19,0,0.28,0.01c0.39,0.03,0.74,0.06,6.55,1.84c1.75-2.3,3.8-4.34,6.1-6.1
					c-1.21-3.95-2.03-6.64-2.03-6.64c-0.36-1.2,0.14-2.49,1.22-3.13c4.46-2.64,7.55-3.92,9.45-3.92c1.07,0,1.65,0.39,1.93,0.58
					c0.58,0.39,0.97,0.66,4.51,6.76c1.61-0.24,3.23-0.36,4.83-0.36c1.45,0,2.91,0.1,4.36,0.3c2-3.77,3.38-6.35,3.38-6.35
					c0.47-0.89,1.39-1.44,2.4-1.44c0.22,0,0.45,0.03,0.67,0.08c9.04,2.32,10.12,4.15,10.41,5.68c0.13,0.67,0.22,1.17-1.67,8.25
					c2.4,1.79,4.53,3.89,6.35,6.26c4.22-1.3,7.15-2.19,7.15-2.19c0.26-0.08,0.52-0.12,0.79-0.12c0.96,0,1.85,0.51,2.34,1.33
					c4.75,8.04,4.22,10.08,3.34,11.37c-0.39,0.57-0.67,0.99-7.23,4.78c0.42,2.88,0.46,5.79,0.1,8.69c4,2.12,6.79,3.61,6.79,3.61
					c1.11,0.59,1.66,1.86,1.35,3.07c-2.32,9.04-4.15,10.11-5.68,10.4C92.03,83.97,91.87,84,91.62,84l0,0c-0.64,0-1.79-0.14-7.98-1.8
					c-1.86,2.55-4.05,4.79-6.53,6.68c1.97,7.38,1.83,8.06,1.07,9.17c-1.91,2.8-6.77,4.73-9.42,4.87
					C68.64,102.93,68.52,102.93,68.4,102.93z M63.29,89.51c1.01,0,1.93,0.56,2.4,1.46c1.88,3.57,2.89,5.45,3.43,6.43
					c1.1-0.27,2.96-0.99,4.02-1.85c-0.18-0.93-0.63-2.92-1.77-7.06c-0.31-1.13,0.14-2.32,1.11-2.97c3.08-2.06,5.68-4.73,7.72-7.91
					c0.5-0.78,1.36-1.25,2.29-1.25c0.24,0,0.48,0.03,0.72,0.1c4.07,1.11,6.22,1.64,7.35,1.89c0.4-0.89,0.95-2.37,1.47-4.11
					c-1.52-0.81-3.84-2.04-6.56-3.48c-1.06-0.56-1.62-1.73-1.4-2.9c0.65-3.5,0.62-7.04-0.12-10.53c-0.24-1.16,0.28-2.33,1.31-2.92
					c3.63-2.08,5.51-3.22,6.48-3.83c-0.35-0.91-1.01-2.35-1.87-3.94c-1.62,0.49-4.05,1.24-6.91,2.12c-0.26,0.08-0.53,0.12-0.8,0.12
					c-0.91,0-1.75-0.45-2.26-1.2c-2.01-3-4.58-5.54-7.63-7.54c-0.98-0.65-1.44-1.84-1.13-2.98c1.05-3.89,1.56-5.96,1.81-7.05
					c-0.87-0.39-2.32-0.93-4.11-1.47c-0.77,1.45-1.92,3.61-3.26,6.15c-0.47,0.89-1.39,1.45-2.4,1.45c-0.18,0-0.37-0.02-0.54-0.06
					c-1.74-0.35-3.53-0.53-5.3-0.53c-1.89,0-3.79,0.2-5.67,0.6c-0.19,0.04-0.38,0.06-0.57,0.06c-0.97,0-1.87-0.52-2.35-1.36
					c-1.92-3.33-2.98-5.1-3.57-6.02c-0.91,0.35-2.34,1.01-3.94,1.87c0.46,1.52,1.15,3.76,1.96,6.4c0.35,1.14-0.1,2.39-1.08,3.06
					c-2.96,1.98-5.47,4.49-7.45,7.45c-0.51,0.75-1.35,1.2-2.26,1.2c-0.27,0-0.54-0.04-0.8-0.12c-3.5-1.08-5.38-1.65-6.4-1.94
					c-0.59,0.97-1.39,2.79-1.54,4.15c0.74,0.5,2.32,1.5,5.64,3.4c1.02,0.59,1.55,1.76,1.31,2.92c-0.76,3.64-0.76,7.36,0,11.06
					c0.24,1.18-0.33,2.39-1.39,2.95c-3.27,1.72-5.03,2.67-5.96,3.19c0.27,1.1,0.99,2.96,1.84,4.02c0.89-0.17,2.76-0.6,6.55-1.62
					c0.23-0.06,0.47-0.1,0.71-0.1c0.91,0,1.75,0.45,2.26,1.21c2.03,3.04,4.63,5.62,7.75,7.65c1.01,0.66,1.47,1.93,1.11,3.08
					c-1.14,3.68-1.73,5.65-2.03,6.7c0.96,0.59,2.78,1.4,4.15,1.54c0.52-0.77,1.58-2.45,3.64-6.05c0.48-0.84,1.39-1.37,2.36-1.37
					c0.17,0,0.34,0.02,0.51,0.05c1.71,0.33,3.45,0.5,5.17,0.5c1.82,0,3.65-0.19,5.45-0.56C62.91,89.53,63.1,89.51,63.29,89.51z"/>
				<path class="st2" d="M67.48,23.97c0.12,0,0.24,0.01,0.36,0.04c9.03,2.32,9.35,3.99,9.49,4.7c0.08,0.43,0.17,0.92-1.87,8.52
					c2.83,2,5.28,4.42,7.3,7.21c4.67-1.44,7.99-2.45,7.99-2.45c0.14-0.04,0.29-0.06,0.43-0.06c0.51,0,0.99,0.26,1.26,0.72
					c4.75,8.03,3.79,9.43,3.38,10.03c-0.25,0.37-0.53,0.78-7.57,4.83c0.58,3.33,0.62,6.69,0.11,10.03c4.41,2.33,7.56,4.02,7.56,4.02
					c0.6,0.32,0.9,1,0.73,1.66c-2.32,9.03-3.99,9.35-4.7,9.49c-0.09,0.02-0.18,0.03-0.32,0.03c-0.6,0-2.17-0.28-8.5-1.98
					c-2.05,2.98-4.55,5.53-7.44,7.62c2.15,7.96,1.9,8.32,1.47,8.96c-1.67,2.45-6.12,4.2-8.46,4.33c-0.1,0.01-0.2,0.01-0.3,0.01
					c-0.9,0-1.59-0.26-2.03-0.78c-0.19-0.22-0.44-0.51-3.87-7.03c-1.72,0.29-3.46,0.44-5.19,0.44c-1.65,0-3.3-0.13-4.94-0.39
					c-4,6.95-4.43,7.03-5.19,7.18c-0.35,0.07-0.72,0.1-1.11,0.1c-0.08,0-0.17,0-0.25,0c-2.78-0.09-6.19-1.68-7.68-3.01
					c-0.79-0.71-1.16-1.44-1.1-2.19c0.02-0.3,0.05-0.66,2.14-7.43c-2.89-2.03-5.38-4.49-7.42-7.33c-4.65,1.25-6.54,1.62-7.45,1.62
					c-0.55,0-0.75-0.13-0.98-0.3c-2.45-1.67-4.2-6.13-4.33-8.46c-0.06-1.06,0.2-1.84,0.77-2.33c0.21-0.18,0.5-0.43,6.56-3.62
					c-0.61-3.55-0.61-7.12,0-10.63c-6.53-3.78-6.61-4.2-6.75-4.94c-0.55-2.91,1.36-7.31,2.92-9.05c0.65-0.73,1.33-1.11,2.02-1.11
					c0.06,0,0.11,0,0.17,0.01c0.28,0.02,0.65,0.05,7.13,2.05c1.97-2.73,4.34-5.11,7.08-7.08c-1.35-4.4-2.29-7.48-2.29-7.48
					c-0.2-0.65,0.08-1.34,0.66-1.69c5.15-3.05,7.58-3.75,8.81-3.75c0.69,0,1.01,0.22,1.22,0.36c0.37,0.26,0.76,0.52,4.56,7.1
					c1.83-0.32,3.66-0.49,5.49-0.49c1.69,0,3.37,0.14,5.04,0.41c2.22-4.18,3.79-7.13,3.79-7.13C66.44,24.26,66.94,23.97,67.48,23.97
					 M63.18,34.98c-0.1,0-0.19-0.01-0.29-0.03c-1.84-0.37-3.69-0.55-5.55-0.55c-1.98,0-3.96,0.21-5.93,0.63
					c-0.1,0.02-0.2,0.03-0.3,0.03c-0.52,0-1.01-0.27-1.27-0.74c-2.64-4.59-3.7-6.26-4.12-6.87c-1.01,0.2-3.49,1.34-5.96,2.73
					c0.43,1.42,1.25,4.1,2.26,7.38c0.19,0.62-0.05,1.29-0.59,1.65c-3.1,2.07-5.72,4.7-7.8,7.8c-0.28,0.41-0.74,0.65-1.22,0.65
					c-0.14,0-0.29-0.02-0.43-0.07c-4.74-1.47-6.56-2-7.25-2.18c-0.83,0.85-2.43,4.18-2.31,6.22c0.5,0.38,1.97,1.37,6.29,3.85
					c0.55,0.32,0.84,0.95,0.71,1.57c-0.8,3.81-0.8,7.7,0,11.57c0.13,0.64-0.17,1.29-0.75,1.59c-4.44,2.34-6.12,3.26-6.74,3.63
					c0.01,1.18,1.23,4.67,2.76,6.03c0.63-0.08,2.4-0.43,7.32-1.76c0.13-0.04,0.26-0.05,0.39-0.05c0.48,0,0.94,0.24,1.22,0.65
					c2.12,3.18,4.85,5.88,8.1,8c0.55,0.36,0.79,1.04,0.6,1.66c-1.54,4.97-2.09,6.86-2.27,7.56c0.81,0.8,3.94,2.32,5.99,2.32
					c0.08,0,0.15,0,0.23-0.01c0.39-0.51,1.44-2.06,4.09-6.69c0.27-0.46,0.76-0.74,1.28-0.74c0.09,0,0.18,0.01,0.28,0.03
					c1.8,0.35,3.6,0.53,5.41,0.53c1.9,0,3.81-0.19,5.7-0.58c0.1-0.02,0.2-0.03,0.3-0.03c0.53,0,1.04,0.3,1.29,0.79
					c2.52,4.79,3.5,6.57,3.87,7.21c1.18-0.01,4.67-1.23,6.03-2.76c-0.09-0.65-0.45-2.53-1.9-7.84c-0.17-0.61,0.07-1.25,0.6-1.61
					c3.22-2.16,5.94-4.94,8.07-8.27c0.27-0.43,0.74-0.68,1.23-0.68c0.13,0,0.26,0.02,0.39,0.05c5.54,1.51,7.59,1.96,8.35,2.1
					c0.57-0.86,1.52-3.42,2.29-6.15c-1.4-0.75-4.13-2.2-7.46-3.96c-0.57-0.3-0.87-0.94-0.76-1.57c0.68-3.66,0.64-7.37-0.12-11.02
					c-0.13-0.62,0.15-1.26,0.71-1.57c4.94-2.83,6.71-3.95,7.33-4.39c-0.2-1.01-1.34-3.49-2.73-5.96c-1.5,0.46-4.38,1.34-7.89,2.42
					c-0.14,0.04-0.29,0.06-0.43,0.06c-0.48,0-0.94-0.24-1.22-0.65c-2.11-3.14-4.79-5.79-7.98-7.89c-0.53-0.35-0.78-1-0.61-1.61
					c1.44-5.31,1.88-7.3,2.01-8.04c-0.85-0.57-3.38-1.51-6.15-2.29c-0.72,1.35-2.08,3.91-3.74,7.04
					C64.22,34.68,63.72,34.98,63.18,34.98 M67.48,21.47C67.48,21.47,67.48,21.47,67.48,21.47c-1.47,0-2.81,0.8-3.5,2.1
					c0,0-1.2,2.24-2.98,5.6c-1.22-0.13-2.44-0.2-3.65-0.2c-1.39,0-2.79,0.09-4.18,0.26c-3.29-5.64-3.7-5.92-4.46-6.44
					c-0.55-0.37-1.34-0.8-2.63-0.8c-1.36,0-3.88,0.42-10.08,4.09c-1.58,0.93-2.31,2.81-1.78,4.57c0,0,0.71,2.33,1.78,5.82
					c-1.88,1.51-3.59,3.22-5.1,5.1c-5.15-1.58-5.5-1.61-6.01-1.64c-0.1-0.01-0.23-0.02-0.36-0.02c-0.98,0-2.45,0.34-3.89,1.94
					c-1.95,2.18-4.26,7.27-3.51,11.18c0.35,1.83,1.26,2.71,6.49,5.78c-0.32,2.63-0.32,5.28-0.01,7.93
					c-4.81,2.55-5.07,2.78-5.46,3.11c-0.82,0.7-1.77,2.02-1.64,4.36c0.16,2.92,2.13,8.15,5.42,10.39c0.55,0.38,1.23,0.73,2.39,0.73
					c0.98,0,2.41-0.22,6.47-1.28c1.61,2.02,3.45,3.84,5.49,5.44c-1.66,5.41-1.69,5.75-1.73,6.28c-0.08,1.07,0.18,2.68,1.92,4.25
					c1.9,1.71,5.89,3.54,9.27,3.65c0.11,0,0.22,0.01,0.34,0.01c0.55,0,1.08-0.05,1.58-0.14c1.88-0.36,2.74-1.26,6.05-6.94
					c1.2,0.13,2.41,0.2,3.62,0.2c1.26,0,2.54-0.07,3.8-0.22c2.78,5.25,3.03,5.54,3.36,5.93c0.65,0.76,1.86,1.66,3.94,1.66
					c0.15,0,0.29,0,0.45-0.01c2.91-0.16,8.14-2.13,10.38-5.42c1.08-1.59,1.05-2.85-0.68-9.39c2.08-1.67,3.96-3.59,5.6-5.73
					c5.64,1.49,6.74,1.62,7.48,1.62c0.38,0,0.64-0.05,0.78-0.08c2.44-0.46,4.41-2.52,6.67-11.32c0.46-1.78-0.36-3.62-1.97-4.48
					c0,0-2.45-1.31-6.04-3.21c0.24-2.44,0.21-4.89-0.08-7.32c6.1-3.55,6.4-3.98,6.91-4.74c1.4-2.05,1.33-4.89-3.3-12.71
					c-0.71-1.2-2.02-1.95-3.41-1.95c-0.39,0-0.78,0.06-1.15,0.17c0,0-2.56,0.78-6.34,1.94c-1.58-1.96-3.38-3.73-5.38-5.3
					c1.74-6.59,1.64-7.11,1.47-7.99c-0.46-2.44-2.52-4.4-11.32-6.66C68.13,21.51,67.8,21.47,67.48,21.47L67.48,21.47L67.48,21.47z
					 M63.18,37.48c1.47,0,2.82-0.81,3.51-2.12c1.08-2.05,2.04-3.85,2.77-5.23c0.8,0.26,1.48,0.5,2.03,0.71
					c-0.29,1.21-0.77,3.08-1.56,5.97c-0.45,1.66,0.22,3.41,1.65,4.35c2.91,1.91,5.36,4.33,7.28,7.19c0.74,1.1,1.97,1.76,3.29,1.76
					c0.39,0,0.78-0.06,1.16-0.17c2.33-0.72,4.38-1.35,5.93-1.82c0.38,0.75,0.69,1.4,0.93,1.94c-1.08,0.66-2.8,1.68-5.54,3.25
					c-1.5,0.86-2.26,2.57-1.91,4.26c0.7,3.32,0.73,6.7,0.11,10.04c-0.32,1.72,0.5,3.42,2.04,4.23c2.22,1.17,4.17,2.21,5.64,2.99
					c-0.26,0.8-0.5,1.48-0.72,2.03c-1.24-0.3-3.2-0.8-6.28-1.64c-0.33-0.09-0.69-0.14-1.04-0.14c-1.36,0-2.61,0.68-3.34,1.83
					c-1.95,3.04-4.42,5.57-7.36,7.54c-1.42,0.95-2.07,2.69-1.62,4.34c0.87,3.2,1.33,5.08,1.58,6.17c-0.6,0.35-1.35,0.68-2.02,0.92
					c-0.58-1.08-1.5-2.79-2.94-5.52c-0.69-1.31-2.03-2.12-3.51-2.12c-0.27,0-0.55,0.03-0.82,0.09c-1.7,0.35-3.45,0.53-5.18,0.53
					c-1.64,0-3.3-0.16-4.93-0.48c-0.25-0.05-0.5-0.07-0.76-0.07c-1.42,0-2.74,0.77-3.45,2c-1.58,2.76-2.55,4.37-3.14,5.29
					c-0.68-0.17-1.44-0.47-2.08-0.78c0.34-1.16,0.89-2.95,1.74-5.71c0.52-1.68-0.14-3.53-1.62-4.5c-2.97-1.94-5.46-4.39-7.39-7.3
					c-0.74-1.11-1.97-1.77-3.3-1.77c-0.35,0-0.71,0.05-1.05,0.14c-2.88,0.78-4.62,1.21-5.65,1.43c-0.35-0.6-0.68-1.35-0.92-2.02
					c1.03-0.56,2.62-1.41,5.06-2.69c1.56-0.82,2.39-2.59,2.04-4.31c-0.73-3.53-0.73-7.08,0-10.55c0.35-1.69-0.41-3.4-1.91-4.26
					c-2.51-1.44-4-2.35-4.88-2.91c0.17-0.67,0.47-1.44,0.78-2.08c1.11,0.33,2.81,0.85,5.4,1.65c0.39,0.12,0.78,0.18,1.17,0.18
					c1.33,0,2.56-0.66,3.3-1.76c1.89-2.83,4.29-5.22,7.11-7.11c1.45-0.97,2.1-2.8,1.59-4.46c-0.65-2.11-1.22-3.97-1.66-5.41
					c0.75-0.38,1.4-0.69,1.94-0.93c0.63,1.03,1.57,2.62,2.99,5.08c0.71,1.23,2.03,1.99,3.44,1.99c0.28,0,0.55-0.03,0.82-0.09
					c1.79-0.38,3.61-0.57,5.41-0.57c1.69,0,3.39,0.17,5.06,0.5C62.65,37.45,62.92,37.48,63.18,37.48L63.18,37.48z"/>
			</g>
			<g>
				<path class="st2" d="M50.79,46.83c-8.85,3.59-13.13,13.71-9.54,22.56c2.65,6.54,8.86,10.58,15.5,10.8
					c2.35,0.08,4.75-0.32,7.07-1.26c8.85-3.59,13.13-13.71,9.54-22.56C69.76,47.52,59.64,43.24,50.79,46.83z M62.71,76.22
					c-7.35,2.98-15.76-0.57-18.74-7.93c-2.98-7.35,0.57-15.76,7.93-18.74c7.35-2.98,15.76,0.58,18.74,7.93
					C73.61,64.83,70.06,73.24,62.71,76.22z"/>
			</g>
		</g>
		<g>
			<path class="st5" d="M91.35,79.63c-0.76-0.14-2.81-0.59-8.35-2.1c-0.62-0.17-1.27,0.08-1.62,0.62c-2.13,3.33-4.85,6.11-8.07,8.27
				c-0.52,0.35-0.77,1-0.6,1.61c1.45,5.31,1.82,7.19,1.9,7.84c-1.36,1.52-4.85,2.74-6.03,2.76c-0.37-0.64-1.35-2.42-3.87-7.21
				c-0.3-0.58-0.95-0.89-1.59-0.75c-3.68,0.75-7.42,0.78-11.11,0.06c-0.61-0.12-1.24,0.17-1.55,0.71c-2.65,4.63-3.69,6.18-4.09,6.69
				c-2.03,0.12-5.37-1.49-6.22-2.31c0.18-0.7,0.73-2.59,2.27-7.56c0.19-0.63-0.05-1.3-0.6-1.66c-3.25-2.13-5.98-4.82-8.1-8
				c-0.35-0.53-1-0.77-1.61-0.6c-4.92,1.34-6.69,1.68-7.32,1.76c-1.52-1.36-2.74-4.85-2.76-6.03c0.62-0.36,2.3-1.29,6.74-3.63
				c0.58-0.3,0.89-0.95,0.75-1.59c-0.8-3.87-0.8-7.76,0-11.57c0.13-0.62-0.15-1.26-0.71-1.57c-4.32-2.48-5.79-3.47-6.29-3.85
				c-0.11-2.04,1.49-5.37,2.31-6.22c0.69,0.18,2.51,0.71,7.25,2.18c0.62,0.19,1.29-0.05,1.65-0.58c2.08-3.1,4.7-5.73,7.8-7.8
				c0.54-0.36,0.78-1.03,0.59-1.65c-1.01-3.28-1.83-5.96-2.26-7.38c2.47-1.39,4.96-2.53,5.96-2.73c0.42,0.61,1.49,2.28,4.12,6.87
				c0.32,0.55,0.95,0.84,1.58,0.7c3.82-0.81,7.69-0.84,11.48-0.07c0.63,0.13,1.28-0.18,1.59-0.75c1.66-3.14,3.02-5.7,3.74-7.04
				c2.77,0.77,5.29,1.71,6.15,2.29c-0.13,0.74-0.57,2.73-2.01,8.04c-0.17,0.61,0.08,1.26,0.61,1.61c3.19,2.1,5.88,4.75,7.98,7.89
				c0.36,0.54,1.03,0.77,1.65,0.58c3.51-1.08,6.39-1.96,7.89-2.42c1.39,2.47,2.53,4.96,2.73,5.96c-0.63,0.44-2.39,1.56-7.33,4.39
				c-0.55,0.32-0.84,0.95-0.71,1.57c0.76,3.65,0.81,7.35,0.12,11.02c-0.12,0.63,0.19,1.27,0.76,1.57c3.33,1.76,6.05,3.21,7.46,3.96
				C92.87,76.22,91.92,78.78,91.35,79.63z"/>
		</g>
	</g>
</g>
</svg>
