<?xml version="1.0" encoding="utf-8"?>
<!-- Generator: Adobe Illustrator 23.0.3, SVG Export Plug-In . SVG Version: 6.00 Build 0)  -->
<svg version="1.1" id="Layer_1" xmlns="http://www.w3.org/2000/svg" xmlns:xlink="http://www.w3.org/1999/xlink" x="0px" y="0px"
	 viewBox="0 0 130.09 128.98" style="enable-background:new 0 0 130.09 128.98;" xml:space="preserve">
<style type="text/css">
	.st0{fill:#FAA32C;}
	.st1{fill:#0069BF;}
	.st2{fill:#231F20;}
	.st3{fill:#FFFFFF;}
	.st4{stroke:#231F20;stroke-miterlimit:10;}
	.st5{fill:none;}
	.st6{fill:none;stroke:#000000;stroke-width:3.5129;stroke-miterlimit:10;}
	.st7{stroke:#231F20;stroke-width:1.9309;stroke-miterlimit:10;}
	.st8{stroke:#000000;stroke-miterlimit:10;}
	.st9{stroke:#000000;stroke-width:2.2024;stroke-linecap:round;stroke-linejoin:round;stroke-miterlimit:10;}
	.st10{stroke:#231F20;stroke-width:0.25;stroke-miterlimit:10;}
	.st11{stroke:#231F20;stroke-width:2;stroke-miterlimit:10;}
	.st12{fill:none;stroke:#000000;stroke-width:3.5;stroke-miterlimit:10;}
	.st13{stroke:#231F20;stroke-width:0.5;stroke-miterlimit:10;}
	.st14{fill:none;stroke:#231F20;stroke-width:3;stroke-miterlimit:10;}
	.st15{fill:none;stroke:#231F20;stroke-width:3.5;stroke-miterlimit:10;}
	.st16{fill:#231F20;stroke:#231F20;stroke-width:1.25;stroke-miterlimit:10;}
	.st17{fill:#231F20;stroke:#000000;stroke-miterlimit:10;}
</style>
<g>
	<path class="st1" d="M104.82,62.22V19.53C104.82,8.75,96.07,0,85.29,0l-4.06,0L23.59,0h-4.06C8.74,0,0,8.75,0,19.53v42.69v42.6
		h85.28c10.79,0,19.53-8.75,19.53-19.53V81.9V62.22z"/>
	<g>
		<path d="M130.09,112.68V43.29L86.86,0.18L43.88,0c-8.99,0-16.3,7.31-16.3,16.3v96.38c0,8.99,7.31,16.3,16.3,16.3h69.92
			C122.78,128.98,130.09,121.67,130.09,112.68z M116.47,41.81H87.31V12.46L116.47,41.81z M122.1,49.55l-0.17,63.12
			c0,4.44-3.61,8.05-8.05,8.05H43.96c-4.44,0-8.05-3.61-8.05-8.05V16.3c0-4.44,3.61-8.05,8.05-8.05l35.24,0v37.24
			c0,2.03,1.59,4.07,4.04,4.07H122.1z"/>
	</g>
</g>
</svg>
