<?xml version="1.0" encoding="utf-8"?>
<!-- Generator: Adobe Illustrator 23.0.3, SVG Export Plug-In . SVG Version: 6.00 Build 0)  -->
<svg version="1.1" id="Layer_1" xmlns="http://www.w3.org/2000/svg" xmlns:xlink="http://www.w3.org/1999/xlink" x="0px" y="0px"
	 viewBox="0 0 133.7 129.4" style="enable-background:new 0 0 133.7 129.4;" xml:space="preserve">
<style type="text/css">
	.st0{fill:#FAA32C;}
	.st1{fill:#0069BF;}
	.st2{fill:#231F20;}
	.st3{fill:#FFFFFF;}
	.st4{stroke:#231F20;stroke-miterlimit:10;}
	.st5{fill:none;}
	.st6{fill:none;stroke:#000000;stroke-width:3.5129;stroke-miterlimit:10;}
	.st7{stroke:#231F20;stroke-width:1.9309;stroke-miterlimit:10;}
	.st8{stroke:#000000;stroke-miterlimit:10;}
	.st9{stroke:#000000;stroke-width:2.2024;stroke-linecap:round;stroke-linejoin:round;stroke-miterlimit:10;}
	.st10{stroke:#231F20;stroke-width:0.25;stroke-miterlimit:10;}
	.st11{stroke:#231F20;stroke-width:2;stroke-miterlimit:10;}
	.st12{fill:none;stroke:#000000;stroke-width:3.5;stroke-miterlimit:10;}
	.st13{stroke:#231F20;stroke-width:0.5;stroke-miterlimit:10;}
	.st14{fill:none;stroke:#231F20;stroke-width:3;stroke-miterlimit:10;}
	.st15{fill:none;stroke:#231F20;stroke-width:3.5;stroke-miterlimit:10;}
	.st16{fill:#231F20;stroke:#231F20;stroke-width:1.25;stroke-miterlimit:10;}
	.st17{fill:#231F20;stroke:#000000;stroke-miterlimit:10;}
</style>
<g>
	<path class="st0" d="M133.7,86.8V44.11c0-10.78-8.74-19.53-19.53-19.53h-4.06H52.47h-4.06c-10.79,0-19.53,8.75-19.53,19.53V86.8
		v42.6h85.28c10.79,0,19.53-8.75,19.53-19.53v-3.38V86.8z"/>
	<g>
		<path d="M86.22,0H16.3C7.31,0,0,7.31,0,16.3v96.38c0,8.99,7.31,16.3,16.3,16.3l42.99-0.18l43.23-43.11V16.3
			C102.51,7.31,95.2,0,86.22,0z M59.73,116.52V87.16h29.16L59.73,116.52z M55.66,79.42c-2.45,0-4.04,2.03-4.04,4.07v37.24l-35.24,0
			c-4.44,0-8.05-3.61-8.05-8.05V16.3c0-4.44,3.61-8.05,8.05-8.05H86.3c4.44,0,8.05,3.61,8.05,8.05l0.17,63.12H55.66z"/>
		<g>
			<rect x="24.11" y="23.38" width="54.29" height="8.25"/>
			<rect x="24.11" y="39.6" width="54.29" height="8.25"/>
			<rect x="24.11" y="55.82" width="54.29" height="8.25"/>
		</g>
	</g>
</g>
</svg>
