<?xml version="1.0" standalone="no"?>
<!DOCTYPE svg PUBLIC "-//W3C//DTD SVG 1.1//EN" "http://www.w3.org/Graphics/SVG/1.1/DTD/svg11.dtd" >
<svg xmlns="http://www.w3.org/2000/svg" xmlns:xlink="http://www.w3.org/1999/xlink" version="1.1">
<metadata>
Created by FontForge 20200314 at Sun Jun 07 07:44:49 2020
 By etienne.roy
</metadata>
<defs>
<font id="fontello" horiz-adv-x="1000" >
  <font-face 
    font-family="fontello"
    font-weight="400"
    font-stretch="normal"
    units-per-em="1000"
    panose-1="2 0 5 3 0 0 0 0 0 0"
    ascent="850"
    descent="-150"
    bbox="5 -255 997 843.192"
    underline-thickness="0"
    underline-position="0"
    unicode-range="U+E800-E860"
  />
    <missing-glyph />
    <glyph glyph-name="avant-daller-plus-loin_b" unicode="&#xe800;" 
d="M498 -114c-253 0 -459 207 -459 461s206 460 459 460s459 -206 459 -460s-205 -461 -459 -461zM677 619c-51 35 -112 54 -179 54c-179 0 -325 -146 -325 -326c0 -66 20 -127 54 -178zM771 523l-450 -449c51 -34 112 -54 177 -54c179 0 325 147 325 327
c0 65 -19 126 -52 176z" />
    <glyph glyph-name="ampoule" unicode="&#xe801;" 
d="M562.912 738.527h-139.944h-9.99512v-9.99512v-32.9287v-9.99609h9.99512h139.356h9.99609v9.99609v32.9287v9.99512h-9.4082h0.00011zM556.443 792.036h-127.007h-9.99609v-9.99609v-27.6367v-9.99609h9.99609h127.007h9.99707v9.99609v27.6367v9.99609h-9.99707z
M279.496 228.144c-3.52832 -1.76367 -7.64355 -4.11621 -10.584 -7.05566v0l-55.2725 -55.2715v0v0c-6.4668 -6.46875 -9.40723 -14.7002 -9.40723 -22.9326c0 -8.23145 2.94043 -16.4639 9.40723 -22.9316v0v0c6.46777 -6.46875 14.7002 -9.4082 22.9326 -9.4082
c8.23145 0 16.4639 2.93945 22.9316 9.4082v0l55.2725 55.2715c6.46777 6.46875 9.40723 14.7002 9.40723 22.9326c0 8.23145 -2.93945 16.4639 -9.40723 22.9316c-2.94043 2.93945 -6.46875 5.29199 -10.584 7.05566c-4.11621 1.76367 -8.23242 2.35254 -12.3486 2.35254
c-4.7041 0 -8.82031 -0.588867 -12.3477 -2.35254h0.0001zM706.384 228.732c-4.11621 1.76367 -8.23145 2.35156 -12.3477 2.35156c-4.11621 0 -8.23242 -0.587891 -12.3486 -2.35156c-3.52734 -1.76465 -7.05469 -3.52832 -10.584 -7.05664v0
c-6.46777 -6.46777 -9.40723 -14.6992 -9.40723 -22.9316c0 -8.23145 2.93945 -16.4639 9.40723 -22.9316l55.2725 -55.2725v0c6.46777 -6.46777 14.7002 -9.40723 22.9316 -9.40723c8.23242 0 16.4648 2.93945 22.9326 9.40723v0v0
c6.46777 6.46777 9.40723 14.7002 9.40723 22.9326c0 8.23145 -2.93945 16.4639 -9.40723 22.9307v0l-55.2725 55.2725c-3.52734 2.94043 -7.05566 5.29199 -10.584 7.05664zM213.64 634.452l55.2725 -55.2725v0l0.587891 -0.586914
c5.87988 -5.88086 14.1123 -8.82031 22.3438 -8.82031c8.23242 0 15.876 2.93945 22.3438 8.82031l0.588867 0.586914v0c6.46777 6.46777 9.40723 14.7002 9.40723 22.9326c0 8.23145 -2.93945 16.4639 -9.40723 22.9316l-55.2725 55.2725
c-2.94043 2.93945 -6.46777 5.29102 -10.584 7.05566c-4.11621 1.76367 -8.23242 2.35156 -12.3477 2.35156c-4.11621 0 -8.23242 -0.587891 -12.3486 -2.35156c-3.52734 -1.76465 -7.64355 -4.11621 -10.584 -7.05566v0
c-6.4668 -6.46875 -9.40723 -14.7002 -9.40723 -22.9326c0 -8.82031 2.94043 -17.0518 9.40723 -22.9316v0h-5.8e-05zM777.532 368.088h78.2041c8.82031 0 17.0518 3.52832 22.3438 9.4082c5.87988 5.87988 9.40723 14.1113 9.40723 22.9316
s-3.52734 17.0527 -9.40723 22.3447c-5.87988 5.87988 -14.1123 9.40723 -22.9326 9.40723h-78.2041c-8.81934 0 -17.0508 -3.52734 -22.3438 -9.40723c-5.87988 -5.87988 -9.40723 -14.1123 -9.40723 -22.9326s3.52734 -17.0518 9.40723 -22.3438
c5.88086 -5.87988 14.1123 -9.4082 22.9326 -9.4082v0.0001zM230.692 377.496c5.87988 5.87988 9.40723 14.1113 9.40723 22.9316s-3.52734 17.0527 -9.40723 22.9326c-5.87988 5.87988 -13.5244 9.40723 -22.9326 9.40723h-77.6162
c-8.81934 0 -17.0508 -3.52734 -22.3438 -9.40723c-5.87988 -5.87988 -9.40723 -14.1123 -9.40723 -22.9326s3.52734 -17.0518 9.40723 -22.3438c5.87988 -5.87988 14.1123 -9.4082 22.9326 -9.4082h78.2041c8.23145 -0.587891 15.876 2.94043 21.7559 8.82031z
M515.284 138.18c-5.88086 5.87988 -14.1113 9.4082 -22.9316 9.4082s-17.0527 -3.52832 -22.9326 -9.4082s-9.40723 -13.5234 -9.40723 -22.3438v-78.2031c0 -8.82031 3.52734 -17.0527 9.40723 -22.9326s13.5234 -9.4082 22.9326 -9.4082
c8.82031 0 17.0508 3.52832 22.3438 9.4082c5.87988 5.87988 9.40723 14.1123 9.40723 22.9326v78.2031c0.588867 8.82031 -2.93945 16.4639 -8.81934 22.3438h-9e-05zM699.916 400.428c0 27.6357 -5.29199 53.5088 -15.2881 77.6162
c-9.99512 24.6963 -24.6953 47.04 -42.9238 66.4434v0c-12.3477 12.9365 -22.3438 27.0488 -29.9883 42.9248c-7.64355 15.876 -12.9355 32.9277 -15.876 49.9805v0c-1.76367 10.584 -7.05566 19.4033 -14.1123 25.8711c-7.64355 6.46875 -17.0518 9.99609 -27.6348 9.99609
h-122.893c-10.584 0 -19.9922 -3.52734 -27.6367 -9.99609c-7.64355 -6.46777 -12.9355 -15.2871 -14.1113 -25.8711v0c-2.93945 -17.6406 -8.23242 -34.6924 -15.876 -50.5684c-7.64355 -15.877 -17.6396 -29.9883 -29.9883 -42.9238v0
c-18.2275 -18.8164 -32.3398 -40.5732 -42.3359 -65.2676c-9.4082 -23.5205 -15.2881 -49.3926 -15.2881 -76.4404v-0.588867v0c-0.587891 -57.623 22.3438 -109.367 59.3887 -147c37.0439 -37.6309 88.7871 -61.1514 145.823 -61.7393h0.587891h1.76367
c57.0361 0 108.78 22.9316 145.825 59.9756c37.6309 37.0439 60.5635 88.7881 61.1514 145.824c-0.587891 4.11621 -0.587891 -1.17676 -0.587891 1.76367zM522.34 834.372c-8.23242 5.29199 -18.2275 8.82031 -29.3994 8.82031
c-10.584 0 -20.5801 -3.52832 -29.4004 -8.82031c-8.82031 -5.87988 -15.2881 -14.1123 -19.4043 -23.5195l-5.87988 -13.5254h14.7002h79.3799h14.7002l-5.87988 13.5254c-3.52832 9.40723 -10.584 17.6396 -18.8164 23.5195h-4e-05zM694.036 569.772
c8.23145 0 16.4639 2.93945 22.9316 9.40723v0l55.2725 55.2725v0v0c6.46777 6.46777 9.40723 14.7002 9.40723 22.9316c0 8.23242 -2.93945 16.4639 -9.40723 22.9326v0c-2.94043 2.93945 -6.46777 5.29102 -10.584 7.05566
c-4.11621 1.76367 -8.23242 2.35156 -12.3486 2.35156c-4.11523 0 -8.23145 -0.587891 -12.3477 -2.35156c-3.52734 -1.76465 -7.64355 -4.11621 -10.584 -7.05566l-55.2725 -55.2725c-6.46777 -6.46777 -9.40723 -14.7002 -9.40723 -22.9316
c0 -8.23242 2.93945 -16.4648 9.40723 -22.9326c6.46875 -6.46777 14.7002 -9.40723 22.9326 -9.40723h0.0001z" />
    <glyph glyph-name="actualiser-son-potentiel_n" unicode="&#xe802;" 
d="M553 -117c-1 0 -2 0 -3 1c-11 2 -19 12 -17 23c4 25 15 44 34 58c44 32 116 19 160 12c19 -3 34 1 43 10c8 9 11 26 6 44c-3 14 -10 40 7 55c5 5 11 7 15 8v12c-3 11 3 22 13 25c3 1 7 3 10 4c-1 2 -2 3 -2 4c-3 11 -7 24 -9 37c-1 13 3 21 7 26c10 11 25 13 36 14
c8 0 18 1 20 5c3 6 -1 26 -56 100c-23 31 -17 75 -11 119c3 21 5 42 4 59c-4 78 -39 184 -177 241c-156 64 -343 -33 -345 -34c-7 -4 -172 -89 -166 -307v0s19 -112 64 -160c58 -61 50 -267 -12 -333c-8 -9 -21 -9 -29 -1c-8 7 -9 20 -1 28c49 52 57 231 13 279
c-55 57 -74 179 -75 184c-7 246 180 342 187 346c8 4 206 107 380 35c123 -51 194 -149 202 -276c1 -21 -2 -44 -5 -67c-5 -35 -9 -71 4 -89c43 -57 79 -111 57 -146c-12 -21 -35 -23 -50 -24h-6c2 -8 4 -16 7 -23c4 -9 11 -23 3 -36c-5 -7 -13 -13 -22 -17
c0 -10 -2 -19 -2 -19c-4 -19 -17 -24 -25 -25c1 -4 2 -10 3 -12c8 -34 3 -64 -16 -84c-18 -19 -46 -27 -79 -22c-35 6 -99 17 -129 -5c-10 -7 -16 -17 -18 -31c-2 -10 -10 -18 -20 -18zM828 139v0v0zM462 372c-8 0 -15 5 -17 14l-53 236c-3 9 3 18 13 20c9 3 19 -3 21 -13
l53 -236c3 -9 -3 -18 -13 -21h-4zM336 250c-4 0 -9 1 -12 5c-7 6 -7 17 -1 24l122 127c7 7 18 7 25 0c7 -6 7 -17 1 -24l-122 -127c-4 -3 -8 -5 -13 -5zM462 372c-2 0 -3 0 -5 1l-147 48c-9 3 -14 13 -11 22s13 14 22 11l147 -48c9 -3 14 -13 11 -22c-2 -7 -9 -12 -17 -12z
M458 376c-7 0 -13 4 -16 10c-4 9 0 20 9 24l211 97c9 4 19 0 23 -9s0 -19 -8 -23l-212 -97c-2 -1 -5 -2 -7 -2zM564 263c-5 0 -10 2 -13 5l-106 114c-6 7 -6 18 1 25c7 6 18 6 25 -1l105 -114c7 -7 7 -18 0 -25c-4 -3 -8 -4 -12 -4z" />
    <glyph glyph-name="etau" unicode="&#xe803;" 
d="M576 379c0 0 -1 0 -1 -1c0 -2 0 -1 1 -2c0 -1 3 -2 5 -4c1 -2 2 -4 2 -6s-1 -4 -2 -6c9 0 18 1 25 1h1c1 2 3 3 3 4c2 1 2 0 2 2c0 1 0 0 -1 2c-1 0 -3 2 -5 4c-1 1 -2 3 -2 6s2 6 4 7c2 2 4 2 4 3l1 1c0 2 0 1 -1 2s-3 2 -5 5c-1 1 -2 3 -2 5c0 4 2 6 4 8c2 1 4 2 4 3v1
v2c-1 1 -3 2 -5 4s-2 4 -2 6c0 3 2 6 4 7c2 2 3 2 3 3c0 0 1 1 1 2c0 0 0 1 -1 1c0 0 0 1 -1 1c-2 1 -3 2 -4 4h-27s1 0 1 -1c1 -1 2 -3 2 -5c0 -4 -2 -7 -4 -8s-4 -2 -4 -3v-1v-2c1 -1 3 -2 5 -5c2 -1 2 -3 2 -5c0 -4 -2 -6 -4 -8c-2 -1 -3 -2 -3 -2s-1 -1 -1 -2s0 -1 1 -2
c0 -1 3 -2 5 -4c1 -2 2 -4 2 -6c0 -3 -2 -6 -4 -7c-1 -2 -3 -3 -3 -4zM576 254c0 0 -1 0 -1 -1c0 -2 0 -1 1 -2c0 -1 3 -2 5 -4c1 -2 2 -4 2 -6s-1 -4 -2 -6c9 0 18 1 25 1h1c1 2 3 3 3 4c2 1 2 0 2 2c0 1 0 0 -1 2c-1 0 -3 2 -5 4c-1 1 -2 3 -2 6s2 6 4 7c2 2 4 2 4 3l1 1
c0 2 0 1 -1 2s-3 2 -5 5c-1 1 -2 3 -2 5c0 4 2 6 4 8c2 1 4 2 4 3v1v2c-1 1 -3 2 -5 4s-2 4 -2 6c0 3 2 6 4 7c2 2 3 2 3 3c0 0 1 1 1 2c0 0 0 1 -1 1c0 0 0 1 -1 1c-2 1 -3 2 -4 4h-27s1 0 1 -1c1 -1 2 -3 2 -5c0 -4 -2 -7 -4 -8l-4 -4s-1 0 -1 -1s0 -1 1 -2
c0 -1 3 -2 5 -4c1 -2 2 -4 2 -6c0 -3 -2 -6 -4 -7c-3 -2 -4 -2 -4 -3c0 0 -1 -1 -1 -2s0 0 1 -2c1 0 3 -2 5 -4c1 -1 2 -3 2 -5c0 -4 -2 -7 -4 -8c0 -1 -2 -2 -2 -3zM640 466h-91c-4 0 -8 -3 -8 -8v-10c0 -4 3 -8 8 -8h91c4 0 8 4 8 8v0v10c0 5 -4 8 -8 8zM471 219
c-3 0 -6 0 -7 3c-5 9 -15 14 -27 14c-1 0 -2 0 -3 -1s-2 -3 -3 -5c-2 -5 -4 -12 -4 -19c0 -5 1 -10 2 -14c2 -5 4 -8 5 -9s1 -2 3 -2c12 0 23 6 27 14c1 2 4 4 7 3c1 -1 3 -1 4 -1h59v5c0 4 1 8 2 12h-62h-3zM633 233h-77c-2 -2 -3 -4 -3 -4c-4 -7 -7 -16 -7 -22v-8
c0 -2 1 -5 3 -7c2 -1 5 -2 9 -2h73c4 0 7 1 9 2c2 2 3 5 3 7v8c0 7 -3 15 -7 22c0 0 -1 2 -3 4zM648 675h-20v31c-43 19 -90 29 -139 29s-97 -10 -140 -29c-29 -67 -43 -132 -43 -196c0 -65 14 -129 43 -196c41 -16 90 -24 140 -24c28 0 55 2 82 7v2h6c17 3 35 8 50 14v55
c-5 -1 -12 -1 -21 -1c-13 0 -29 0 -45 -1c-32 -1 -64 -1 -73 -1c-25 0 -50 3 -72 8c-2 1 -3 2 -4 3c-15 46 -23 90 -23 134c0 45 8 89 25 137c1 1 2 2 4 3c22 6 47 10 72 10c9 0 25 -1 41 -2v-4c0 -5 4 -9 10 -9h108c5 0 9 4 9 9v13c0 4 -4 8 -10 8zM760 226c-2 4 -4 7 -5 9
c-1 0 -1 1 -3 1c-12 0 -22 -6 -27 -14c-1 -2 -4 -3 -7 -3c-1 1 -3 1 -3 1h-62c1 -4 2 -8 2 -12v-5h59c1 0 3 0 4 1c3 0 6 0 7 -3c5 -9 15 -14 27 -14c1 0 2 0 3 1s2 3 3 5c2 5 4 12 4 19c-1 4 -1 10 -2 14zM495 -10l1 -29l-1 -18c106 2 232 42 232 71v37
c-5 -4 -12 -9 -26 -17c-24 -14 -97 -42 -206 -44zM679 98c-32 9 -76 15 -125 18h-5v33l-87 -56l87 -56v32h5c61 -2 115 -11 147 -24c16 7 25 15 26 22v0v0v0v0v0v0c0 12 -17 22 -48 31zM845 560h-126v49c0 4 -2 6 -6 6h-229c-3 0 -6 -2 -6 -6v-49h-322c-5 0 -8 -3 -8 -7v-81
c0 -4 3 -7 8 -7h689c4 0 8 3 8 7v81c0 4 -4 7 -8 7zM490 603h216v-42h-216v42zM838 481h-675v64h675v-64z" />
    <glyph glyph-name="inhalation" unicode="&#xe804;" 
d="M364 630c17 -31 46 -65 74 -97c40 -47 81 -95 74 -122c-6 -21 -22 -32 -53 -40l-3 -1c-28 -7 -66 -16 -65 -55c1 -9 3 -18 6 -27c1 -6 2 -11 4 -16c0 -3 2 -12 -1 -19c-2 -6 2 -12 8 -13v0c6 -2 12 0 14 6c3 8 4 18 2 29c-2 6 -3 12 -5 17c-2 9 -4 16 -4 23
c-1 22 17 28 48 36h4c24 6 57 18 68 55c10 36 -33 86 -79 140c-47 55 -96 112 -79 146c2 5 -2 12 -9 14v0c-5 2 -11 0 -13 -5c-10 -18 -6 -42 9 -71zM363 351v0c1 5 -2 11 -7 13c-23 8 -37 19 -42 30c-7 16 2 37 13 55c3 5 2 11 -4 14v0c-6 4 -13 2 -16 -3
c-14 -22 -25 -48 -15 -72c8 -19 26 -32 56 -44c6 -2 13 1 15 7zM356 376c18 49 126 50 95 16c-29 -34 -74 8 -95 -16zM508 -26c-116 0 -225 57 -293 151c-44 62 -67 134 -67 210c0 198 161 359 360 359c198 0 359 -161 359 -359s-161 -361 -359 -361zM508 661
c-180 0 -327 -146 -327 -326c0 -69 22 -134 61 -190c62 -85 161 -137 266 -137c180 0 326 147 326 327s-146 326 -326 326zM640 181c-1 2 -4 0 -4 -2c1 -3 1 -9 2 -12c0 -2 2 -2 3 -2s1 1 1 2c2 2 3 2 6 2c1 0 1 1 2 1c1 1 1 3 0 4c-1 2 -7 5 -10 7zM623 174c3 4 5 9 3 13
c-4 9 -11 10 -18 4c-9 -6 -14 -13 -7 -22c6 -9 17 0 22 5zM651 191c8 1 21 7 16 17c-4 10 -13 9 -23 5c-9 -4 -10 -9 -5 -18c3 -5 8 -5 12 -4zM712 290c-17 28 -52 38 -85 25v1l-8 14c-6 11 -21 14 -31 8l-51 -30c-11 -6 -15 -20 -8 -31l8 -14h1c-32 -23 -43 -63 -25 -93
l107 -169l184 146zM583 169c-11 10 -23 30 -21 46c5 40 47 64 85 49c14 -6 26 -26 29 -42c1 -6 -2 -12 3 -17c6 -7 9 -11 3 -17c-6 -8 -20 -9 -9 -20c2 -2 5 -5 3 -8c-7 -12 -25 -22 -38 -22c-5 0 -5 3 -7 6c-4 16 -12 4 -21 3c-9 -2 -10 2 -13 11c-3 6 -8 7 -14 11z
M740 106c-9 0 -10 7 -18 10c-5 1 -25 1 -46 -1c-11 -18 -22 -34 -23 -39c-2 -8 4 -13 -1 -21s-17 -6 -19 3c0 4 -2 5 -5 5c-9 -1 -15 9 -10 16c6 7 13 4 20 9c3 2 11 12 21 25c-16 -1 -30 -3 -33 -5c-7 -4 -9 -12 -17 -14c-10 -1 -15 10 -10 17c2 3 2 5 0 7c-7 6 -3 17 6 18
s12 -7 19 -10c4 -1 24 0 45 1c12 17 22 34 23 38c1 8 -4 14 0 22c6 8 17 5 19 -4c1 -2 2 -4 6 -4c9 1 15 -9 9 -16c-5 -7 -13 -5 -19 -9c-3 -2 -12 -12 -22 -25c16 2 30 4 34 5c7 4 8 12 16 13c10 2 15 -9 10 -16c-1 -2 -2 -5 1 -7c8 -6 3 -17 -6 -18z" />
    <glyph glyph-name="laver-mains" unicode="&#xe805;" 
d="M606 29v0c-25 0 -49 10 -67 27c-18 -17 -42 -27 -67 -27c-28 0 -54 12 -73 32c-9 10 -16 21 -20 33c-4 0 -9 -1 -14 -1c-34 0 -62 28 -62 63c0 34 28 62 62 62c7 0 14 -1 20 -3c1 0 1 1 2 2c-19 11 -31 31 -31 53c0 34 28 63 63 63c4 0 8 -1 12 -2c7 48 48 85 98 85
c36 0 68 -19 86 -50c10 4 21 6 32 6c47 0 86 -38 86 -85c0 -11 -2 -21 -6 -31c25 -15 41 -43 41 -73c0 -41 -29 -75 -69 -84c-5 -16 -14 -30 -27 -42c-17 -18 -41 -28 -66 -28zM539 81l7 -8c15 -17 37 -26 60 -26v0c20 0 40 7 54 21c12 11 20 24 24 39l1 6h6
c33 4 59 34 59 68c0 25 -15 50 -39 61l-8 4l4 8c5 10 7 20 7 31c0 37 -31 68 -68 68c-11 0 -22 -3 -32 -9l-8 -4l-5 9c-13 28 -42 47 -73 47c-45 0 -80 -35 -81 -79l-1 -12l-12 5c-5 2 -11 3 -17 3c-24 0 -44 -20 -44 -44c0 -19 12 -36 30 -42l13 -5l-10 -9
c-4 -5 -7 -9 -9 -14l-3 -9l-8 4c-6 4 -13 5 -20 5c-24 0 -44 -20 -44 -44s20 -45 44 -45c6 0 11 2 16 4l9 3l3 -9c3 -14 10 -25 19 -35c15 -17 36 -26 59 -26c21 0 41 7 55 21c2 1 4 4 6 6zM840 192c-17 24 -50 31 -75 14l-30 -20l-6 -3l-89 -61h-118v29h37
c24 0 45 20 45 43c0 24 -21 44 -45 44h-90h-97h-11c-14 0 -27 -8 -37 -21l-2 -2l-162 -128l144 -118l148 47h203c8 0 16 2 23 5l1 -1l36 24v-1l111 74c23 16 30 50 14 75zM671 565c-26 61 -72 73 -95 143v2v0v0v-2c-22 -69 -68 -82 -94 -143c-8 -18 -10 -49 1 -73
c12 -30 57 -57 93 -56c37 -1 80 26 94 56c11 23 9 55 1 73zM539 526h-33c-2 16 2 42 11 56c15 26 37 38 63 52c-31 -26 -39 -68 -41 -108z" />
    <glyph glyph-name="manches-repliees" unicode="&#xe806;" 
d="M792 630l-63 16l-50 37c-2 1 -5 2 -7 2h-154c-3 0 -5 0 -8 -2l-49 -37l-64 -16c-57 -15 -97 -65 -97 -124v-116h-12c-8 0 -14 -6 -14 -14c0 -7 6 -13 14 -13h12v-57c0 -7 6 -12 13 -12h77v-251c0 -7 5 -12 12 -12h83v0h301c7 0 13 5 13 12v61h77c7 0 12 6 12 13v389
c2 58 -39 109 -96 124zM676 653l32 -24l-31 -92l-46 24zM651 660l-57 -113l-56 113h113zM513 653l46 -92l-46 -24l-31 92zM326 318v43h64v-43h-64zM864 129h-64v351c0 7 -6 12 -12 12c-7 0 -13 -5 -13 -12v-426h-238v0h-122v426c0 7 -5 12 -12 12s-13 -5 -13 -12v-90h-64
v116c0 47 32 88 78 99l55 14l35 -104c3 -8 11 -11 18 -8l60 31l11 -23v-73c0 -7 5 -13 12 -13s13 6 13 13v73l11 23l60 -31c6 -3 15 0 18 8l34 104l55 -14c46 -11 78 -52 78 -99v-377z" />
    <glyph glyph-name="nettoyer" unicode="&#xe807;" 
d="M245 702h-3c-7 -52 -22 -93 -100 -101v-2c78 -8 93 -49 100 -101h3c7 52 22 93 100 101v2c-78 8 -93 49 -100 101zM227 446h-1c-4 -33 -14 -58 -63 -63v-2c49 -5 58 -30 63 -62h1c4 32 14 58 63 62v2c-49 5 -59 30 -63 63zM822 468c-48 76 -2 152 -65 129
s-135 106 -178 41c-42 -66 -155 -32 -213 -63s-25 -104 -53 -178c-24 -67 -46 -107 41 -170c3 -28 9 -60 22 -78c7 -9 9 -39 9 -56v-64v-14l10 -10c26 -27 72 -42 122 -42c24 0 69 4 100 31l11 10v77c3 19 15 31 35 47c8 6 16 13 24 21c2 2 4 5 7 8c31 3 51 6 51 6
c42 12 64 61 59 94c-13 69 70 128 18 211zM739 274c-34 -38 -54 -79 -76 -102c-23 -24 -64 -42 -69 -89v-65c-39 -35 -138 -28 -176 9v65s1 51 -15 75c-14 21 -20 80 -20 112l-18 122c-4 10 1 21 11 23c9 4 21 -2 25 -11l16 -88l12 8l-5 154c-1 13 7 21 18 22s22 -5 23 -18
l11 -144s14 3 17 2l11 168c0 14 11 21 24 21c12 -1 21 -11 21 -24c0 0 -3 -105 -2 -165c2 -1 14 -3 16 -5l28 132c4 11 17 17 29 13s19 -17 15 -28c0 0 -18 -121 -17 -148c0 -26 15 -57 37 -40s67 49 87 33c14 -12 10 -21 -3 -32z" />
    <glyph glyph-name="pas-courir" unicode="&#xe808;" 
d="M498 -19c-115 0 -224 57 -292 151c-45 62 -68 134 -68 210c0 198 161 359 360 359s360 -161 360 -359c0 -200 -161 -361 -360 -361zM498 667c-180 0 -326 -146 -326 -326c0 -69 21 -134 61 -190c61 -85 160 -136 265 -136v0c180 0 326 147 326 327
c0 179 -145 325 -326 325zM533 269l-6 -24c1 0 43 2 64 3c2 0 31 26 43 37c3 3 58 0 79 -1c20 -1 39 1 59 9c9 6 14 11 16 22c1 10 -1 20 -6 30c-8 15 -16 29 -24 43c-14 22 -32 39 -55 50c-1 1 -2 1 -2 2l-167 -130c3 -14 3 -27 -1 -41zM727 383c6 0 11 -4 11 -10
s-5 -10 -11 -10s-11 4 -10 11c0 5 5 9 10 9zM432 357c-4 -1 -8 -1 -13 -2c0 0 12 8 19 9c17 3 33 3 48 -3l73 57c-26 14 -53 25 -83 27c-17 2 -34 1 -50 -1c-26 -4 -50 -13 -72 -29c-14 -9 -27 -20 -37 -34c-17 -23 -27 -49 -31 -77c-2 -14 -3 -28 0 -41c1 -5 2 -10 4 -16
c-23 6 -40 -2 -45 -21c-5 -16 4 -33 20 -38l211 164c-14 6 -29 7 -44 5zM465 551c-6 0 -9 -3 -10 -9c0 -3 0 -7 1 -10c4 -13 13 -22 24 -28c19 -14 39 -23 61 -31c20 -7 41 -14 62 -21l35 27c-6 4 -12 9 -18 12c-23 16 -49 30 -75 42c-14 7 -30 14 -46 16c-11 2 -23 4 -34 2
zM617 190h23c11 1 15 7 11 18c-2 6 -6 11 -11 16c-7 4 -15 7 -23 9c-15 3 -31 2 -47 2c-20 -1 -39 -2 -60 -4h-6c0 2 0 3 1 4c4 14 10 27 12 40c2 8 2 15 2 22l-152 -118c8 -3 16 -5 25 -6c25 -4 50 -2 76 1c26 4 51 8 76 11c25 4 49 5 73 5z" />
    <glyph glyph-name="pas-jeter-dans-evier" unicode="&#xe809;" 
d="M782 318v1v1v1c-1 1 -1 2 -1 3v0c-1 1 -2 2 -4 2v0l-146 45l2 67v0l2 41v0v2s0 1 -1 1v1h-1c0 1 0 2 -1 2h-1c-1 1 -1 1 -2 1v0h-2h-1v0h-2l-1 -1h-1l-82 -46c-1 0 -1 -1 -1 -1h-1v-1v-2l-1 -1v-1v-2v-2s0 -1 1 -2v-1s0 -1 1 -1v0l15 -19h1c1 -1 1 -2 2 -2h1
c0 -1 2 -1 2 -1v0v0c1 0 2 0 3 1v0v0l12 4l-1 -23l-78 24c-13 4 -26 2 -37 -5l-161 -100v0s-1 0 -1 -1s-1 -2 -2 -2l-1 -1v-3c-1 -30 -1 -98 21 -108l285 -132c6 -3 12 -4 18 -4c14 0 27 7 37 19l108 141c20 16 20 84 19 105zM310 283l303 -133c3 -1 7 -3 11 -3
c9 0 18 4 23 11l118 137c0 -32 -5 -64 -12 -69c-1 0 -2 -1 -2 -2l-109 -142c-9 -12 -23 -15 -36 -10l-285 132c-5 4 -11 37 -11 79zM581 432l-18 -7l-5 6l60 34l-1 -19l-36 -14v0zM616 426l-2 -54l-1 -1v0c-6 -7 -14 -13 -18 -13c-1 0 -3 3 -5 7l2 52zM574 360
c5 -14 13 -18 18 -19h4c10 0 20 8 26 15l136 -42l-123 -144c-4 -5 -11 -7 -16 -4l-298 131l147 95c7 5 15 5 24 3l82 -25v-7v-3zM534 264c-10 2 -21 0 -28 -5c-5 -3 -7 -8 -9 -15c-3 -14 10 -29 28 -32c3 -1 6 -1 8 -1c8 0 15 2 20 6s7 9 9 15c2 14 -10 28 -28 32zM545 234
c0 -1 -1 -2 -2 -3c-3 -2 -9 -3 -15 -2c-10 2 -15 9 -15 12c0 1 1 2 2 3c2 1 6 3 10 3c1 0 4 0 6 -1c9 -2 15 -8 14 -12zM332 442c-2 0 -3 1 -5 2c-8 7 -20 21 -25 30c-2 5 -1 9 3 11c4 3 9 1 11 -2c4 -7 15 -20 21 -26c3 -3 4 -8 1 -11c-2 -3 -4 -4 -6 -4zM313 422
c-1 0 -3 1 -5 2c-8 5 -21 21 -25 30c-2 4 -1 9 3 11s9 0 11 -4c3 -6 15 -20 20 -23c4 -3 5 -8 2 -12c-1 -3 -3 -4 -6 -4zM291 401c-2 0 -3 1 -6 3c-8 6 -18 20 -22 28c-2 4 0 9 4 11s9 1 11 -3c3 -7 12 -19 19 -25c3 -2 3 -8 0 -11c-1 -2 -3 -3 -6 -3zM355 463
c-23 22 -38 49 -38 70c0 11 4 20 10 26c20 20 61 8 94 -24c19 -19 32 -43 34 -62l-17 -1c-3 16 -13 36 -30 52c-27 28 -59 36 -70 25c-4 -4 -5 -9 -5 -15c0 -17 13 -41 32 -60zM306 356c-16 0 -32 8 -46 23c-28 29 -36 60 -20 77l86 104l12 -11l-86 -105
c-10 -9 -1 -33 19 -54c17 -17 35 -22 50 -13l60 42l9 -13l-61 -42c-7 -6 -15 -8 -23 -8zM419 332c-14 0 -27 6 -33 17c-7 11 -7 26 0 42c12 26 9 39 -13 53c-10 7 -20 15 -21 25c0 6 3 12 9 16c24 18 73 7 92 -5l2 -2c27 -35 10 -74 -5 -102c-1 -2 -2 -8 -3 -13
c-3 -12 -5 -31 -28 -31zM397 478c-11 0 -20 -2 -26 -6c-2 -2 -2 -3 -2 -3s0 -3 13 -11c28 -19 34 -41 19 -74c-5 -11 -6 -21 -2 -27s11 -9 20 -9c7 0 10 3 12 18c0 6 2 13 4 19c14 24 27 55 7 82c-11 6 -29 11 -45 11zM508 -24c-116 0 -225 56 -293 150
c-44 62 -67 134 -67 210c0 199 161 360 360 360c198 0 359 -161 359 -360s-161 -360 -359 -360zM508 663c-180 0 -327 -147 -327 -327c0 -69 22 -134 61 -189c62 -87 161 -137 266 -137c180 0 326 146 326 326s-146 327 -326 327z" />
    <glyph glyph-name="pas-nourriture" unicode="&#xe80a;" 
d="M758 178h-286c-12 0 -21 9 -21 20v6c0 11 9 20 21 20h16c29 0 57 -6 84 -17c17 -8 29 -14 36 -18c3 -2 9 -2 13 0c8 5 26 13 58 24c22 7 46 11 69 11h7h1c11 0 20 -9 20 -20v-7c1 -11 -8 -19 -18 -19zM474 165h282c0 -27 -22 -48 -49 -48h-185c-27 0 -48 21 -48 48z
M440 197c0 -14 9 -26 21 -30v-2c0 -20 10 -38 24 -49h-136c-7 0 -13 3 -17 8l108 84v-6v-5zM395 623c2 4 7 6 12 5l72 -32c6 -3 10 -8 10 -15v-71h-29v59c0 3 -1 5 -3 6l-61 27c-4 2 -6 7 -5 12zM330 446v17c0 6 5 11 12 11h37v12c0 6 5 12 12 12h60h3h7h29h3h6h59
c7 0 12 -5 12 -12v-12h34c3 0 5 0 7 -2l-34 -34h-239c-5 0 -8 3 -8 8zM452 197v6c0 11 9 20 20 20h17c28 0 57 -6 83 -17c18 -7 29 -14 36 -18c4 -2 9 -2 14 0c8 5 26 13 58 24c22 7 46 11 69 11h7h1c11 0 20 -9 20 -20v-6c0 -11 -9 -20 -20 -20h-285c-12 1 -20 9 -20 20z
M756 165c0 -27 -22 -48 -49 -48h-185c-27 0 -48 21 -48 48h282zM756 235h-283v7l109 84c16 4 10 7 31 7c147 -1 143 -98 143 -98zM511 -18c-115 0 -224 56 -292 151c-45 61 -68 134 -68 209c0 199 162 360 360 360c199 0 360 -161 360 -360s-161 -360 -360 -360zM511 668
c-180 0 -326 -146 -326 -326c0 -69 21 -134 61 -190c62 -85 160 -137 265 -137c180 0 327 147 327 327s-147 326 -327 326z" />
    <glyph glyph-name="pas-verres-contact" unicode="&#xe80b;" 
d="M394 227c-1 0 -2 0 -4 1c-27 8 -266 80 -284 86c-7 3 -12 12 -9 20s12 12 20 9c12 -5 175 -53 282 -85c8 -3 13 -11 10 -20c-1 -7 -8 -11 -15 -11zM837 300c-15 20 -38 32 -68 35c-95 9 -367 -74 -379 -77l-2 -1l-3 -2c-1 -1 -37 -31 -16 -90c3 -9 12 -12 21 -9
c8 2 12 11 9 20c-11 31 0 48 5 53c32 10 279 83 363 75c21 -2 35 -9 46 -22c16 -22 16 -53 15 -68l-135 -46c0 2 0 4 -1 7c0 0 -6 22 7 39c14 17 43 27 85 27h1c8 0 15 7 15 15c0 9 -7 16 -15 16c-54 0 -91 -14 -111 -40c-22 -30 -12 -65 -11 -66c0 -3 2 -5 4 -6l-254 -86
c-112 17 -274 -32 -281 -34c-8 -2 -13 -11 -10 -19c2 -7 8 -11 14 -11h4c2 1 167 50 270 32h5l440 148l1 9c1 2 11 61 -19 101zM736 344h2c22 0 47 11 54 32l3 8l-17 6l-3 -8c-4 -12 -24 -19 -39 -19h-9l-1 -18zM361 668c-83 0 -151 -67 -151 -151c0 -83 68 -150 151 -150
s151 67 151 150c0 84 -68 151 -151 151zM361 392c-69 0 -126 56 -126 125c0 70 57 126 126 126c70 0 126 -56 126 -126c0 -69 -56 -125 -126 -125zM906 444c0 35 -112 44 -179 44s-178 -9 -178 -44c0 -7 5 -13 15 -19c0 -3 1 -6 4 -8c13 -8 23 -15 36 -25
c12 -9 21 -18 31 -29c6 -7 12 -13 19 -20c16 -15 38 -24 63 -26c6 -1 12 -1 18 -1c23 0 43 5 58 13c18 11 26 22 35 33c3 3 5 7 7 10c16 18 32 32 53 47c2 2 3 4 4 6c9 6 14 12 14 19zM727 472c100 0 158 -18 162 -28c-4 -9 -62 -27 -162 -27c-101 0 -159 18 -162 27
c3 10 61 28 162 28zM821 383c-4 -3 -6 -7 -8 -11c-8 -10 -15 -19 -30 -28s-38 -12 -64 -10c-22 2 -39 9 -52 22c-7 6 -12 12 -18 18c-10 11 -20 22 -34 32c-1 1 -2 2 -4 3c37 -7 83 -10 117 -10c35 0 82 3 119 10c-9 -7 -18 -16 -26 -26zM748 329z" />
    <glyph glyph-name="pas-vetements-amples" unicode="&#xe80c;" 
d="M498 -25c-115 0 -224 56 -292 151c-45 62 -68 134 -68 209c0 199 161 360 360 360s360 -161 360 -360s-161 -360 -360 -360zM498 661c-180 0 -326 -146 -326 -326c0 -69 21 -134 61 -190c61 -85 160 -137 265 -137v0c180 0 326 147 326 327s-145 326 -326 326zM506 298
c-6 0 -10 -4 -10 -10c0 -5 4 -9 10 -9s9 4 9 9c0 6 -4 10 -9 10v0zM732 139h-38v19h38v-19v0zM633 367c0 40 5 77 11 112c69 -114 80 -222 85 -281c0 -8 1 -15 2 -21h-40l-58 190v0zM622 224c-28 7 -50 34 -50 64c0 6 -4 10 -9 10h-20c-5 0 -10 -4 -10 -10c0 -5 5 -9 10 -9
h11c4 -39 33 -70 71 -76c1 -5 1 -9 2 -10c1 -6 -4 -15 -9 -16h-1h-224h-1c-4 1 -9 11 -9 17c1 3 1 6 2 10c38 6 68 37 72 75h10c6 0 10 4 10 10c0 5 -4 10 -10 10h-19c-6 0 -10 -5 -10 -10c0 -31 -21 -58 -50 -65c6 48 12 95 11 148c-1 42 -7 84 -18 129l16 14
c11 -16 40 -27 60 -32v-118c0 -5 4 -9 10 -9s9 4 9 9v113c9 -2 21 -4 29 -4c6 0 14 1 28 4v-113c0 -5 5 -9 10 -9s10 4 10 9v117c21 6 49 16 60 33l16 -15c-10 -40 -15 -85 -16 -134v0v0c0 -59 5 -111 9 -142v0zM611 139h-211v19h211v-19v0zM413 531v0l11 34
c23 -18 39 -40 55 -68c-18 3 -58 13 -66 28c-1 3 0 4 0 6v0zM506 592c24 0 48 -4 67 -13c-32 -23 -50 -50 -65 -85h-5c-18 35 -37 63 -65 85c19 8 43 13 68 13v0zM598 531v0c1 -2 1 -3 -1 -5c-8 -16 -50 -26 -67 -29c13 27 29 50 56 68l12 -34v0zM320 177h-39
c6 52 8 174 86 302c7 -36 12 -71 13 -106l-60 -196v0zM317 139h-38v19h38v-19v0zM751 168c0 4 -1 -3 -4 32c-3 31 -7 78 -21 131c-16 64 -42 123 -77 177c-2 3 -2 1 -33 32l-15 43c0 2 -2 5 -4 6c-24 15 -57 22 -91 22s-68 -7 -91 -22c-2 -1 -5 -4 -5 -6l-15 -43
c-32 -30 -31 -30 -32 -31c-36 -53 -62 -113 -78 -178c-14 -54 -18 -100 -21 -131s-4 -30 -4 -32v-38c0 -6 5 -10 10 -10h58c5 0 10 4 10 10v37l41 133c-3 -34 -8 -68 -13 -103c-1 -13 5 -28 16 -35v-33c0 -5 4 -10 10 -10h230c5 0 9 5 9 10v33c13 7 18 26 16 36
c-3 13 -9 56 -12 100l41 -131v-37c0 -6 4 -10 9 -10h58c6 0 10 4 10 10l-2 38v0v0z" />
    <glyph glyph-name="pichenote" unicode="&#xe80d;" 
d="M356 173c3 -6 10 -10 18 -15c9 -5 19 -9 26 -13c7 -3 11 -5 18 -11c6 -6 16 -16 29 -24c14 -8 32 -14 51 -19s40 -9 59 -13s38 -9 58 -11h13c16 -1 35 0 57 2c29 3 65 8 90 12s40 7 56 7c15 0 32 -3 48 -7c17 -5 33 -10 43 -12c9 0 12 3 18 16c7 12 16 32 25 57
c10 25 19 56 24 74c5 19 5 26 5 34s0 17 -2 23c-2 5 -7 6 -16 7s-20 3 -33 5c-12 2 -24 4 -38 8c-15 4 -31 11 -49 22c-18 12 -36 30 -52 47s-30 32 -44 46s-28 26 -39 38s-20 23 -27 36c-6 12 -11 26 -16 40c-5 13 -11 26 -15 36c-5 9 -10 15 -19 24c-8 9 -20 22 -28 30
c-8 9 -14 14 -20 18s-13 8 -20 8c-6 1 -11 0 -17 0c-6 1 -13 2 -19 2c-5 0 -9 -2 -11 -4s-2 -5 -2 -6s1 -3 1 -4c-2 1 -5 2 -9 3c-3 2 -9 4 -18 6c-10 2 -25 5 -38 7c-14 3 -26 5 -39 7c-14 2 -30 3 -43 5c-14 1 -26 3 -37 4c-10 2 -18 2 -22 -4c-5 -5 -6 -18 -3 -27
c3 -10 11 -17 18 -21c7 -5 14 -7 23 -9c9 -3 21 -5 30 -7c10 -2 19 -5 29 -7c10 -3 21 -8 30 -11c9 -4 16 -6 22 -9c5 -3 10 -5 10 -6c-2 1 -5 1 -12 2c-6 1 -13 1 -20 1c-6 0 -11 0 -25 -1s-36 -1 -55 -2c-6 0 -12 -1 -18 -1c-13 0 -24 -2 -34 -3c-16 -2 -32 -5 -46 -7
c-15 -2 -31 -2 -42 -3c-12 -1 -21 -2 -25 -6c-5 -4 -5 -12 -4 -20c1 -9 6 -17 13 -23c8 -6 18 -10 29 -12c12 -2 23 -2 34 -3c12 0 24 -2 37 -3c12 -2 25 -3 40 -4c15 -2 32 -3 45 -5l3 -1c12 -1 18 -3 25 -6c7 -2 14 -5 22 -9s18 -10 26 -13c9 -5 16 -7 19 -9
c3 -1 1 -2 -3 -3c-5 0 -11 -1 -20 -2c-9 -2 -20 -4 -30 -8c-2 -1 -5 -2 -7 -3c-7 -4 -13 -9 -17 -16c-6 -9 -8 -21 -9 -36s-3 -32 -5 -49s-4 -31 -6 -45c-2 -13 -5 -26 -6 -34s-1 -11 -2 -15c0 -3 -1 -5 -2 -7c-1 -1 -6 -2 -10 -3c-3 0 -7 -2 -11 -5c-3 -3 -7 -7 -9 -13
c-2 -5 -2 -11 0 -17zM441 211c1 2 6 8 11 15c5 6 9 14 11 21s2 11 4 16c2 4 6 9 10 14c4 6 8 13 10 19c2 5 3 9 7 10v0c4 0 11 -1 19 -1c9 0 18 1 25 2s11 3 16 3c6 0 13 -2 19 -5l18 -9c6 -2 14 -4 17 -5c3 -2 2 -4 1 -6s-2 -4 -4 -9c-2 -4 -6 -11 -8 -18
c-3 -7 -6 -13 -9 -20c-4 -7 -7 -14 -13 -20c-6 -5 -12 -8 -21 -10c-2 0 -3 -1 -5 -1c-8 -3 -19 -3 -30 -3s-23 0 -31 -1c-9 -1 -13 -2 -17 -1s-7 2 -11 4c-3 1 -8 2 -12 2c-4 1 -8 1 -7 3zM480 560c1 -1 2 -2 1 -2c7 -4 16 -10 24 -15c12 -8 23 -15 38 -22s31 -13 44 -16
c13 -4 23 -6 31 -7s11 -2 6 1c-5 2 -19 7 -34 12c-13 6 -27 12 -45 20c-17 7 -37 16 -50 23c-7 2 -12 4 -15 6zM529 628v0c1 -2 5 -4 12 -8c8 -5 20 -12 31 -21c10 -9 20 -20 28 -30c10 -13 16 -26 27 -38c5 -5 9 -9 13 -12s8 -5 7 -2c-2 2 -9 9 -15 17s-11 15 -18 25
s-8 13 -17 22c-9 10 -17 18 -25 24s-16 10 -21 13c-6 3 -11 5 -15 6c-3 2 -6 3 -7 4zM494 429v0c2 0 3 -1 1 -2c5 -1 15 -2 27 -2c13 0 28 1 41 3s24 5 31 7c8 3 12 5 8 5s-17 -1 -29 -2c-12 -2 -24 -3 -35 -5c-12 -1 -24 -2 -33 -4c-4 1 -8 0 -11 0zM440 210
c-2 -1 -5 -4 -11 -8c-6 -3 -14 -6 -21 -8c-7 0 -12 1 -16 4c-3 3 -4 7 -5 9s-1 3 -1 3c0 -1 -1 -2 -1 -5s2 -8 5 -11c2 -3 6 -5 10 -6c4 0 8 0 13 2c5 1 10 4 15 7c4 3 8 7 10 9c2 4 3 5 2 4zM149 26c-33 -7 -66 12 -78 41c-3 7 1 15 8 16h2c5 2 11 -2 13 -7
c9 -19 30 -30 53 -25c22 7 36 30 32 53c-7 35 9 69 25 104c18 38 37 77 31 123c-8 56 -60 95 -115 83c-47 -10 -79 -54 -75 -101c1 -6 -3 -12 -10 -13v0c-6 -1 -14 4 -15 11c-5 60 36 116 97 128c68 13 133 -36 142 -106c7 -52 -14 -96 -33 -135c-16 -33 -29 -62 -23 -90
c7 -37 -17 -74 -54 -82zM198 303c-1 -2 -4 -4 -7 -5h-1c-5 -1 -11 2 -14 7c0 1 -1 3 -2 3c-15 37 -57 13 -65 -23c-3 -11 -1 -25 5 -36c1 -1 1 -2 1 -2c2 -3 4 -5 5 -8v0c2 -1 2 -4 4 -5c1 -3 3 -5 5 -8c15 -29 18 -52 15 -68c-1 -5 -2 -10 -4 -14c-6 -13 -16 -23 -27 -29
c-1 0 -2 -1 -3 -1c-7 -3 -16 3 -16 10c-1 6 2 11 7 13c6 3 12 8 16 17c6 16 2 37 -10 61c-1 2 -3 4 -4 7c-6 8 -12 17 -20 26c-29 35 -21 62 -14 74c13 24 44 37 75 33c25 -4 45 -17 55 -39c2 -5 2 -10 -1 -13zM121 239c-2 3 -4 5 -5 8c1 -3 3 -5 5 -8zM354 215h-5l-127 46
c-7 3 -11 11 -8 18c3 6 10 11 17 8l128 -46c7 -3 11 -10 8 -17c-2 -6 -7 -9 -13 -9zM242 181c-4 0 -9 4 -9 9c0 6 4 10 9 11l87 4c6 0 10 -4 11 -9c0 -6 -5 -10 -9 -11l-89 -4c1 0 1 0 0 0z" />
    <glyph glyph-name="porter-sarrau" unicode="&#xe80e;" 
d="M484 -33h-171c-3 0 -5 2 -7 4s-3 5 -3 7l10 375l-75 -97c-4 -5 -9 -6 -14 -3l-85 48c-3 1 -4 3 -5 6s-1 6 1 8c122 216 194 277 198 279c2 3 7 4 10 3c4 -2 6 -5 7 -8l14 -58l13 7c5 2 11 1 14 -4l103 -140c1 -2 2 -4 2 -6v-411c-2 -5 -6 -10 -12 -10zM324 -11h149v396
l-94 130l-18 -10c-3 -1 -6 -1 -10 0c-2 1 -5 4 -6 8l-12 52c-25 -26 -86 -98 -174 -250l67 -39l89 116c3 3 8 5 12 3c4 -1 7 -5 7 -10zM447 113h-95c-6 0 -10 4 -10 10v99c0 4 2 9 7 10l95 31c4 1 7 0 10 -2s4 -5 4 -9v-130c0 -5 -4 -9 -11 -9zM363 134h74v104l-74 -24v-80z
M701 -33h-171c-6 0 -11 4 -11 10v411c0 2 1 4 3 6l102 140c4 4 9 6 14 4l13 -7l14 58c1 3 4 6 7 8c4 1 8 0 11 -3c2 -2 75 -64 197 -278c1 -3 2 -6 1 -8c-1 -3 -3 -5 -5 -7l-86 -48c-5 -3 -10 -2 -14 3l-75 96l10 -374c0 -3 -1 -6 -3 -8s-4 -3 -7 -3zM541 -12h149l-11 396
c0 5 3 9 7 10c4 2 9 0 12 -3l89 -115l67 38c-87 152 -148 224 -173 251l-13 -53c-1 -4 -3 -6 -6 -8c-3 -1 -6 -1 -10 0l-17 9l-94 -129v-396zM662 112h-95c-7 0 -11 5 -11 10v130c0 4 2 7 4 9c3 2 7 3 10 2l95 -32c4 -1 8 -5 8 -10v-99c-1 -5 -6 -10 -11 -10zM577 133h74v80
l-74 25v-105zM502 432v0c-3 0 -7 2 -9 5l-78 137l-26 -10c-3 -1 -6 -1 -8 1c-3 1 -5 3 -5 6l-17 64c-1 5 1 10 6 12c6 3 158 68 275 0c3 -3 5 -7 4 -11l-9 -69c-1 -3 -2 -6 -5 -7c-1 -2 -5 -2 -8 -1l-26 8l-86 -131c-2 -3 -4 -4 -8 -4zM419 597c4 0 7 -3 10 -5l74 -131
l80 124c3 3 7 5 12 4l22 -7l7 51c-92 49 -211 11 -243 -1l12 -45l23 9c1 0 2 1 3 1z" />
    <glyph glyph-name="port-lunettes" unicode="&#xe80f;" 
d="M862 429h-3c-1 2 -3 3 -4 5c-24 27 -78 89 -126 89h-4c-59 -5 -92 -47 -93 -48c-6 -7 -4 -18 3 -24c7 -5 18 -4 23 3c2 2 27 32 70 35c13 1 38 -8 84 -56c-21 12 -47 17 -80 14c-24 -2 -57 -7 -92 -13c-50 -8 -107 -17 -143 -17c-31 0 -81 9 -129 17c-33 6 -65 11 -88 13
c-6 1 -12 1 -17 1c-28 0 -50 -6 -69 -19h-3c37 40 65 60 85 60h3c43 -3 68 -33 68 -35c6 -7 16 -8 24 -3c7 6 8 16 3 24c-2 2 -35 43 -93 47c-50 4 -107 -61 -132 -88c-2 -2 -3 -4 -5 -5c-15 -4 -25 -17 -25 -32v-103c0 -18 14 -33 33 -33h7v-12c0 -36 51 -63 95 -79
c45 -16 101 -28 134 -28c15 0 25 2 31 6c15 10 27 28 39 46c10 18 25 41 35 41c11 0 25 -24 36 -41c12 -19 24 -37 38 -47c7 -4 17 -6 31 -6c69 0 248 54 253 119h11c18 0 33 15 33 34v102c0 19 -15 33 -33 33zM844 396h17v-102h-10v64c0 14 -2 27 -7 38zM749 415
c30 0 67 -9 69 -52c-98 7 -202 11 -311 11c-108 0 -217 -4 -315 -11c2 43 39 52 69 52c5 0 10 0 15 -1c21 -2 52 -7 84 -13h3c49 -8 100 -16 134 -17h1c37 0 93 9 146 17c35 6 67 11 90 13c6 0 10 1 15 1zM365 293c2 4 2 8 2 13c-2 4 -4 8 -8 10s-8 3 -12 2
c-5 -1 -9 -3 -11 -8l-67 -110c-1 1 -2 1 -4 1c-52 20 -72 39 -72 48v80c97 8 206 12 315 12s213 -4 311 -12v-64c0 -6 -15 -29 -84 -56c-10 -4 -22 -8 -34 -12l56 97c5 7 2 18 -6 23c-9 4 -18 1 -23 -7l-73 -127c-23 -5 -43 -8 -57 -8c-10 0 -13 1 -13 1c-8 6 -18 21 -27 37
c-18 27 -36 56 -65 56c-28 0 -46 -29 -64 -56c-9 -16 -19 -31 -27 -37c0 0 -3 -1 -13 -1c-21 0 -54 6 -86 15zM167 396c-5 -11 -8 -24 -8 -37v-65h-7v102h15z" />
    <glyph glyph-name="position-adequate" unicode="&#xe810;" 
d="M381 336l17 40l-46 21l-12 -21c0 -5 -2 -11 -4 -16c-3 -7 -8 -13 -15 -18l-9 -16l21 -11zM319 388c-2 5 -6 10 -11 12l-114 52l60 90c3 5 4 11 3 16c-1 7 -5 11 -10 15c-5 3 -11 4 -16 3c-7 -1 -12 -4 -15 -9l-74 -112c-3 -6 -4 -13 -2 -19s6 -12 12 -14l137 -64
c3 -1 8 -2 11 -2c8 1 15 6 19 13c3 7 3 13 0 19zM427 592c-5 6 -10 12 -15 19c-26 36 -38 72 -27 81c-5 -13 12 -44 41 -73c21 -22 45 -37 60 -41c7 -2 13 -2 16 2c11 10 -6 45 -38 77c-1 1 -2 2 -4 3c0 22 -8 44 -25 60c-33 34 -87 34 -120 1c-34 -33 -34 -88 -1 -121
c31 -31 80 -33 113 -8zM356 13l-29 156c0 6 -1 12 -3 18l-91 180v0l-88 40c-10 5 -18 14 -21 25c-4 11 -2 23 5 33l73 111c6 10 17 16 29 18c9 0 18 -2 25 -6c18 -12 23 -37 11 -55l-48 -73l37 -17c3 10 7 20 11 29c4 10 9 20 12 30l48 -72l97 -45l-4 -10l25 -12l-157 236
c-1 1 -2 2 -3 2c-4 6 -9 10 -15 13c-30 15 -80 6 -110 -45c-12 -20 -22 -40 -30 -59c-19 -42 -28 -83 -33 -142c0 -44 20 -64 45 -75l-16 -112l-32 -191c-4 -13 -2 -28 4 -39c2 -9 12 -16 25 -21v0h1c8 -3 17 -4 27 -4c30 0 54 14 54 30c0 9 -7 18 -18 23l28 181
c3 7 4 15 2 23l2 22l30 -43l30 -167c-1 -21 15 -39 38 -39h3c6 -1 11 -2 17 -2c30 0 54 14 54 31c1 13 -15 24 -35 28z" />
    <glyph glyph-name="suggestions-outils" unicode="&#xe811;" 
d="M634 669c-3 3 -7 4 -10 3l-100 -41l27 104c1 3 0 7 -3 10s-7 3 -10 2l-27 -14c-7 -3 -12 -9 -16 -16l-54 -120l-59 -25c-10 7 -22 10 -34 9c-9 -1 -17 -3 -25 -7c-29 -14 -43 -46 -31 -70c7 -16 25 -26 45 -26h4c9 1 17 3 25 7c19 9 32 25 35 44l43 18l7 -7l-11 -45
c-18 -5 -33 -20 -40 -40c-10 -31 2 -63 28 -72c4 -1 9 -2 13 -2h3c21 2 41 18 49 43c7 21 4 44 -10 59l17 62l113 69c6 4 11 10 13 17l10 28c2 4 1 8 -2 10zM456 484l13 49c2 0 3 -1 5 0h3l-14 -51c0 -3 0 -8 4 -10c10 -9 14 -26 8 -43c-7 -20 -25 -32 -40 -28
c-16 5 -22 26 -16 47c5 15 16 26 30 28c3 2 6 5 7 8zM479 554c-3 -1 -5 -2 -7 -2c-6 -1 -11 3 -13 8l-1 3c0 2 -2 4 -5 6h-8l-57 -24c-4 -1 -7 -5 -7 -9c0 -13 -9 -26 -24 -33c-6 -3 -12 -4 -18 -5c-14 -1 -25 5 -30 15c-7 14 3 34 22 43c6 3 12 4 18 5c10 1 19 -2 25 -7
c3 -3 7 -4 11 -3l226 93l-3 -7c0 -3 -2 -6 -5 -7zM527 719l-26 -98l-33 -13l45 100c2 3 4 6 6 7zM424 426c2 -7 7 -11 13 -13c3 0 5 -1 7 0v0c11 0 20 9 24 20c5 14 -1 30 -13 34c-3 0 -5 1 -8 0c-10 0 -19 -9 -23 -20c-2 -7 -2 -14 0 -21zM432 444c3 7 9 14 16 14
c1 0 3 0 4 -1c8 -3 11 -13 8 -23c-3 -8 -9 -14 -16 -14c-2 0 -3 0 -4 1c-4 1 -7 4 -8 8s-1 10 0 15zM466 583v0c-7 -4 -9 -12 -5 -18c3 -5 7 -7 12 -7c2 0 5 0 7 2c7 3 9 12 5 19s-12 9 -19 4zM346 554c-4 0 -8 -1 -12 -3c-14 -7 -21 -22 -15 -34c4 -8 13 -13 23 -12
c5 0 9 1 12 3c7 4 12 9 15 15s3 13 0 19c-4 8 -13 13 -23 12zM360 526c-2 -4 -5 -8 -10 -10c-3 -1 -6 -2 -9 -2c-7 -1 -12 2 -15 8c-4 7 1 17 11 21c3 1 6 2 9 2c7 1 12 -2 15 -7c2 -3 2 -7 -1 -12zM820 550l-12 19c-2 3 -5 3 -9 3l-39 -14c-2 0 -3 -1 -4 -3l-12 -20
l-103 -68h-1l-25 4c-11 1 -21 -1 -30 -6l-106 -71c-9 -6 -15 -15 -17 -26c-2 -10 0 -21 6 -30l8 -13c7 -9 16 -15 26 -17c3 -1 6 -1 8 -1c8 0 16 2 23 7l107 71c8 6 14 15 17 25l6 25v0l104 69l22 3c1 0 3 1 4 2l27 31c2 4 2 7 0 10zM506 328c-6 1 -10 4 -14 9l-8 12
c-3 5 -4 10 -3 16c2 5 4 9 9 13l107 71c4 2 8 3 12 3h4l21 -3l8 -13l-4 -21c-2 -5 -5 -9 -9 -12l-108 -72c-4 -3 -10 -5 -15 -3zM759 517l-103 -68l-5 7l103 68l2 2l11 19l32 11l6 -10l-22 -25l-22 -3c0 1 -1 0 -2 -1zM513 371c-2 0 -3 1 -3 2c-2 2 -1 5 1 6l79 53
c2 1 5 1 7 -1c1 -2 0 -5 -2 -7l-79 -52c-1 -1 -3 -2 -3 -1zM527 349c-1 0 -2 0 -3 2s0 5 2 6l78 52c2 1 5 1 6 -1c2 -2 1 -5 -1 -7l-79 -52h-3zM408 358c-16 11 -28 11 -36 9c-5 11 -12 21 -23 31c-23 21 -61 7 -85 -5c1 25 4 76 4 132c0 35 -8 57 -23 66
c-16 10 -33 0 -34 -1c-2 -1 -3 -3 -4 -5c0 -1 -14 -51 -18 -94c-1 -17 -6 -38 -11 -61c-8 -35 -16 -74 -18 -111c0 -36 10 -90 20 -138c7 -32 12 -60 12 -75c0 -9 0 -19 -2 -30c-1 0 -2 0 -4 -1c-3 -2 -6 -5 -7 -8l-21 -70c-1 -3 0 -7 2 -11c2 -3 5 -6 9 -7l160 -44h4
s5 0 7 2c3 2 6 5 7 8l20 70c2 3 1 7 -1 11c-2 3 -5 6 -9 7l-25 7c1 22 1 36 1 42c0 8 4 12 21 29c2 3 6 6 10 11c26 26 28 54 28 57v0v1v2v26c0 34 9 55 9 56l14 38c7 13 14 40 -7 56zM373 208c0 -16 0 -23 1 -28v0v-1v0s-1 -23 -23 -44c-4 -4 -7 -8 -10 -11
c-17 -16 -26 -25 -26 -42c0 -5 0 -17 -1 -37l-105 29c1 11 3 23 3 34c0 16 -6 45 -13 78c-10 47 -20 99 -20 133c1 35 9 73 17 107c5 23 10 46 11 64c3 34 13 73 16 86c3 0 8 1 12 -1c5 -3 14 -13 14 -49c0 -81 -5 -147 -6 -148c0 -2 1 -4 1 -6v0v0c1 0 2 -1 3 -2v-1v0
s16 -10 24 -29c9 -21 10 -41 10 -41c0 -4 3 -7 6 -9c0 0 23 -9 32 -14c5 -2 10 -1 13 3c0 0 6 11 14 24l2 3c4 7 8 14 11 20l1 1v2l5 9s2 3 7 6c1 2 2 3 2 4c5 3 13 1 22 -5c12 -9 3 -30 1 -33l-14 -39c1 -2 -10 -25 -10 -63zM330 -45l-152 41l19 62l152 -41zM350 347
l-6 -12l-13 -22l-1 -1c-4 -6 -7 -12 -9 -16c-6 3 -13 6 -19 8c31 27 30 47 29 49c0 3 -1 5 -3 6s-4 2 -7 2c-5 -1 -9 -5 -8 -10c0 0 0 -11 -17 -27c-2 7 -4 15 -8 23c-5 12 -13 22 -19 28c24 13 53 21 66 9c10 -10 17 -19 19 -28c0 -3 -3 -6 -4 -9zM858 328l-123 -18l7 21
l-230 -34c-30 -4 -50 -32 -46 -62c2 -14 10 -27 22 -35c6 -5 13 -8 21 -10c4 0 7 -1 10 -1s6 0 9 1l180 27l6 19l101 15zM715 308l-22 -75l-168 -25c-9 -1 -19 1 -26 7c-8 5 -13 14 -14 23c-3 19 10 36 30 40zM725 245l15 56l103 16l-33 -59zM524 232h5l19 3c1 -2 1 -4 3 -4
c2 -2 4 -2 6 -2l43 6c2 0 4 2 6 4c1 1 1 3 1 5l78 12l9 25l-90 -13c-2 4 -5 6 -10 6l-42 -7c-4 -1 -7 -4 -7 -9l-19 -2c-4 -1 -7 -2 -8 -5c-2 -3 -3 -6 -2 -9c1 -4 2 -7 5 -8c0 -1 2 -1 3 -2z" />
    <glyph glyph-name="tenir-xacto" unicode="&#xe812;" 
d="M498 -27c-115 0 -224 56 -292 151c-45 61 -68 134 -68 209c0 199 161 360 360 360s360 -161 360 -360c0 -198 -161 -360 -360 -360zM498 660c-180 0 -326 -147 -326 -327c0 -68 21 -134 61 -189c61 -86 160 -137 265 -137v0c180 0 326 147 326 326
c0 180 -145 327 -326 327zM316 533c-25 -1 -86 -29 -97 -34c-1 -1 -25 -2 -25 -2c-7 0 -13 -6 -13 -13s7 -12 13 -12h23c5 0 9 2 14 4c18 9 69 31 86 32c22 0 166 5 166 5c3 0 12 0 18 -5c7 -7 5 -18 5 -20l-71 -3c-7 0 -13 -6 -12 -13v0c0 -7 6 -12 13 -12l112 5
c6 -2 10 -5 11 -10c3 -8 1 -17 -2 -20v0l-101 -3c-7 0 -13 -6 -12 -13c0 -7 6 -13 13 -13c0 0 115 4 116 4c6 0 22 -12 10 -31l-125 -3c-7 0 -12 -7 -12 -13c0 -7 6 -13 13 -13l133 4c9 0 17 -4 17 -14c1 -13 -5 -15 -12 -16c-7 0 -170 -5 -175 -5c-12 -1 -16 -18 -5 -25
l23 -13c25 -14 59 -34 60 -50v-1c0 -5 -2 -8 -2 -9c-1 -2 -4 -6 -19 -2c-4 2 -25 13 -44 23c-41 23 -74 41 -85 45c-8 3 -39 12 -46 16c-24 11 -64 45 -69 50c-3 3 -6 4 -10 4l-26 -1c-7 0 -13 -6 -13 -13s6 -12 13 -12h22c15 -14 52 -42 72 -51c10 -4 41 -15 49 -17
c10 -3 52 -26 82 -43c34 -19 43 -23 46 -25c27 -9 40 1 47 9l30 -31c5 -5 11 -4 16 -3l41 -45c2 -3 6 -4 10 -4l99 1c5 0 10 3 11 8c2 5 1 10 -2 13l-76 84c2 5 1 10 -2 14l-54 59c6 0 10 1 11 1c23 2 35 17 34 41c-1 18 -12 31 -27 36c2 5 2 12 2 17c0 19 -12 34 -27 40
c2 9 2 19 -2 29c-5 15 -17 24 -32 26h-21c3 5 -2 29 -11 36c-13 12 -32 12 -36 12c1 1 -143 -4 -165 -5zM685 147l-66 -1l-25 28l16 2c5 0 7 3 9 6l14 23zM557 299l62 -68l-19 -31l-40 -5l-36 38c-2 27 -32 46 -61 64c26 0 65 1 94 2z" />
    <glyph glyph-name="xacto" unicode="&#xe813;" 
d="M749 214l-116 117c5 0 9 2 13 6l13 13c4 4 6 8 6 13l95 -96l-11 -53v0zM603 380c-4 -4 -6 -8 -6 -13l-81 80l32 32l81 -80c-5 -1 -10 -3 -13 -7l-13 -12v0zM404 551c-14 -15 -37 -15 -51 0s-15 37 0 51c14 15 37 15 51 0c14 -14 14 -37 0 -51v0zM736 360l-272 273
c-39 39 -103 39 -142 0s-39 -103 0 -142c29 -28 70 -36 105 -24l208 -207c12 -12 29 -15 44 -9l85 -86l23 110l-42 42c6 14 3 32 -9 43v0zM9 166v-167h981v167h-981zM972 16h-946v133h32v-54h11v54h47v-54h12v54h46v-54h11v54h47v-54h12v54h46v-54h12v54h47v-54h11v54h47
v-54h12v54h46v-54h12v54h47v-54h11v54h46v-54h12v54h46v-54h12v54h46v-54h12v54h47v-54h11v54h47v-54h12v54h46v-54h12v54h47v-54h11v54h30v-133z" />
    <glyph glyph-name="chaussures-adequates" unicode="&#xe814;" 
d="M498 698c-199 0 -360 -161 -360 -360c0 -75 24 -148 68 -209c68 -95 177 -151 292 -151c199 0 360 161 360 360c0 198 -161 360 -360 360zM172 338c0 179 146 326 326 326c103 0 194 -48 254 -122l-514 -400c-1 2 -3 4 -5 6c-40 56 -61 121 -61 190zM498 11v0
c-90 0 -177 38 -239 104l513 399c33 -51 52 -112 52 -177c0 -179 -145 -326 -326 -326zM788 394c-22 39 -81 71 -152 87c-13 13 -28 24 -42 29c-46 16 -81 17 -92 16c-34 34 -89 87 -131 66c-24 -12 -39 -33 -39 -54c0 -19 10 -48 62 -76c12 -6 22 -13 31 -18
c1 -14 8 -54 71 -68c15 -16 34 -34 62 -54c40 -28 87 -43 130 -43c15 0 29 2 41 6c30 8 52 25 63 50c7 19 7 40 -4 59zM606 487c-2 0 -5 1 -7 1h-1s-42 3 -76 22c16 -1 39 -5 66 -15c6 -2 12 -5 18 -8zM346 538c0 18 16 33 30 41c5 2 9 3 15 3c33 0 75 -42 102 -68
c37 -35 99 -41 104 -42c11 -1 21 -3 32 -5c26 -27 49 -64 59 -83c-32 -1 -117 -3 -181 6c-1 0 -3 1 -5 1c-3 3 -6 6 -9 10c-17 18 -32 35 -58 53c0 0 -1 0 -1 1c-10 7 -21 14 -35 21c-34 19 -53 40 -53 62zM441 430c13 -11 23 -21 33 -31c-20 9 -29 21 -33 31zM776 341
c-9 -20 -27 -35 -52 -42c-48 -13 -109 2 -159 36c-19 14 -34 26 -46 38c39 -4 81 -6 116 -6c37 0 66 2 66 2c3 0 5 1 6 4c1 2 1 5 0 8c-1 2 -24 44 -53 80c56 -16 102 -43 119 -73c10 -16 10 -32 3 -47zM652 195h-1v0s-45 9 -75 18c-24 8 -88 29 -143 119
c-54 91 -123 113 -125 114v0c-2 0 -3 1 -4 0v0c-1 0 -1 0 -2 -1c-3 -2 -72 -44 -61 -107v-1v0c19 -69 13 -182 13 -183c0 -3 0 -5 2 -7c1 -1 3 -2 5 -2h1l26 3c2 0 4 1 6 3c1 1 2 4 1 6c-7 46 11 75 20 86c22 -17 42 -28 48 -32c4 -6 22 -34 36 -78c0 -2 9 -44 94 -44
c13 0 27 1 44 3c69 9 109 22 119 37c2 4 3 6 3 8c8 54 -3 57 -7 58zM419 324c52 -85 112 -112 152 -125c13 -5 28 -8 42 -11c-13 -4 -28 -7 -45 -10c-22 -3 -44 -3 -62 3c-27 11 -66 55 -97 98c-1 2 -3 4 -5 6c-7 12 -16 25 -24 38c-4 8 -8 15 -11 21c-13 28 -31 57 -44 77
c24 -14 62 -42 94 -97zM301 254c-10 -14 -29 -44 -24 -91h-9c1 21 2 77 -4 128c6 -8 14 -15 21 -23c5 -5 11 -10 16 -14zM642 140v-1c-1 -3 -14 -17 -109 -30c-110 -15 -121 29 -121 30c-16 53 -38 83 -40 85l-2 2c-1 0 -41 23 -73 55c-23 24 -39 56 -42 62
c-7 42 30 74 46 86c9 -17 30 -60 66 -112c8 -15 19 -32 32 -49c30 -47 59 -87 101 -101v0v0h1v0c19 -7 43 -7 68 -3c33 3 64 12 77 16c1 -9 -1 -25 -4 -40z" />
    <glyph glyph-name="cheveux" unicode="&#xe815;" 
d="M145 137c11 0 24 2 30 5c15 6 31 16 42 27c27 24 42 50 50 86c7 35 7 64 7 99c0 30 1 61 7 90c5 23 16 46 29 66c22 31 47 14 46 13c0 0 -19 -30 21 -49c0 0 -133 -153 53 -334c8 -8 15 -14 21 -18c0 -2 0 -3 -1 -4c0 0 -19 -91 -28 -119c-23 -70 216 -141 225 -113
c0 0 -18 158 43 152c35 -3 97 -6 109 -3c25 7 27 31 23 41c-7 13 -2 18 2 20c14 10 12 17 7 20c-3 1 -5 2 -7 3c2 0 5 1 9 3c5 4 6 8 6 11l-1 2c-15 19 -14 27 -12 30c0 0 1 1 2 1c32 15 34 26 32 31c0 0 0 1 -1 2c-46 54 -55 85 -58 91h3c2 1 5 3 9 4c2 2 5 4 8 6
c2 2 4 5 5 7c1 1 1 2 2 3v3v2h-2v-2s-1 0 -2 -1c0 -1 -1 -2 -2 -2c0 -1 -1 -2 -3 -2c0 -1 -2 -2 -3 -2s-2 0 -3 -1c-2 0 -3 -1 -5 -1h-7c2 10 8 18 12 23c3 6 5 12 6 17c10 4 18 8 25 14c5 3 5 13 6 22c3 119 -115 135 -115 135s-125 107 -289 18c0 0 -30 46 -55 25
c3 2 -40 28 -42 30c-27 12 -39 20 -68 22c-83 7 -126 -55 -134 -131c-8 -75 10 -145 21 -217c4 -27 13 -67 -1 -92c-6 -10 -13 -17 -23 -23c-7 -2 -5 -10 1 -10zM823 117c-3 0 -3 1 0 0v0z" />
    <glyph glyph-name="choix-outils" unicode="&#xe816;" 
d="M768 307l-1 1c-1 0 -2 0 -2 -1l-110 -109l-1 -1c0 -1 0 -2 1 -2l84 -84c12 -12 28 -18 44 -18s31 6 43 18l26 26c12 12 18 28 18 44s-6 32 -18 43zM710 348c0 1 0 1 -1 1l-22 23c-4 4 -11 7 -16 8c-6 1 -10 -1 -13 -4l-72 -72c-3 -3 -4 -7 -4 -13c1 -6 3 -12 8 -16
l23 -22c0 -1 0 -1 1 -1s1 0 1 1l93 93c2 1 2 1 2 2zM333 572c7 -10 12 -18 14 -19c11 -11 25 -15 39 -12h1c2 1 5 1 6 -1v0l199 -200h2h1l26 26l1 1c0 1 0 2 -1 2l-198 199v0v1h-1v0v1v0v1v0v1v0v0v0c3 15 -1 30 -12 42c-2 1 -9 7 -19 14c-15 10 -34 23 -51 33
c-10 7 -20 13 -25 16l-31 -31c5 -8 15 -24 27 -42c8 -11 16 -23 22 -32zM752 322c0 1 0 2 -1 2l-20 20h-1h-1l-110 -110c-1 0 -1 -1 -1 -1c0 -1 0 -2 1 -2l20 -20l1 -1c1 0 2 0 2 1l109 109c1 1 1 2 1 2zM593 28l-6 -6c-33 -32 -86 -32 -118 2l-208 214c-5 5 -8 12 -9 20
l-3 21c0 3 -2 6 -4 8l-82 74l104 101l72 -84c2 -3 5 -4 8 -5l21 -4c7 -1 14 -4 19 -9l208 -215c31 -32 31 -85 -2 -117zM192 362l66 -61c7 -5 10 -12 11 -20l3 -21c0 -3 2 -6 4 -8l208 -214c24 -25 64 -26 89 -2l6 6c25 25 26 64 2 89l-209 215c-2 2 -5 3 -7 3l-21 4
c-9 1 -15 5 -21 12l-58 67zM283 445l-104 -100c-5 -5 -13 -5 -18 0s-5 13 0 18l104 100c4 5 12 5 17 0c6 -5 6 -13 1 -18zM341 203l151 -157c20 -20 52 -20 71 -2l6 7c21 19 21 51 2 71l-152 157zM381 181c-7 7 -6 18 1 25s18 6 24 -1c7 -7 7 -18 0 -24c-7 -7 -18 -7 -25 0z
M492 92c-4 -4 -10 -4 -14 0s-4 10 0 14s10 4 14 0c5 -4 5 -11 0 -14zM472 143c-5 -4 -11 -4 -15 0s-4 11 0 15s10 4 15 0c4 -4 4 -11 0 -15zM556 89c-5 -5 -14 -5 -18 0c-5 5 -5 14 0 19s13 5 18 0c6 -5 6 -14 0 -19zM463 197c-4 -4 -10 -4 -14 0c-5 4 -5 11 0 15
c4 4 10 4 14 0s4 -11 0 -15z" />
    <glyph glyph-name="couper-avec-xacto" unicode="&#xe817;" 
d="M233 26l-96 49c-1 1 -2 1 -1 2l29 56s1 1 2 0l96 -48c0 -1 1 -2 0 -2l-28 -56c-1 -1 -2 -1 -2 -1v0zM365 342c-2 2 -5 2 -8 2s-6 0 -8 -2c-2 -1 -3 -3 -5 -6s-3 -6 -9 -21c-5 -16 -15 -43 -20 -57c-6 -14 -7 -14 -7 -14c-1 0 -1 2 4 18s17 46 22 63c6 17 7 20 8 24
c0 3 0 6 -1 9s-3 6 -6 8c-2 2 -6 3 -9 3c-4 0 -7 -2 -9 -4s-4 -5 -6 -7c-1 -3 -3 -7 -7 -23c-5 -15 -15 -43 -20 -56c-5 -14 -6 -15 -7 -15s-1 1 2 13c4 13 12 36 16 50c5 14 6 19 7 22c1 5 2 7 1 11c-1 3 -2 5 -4 7s-5 4 -7 5c-3 0 -6 0 -8 -1c-3 -1 -5 -3 -7 -5
s-3 -5 -5 -8c-1 -4 -3 -7 -8 -23c-6 -16 -15 -44 -20 -59c-6 -14 -6 -16 -7 -16s-1 2 3 14c3 12 11 35 15 50c4 14 5 18 6 23c0 4 -1 7 -3 9c-1 2 -4 4 -7 4c-2 1 -5 0 -8 -1s-5 -4 -8 -9c-3 -4 -5 -10 -8 -17s-6 -15 -10 -24c-3 -9 -7 -18 -11 -28c-4 -12 -9 -23 -13 -35
c-4 -11 -8 -22 -11 -30s-4 -15 -6 -21c-1 -6 -2 -13 -2 -20s1 -14 3 -20c2 -5 4 -9 6 -13l75 -38c5 0 10 0 15 1c9 2 18 5 26 10s16 11 23 17c8 6 16 13 23 19c8 7 14 12 21 18c8 7 15 14 21 19c5 6 7 10 8 13c2 4 2 7 0 10c-1 3 -3 6 -7 7c-3 1 -7 2 -12 1
c-5 -2 -11 -4 -19 -9s-18 -12 -24 -16s-8 -4 -9 -3s-1 3 0 8c2 6 5 15 10 28c4 13 10 30 16 46s11 31 15 42c4 10 5 16 5 20c0 1 -2 5 -5 7zM729 383l-245 226c-3 4 -9 4 -12 1l-332 -246c-2 -2 -4 -4 -5 -8c0 -2 1 -5 3 -7l248 -235c2 -2 4 -3 7 -3c2 0 4 1 6 2l330 256
c2 2 3 4 4 7c-1 3 -2 5 -4 7zM394 134l-233 221l316 234l230 -213zM873 501l-6 -122s-1 -2 -2 -2l-71 4s-2 0 -2 2l7 122c0 1 0 2 2 2l70 -3c1 -1 2 -2 2 -3v0zM783 390l5 107c-50 17 -91 50 -148 64l-34 -57c3 0 61 -16 44 -36c-22 -26 -73 -14 -104 -22
c-26 -6 -22 -31 9 -38c63 -14 159 -11 228 -18v0zM467 466c-28 14 41 103 54 122c6 9 14 13 25 16c-11 -19 -75 -122 -78 -132l-1 -6v0zM522 455l39 62l2 -2c2 -1 4 0 5 2l19 30c1 2 1 4 -2 5l-2 2l11 16c2 3 0 7 -2 9c-3 2 -7 1 -9 -2l-11 -17l-2 2c-1 1 -4 1 -5 -2
l-18 -30c-2 -1 -1 -4 1 -5l2 -1l-35 -57zM568 557l15 -9l-2 -4l-15 10zM563 549l15 -9l-2 -3l-15 9zM558 541l15 -9l-2 -3l-15 9zM554 533l14 -9l-2 -3l-15 9zM517 431c0 8 6 18 23 23c6 1 13 2 20 2l64 103c11 17 5 40 -12 51v0c-18 11 -40 5 -51 -12l-78 -123l7 -10
l21 -32l4 -6l4 -6l9 -14l2 3c-8 5 -13 12 -13 21zM548 525c-1 1 -2 4 -1 5l18 30c2 2 4 3 5 2l2 -2l11 17c2 3 6 4 9 2c2 -2 4 -6 2 -9l-11 -16l2 -2c2 -1 3 -3 2 -5l-19 -30c-1 -2 -3 -2 -5 -2l-2 2l-39 -62l-7 13l34 56zM393 243c-4 0 -8 2 -9 6c-2 5 0 11 5 13
c5 4 40 37 71 67c4 4 10 4 14 0s4 -10 0 -14c-69 -68 -75 -70 -77 -71c-1 -1 -3 -1 -4 -1z" />
    <glyph glyph-name="bloc-argile_n" unicode="&#xe818;" 
d="M744 466l-213 20c-9 1 -23 2 -37 2s-27 -1 -37 -2l-213 -20c-26 -2 -49 -27 -50 -53l-4 -128c1 -1 2 -3 3 -4l83 -27c2 0 6 -1 12 -1c11 0 21 3 24 4l56 28c13 7 35 25 44 37l19 27c16 20 38 32 62 32s47 -12 62 -32l19 -27c9 -12 31 -30 44 -37l56 -28c4 -1 13 -4 24 -4
c6 0 10 1 12 1l83 27c1 1 3 3 3 4l-4 128c0 26 -23 51 -48 53zM322 458l57 -19zM436 419l57 -18zM436 533l57 -18zM550 496l57 -20zM550 610l57 -19zM664 572l57 -19zM550 705l-228 -152l-228 -152l380 -115l228 153l229 152zM931 591v-285l-229 -152l-228 -153l-380 114
v286zM474 286v-285v285z" />
    <glyph glyph-name="ce-travai-compte_n" unicode="&#xe819;" 
d="M573 285l-173 -173l-33 -33c-4 -4 -10 -6 -16 -6s-12 2 -16 6l-33 33l-87 87c-4 4 -6 10 -6 16s2 12 6 16l33 33c4 4 10 7 16 7s12 -3 17 -7l70 -71l157 158c4 4 10 6 16 6s12 -2 17 -6l32 -33c5 -4 7 -10 7 -16s-3 -12 -7 -17zM941 592c0 -130 -105 -235 -235 -235
s-235 106 -235 235s106 235 235 235s235 -105 235 -235zM750 741c0 2 0 4 -3 5c-1 2 -4 3 -7 3h-67c-3 0 -6 -1 -8 -3c-2 -1 -3 -3 -3 -5l6 -190c0 -4 4 -8 10 -8h57c5 0 10 4 10 8zM746 504c0 5 -5 10 -10 10h-59c-5 0 -10 -5 -10 -10v-58c0 -6 5 -10 10 -10h59
c5 0 10 4 10 10v58zM645 -11c0 -32 -25 -57 -57 -57h-408c-31 0 -57 25 -57 57v536c0 32 26 57 57 57h240v10c0 18 1 35 4 51h-244c-65 0 -118 -53 -118 -118v-536c0 -65 53 -118 118 -118h408c65 0 118 53 118 118v316c-20 0 -41 3 -60 7v-323h-1z" />
    <glyph glyph-name="collaboration_n" unicode="&#xe81a;" 
d="M984 224l-45 338c0 5 -3 9 -7 12c-4 4 -9 5 -14 4l-129 -18c-7 -1 -12 -6 -15 -12c-1 1 -3 2 -4 2c-12 5 -296 117 -410 32l-147 -7l-128 19c-5 0 -10 -1 -14 -4s-7 -8 -7 -13l-45 -338c-1 -5 1 -10 4 -15c4 -4 9 -6 14 -6l130 -2c8 0 15 5 18 13l9 26l230 -155
c0 -1 1 -1 2 -2c17 -8 42 -16 66 -16c22 0 44 7 58 26c10 -3 20 -5 30 -5c3 0 7 0 10 1c20 2 37 13 50 30c4 5 5 12 3 17h3h7c27 2 49 16 66 40c2 3 3 6 4 9c12 1 24 5 33 14h1c11 8 29 32 43 51v0c0 -1 0 -1 1 -2l17 -50c3 -8 10 -13 18 -13v0l129 2c6 0 11 3 15 7
s5 9 4 15zM756 515c4 -2 8 -2 12 0c-3 -55 11 -143 22 -199l-5 -5c-5 -8 -11 -16 -17 -24c-12 25 -35 43 -55 58c-62 43 -211 136 -217 140c-4 3 -9 4 -14 3l-53 -11c-5 0 -9 -3 -12 -7c-32 -47 -58 -62 -69 -60c-9 2 -13 14 -14 19c-9 33 5 86 45 120c77 65 298 -2 377 -34
zM59 256l40 297l97 -14c7 -49 -14 -175 -30 -249l-13 -36zM650 189c-30 -2 -66 25 -77 35c0 1 -1 1 -1 2l-57 45c-9 7 -21 6 -27 -3s-5 -20 3 -27l56 -45c5 -4 31 -27 63 -39h-1c-6 -9 -14 -14 -24 -15c-26 -4 -59 18 -70 27l-57 46c-9 6 -21 5 -27 -3c-7 -8 -5 -20 3 -27
l57 -45c2 -2 10 -8 22 -15c-22 -13 -62 4 -69 7l-238 161c9 44 34 177 28 245l89 4c-28 -41 -35 -89 -26 -123c7 -26 23 -42 44 -46c22 -4 57 5 103 68l38 8c30 -19 155 -97 209 -136c19 -13 41 -31 47 -52c2 -7 -2 -13 -5 -17c-2 -2 -8 -7 -16 -5c-41 9 -90 41 -131 84
c-8 8 -20 8 -27 1c-8 -8 -8 -20 -1 -27c19 -21 68 -67 127 -88c-10 -12 -22 -19 -35 -20zM850 239l-13 35c-16 75 -37 200 -30 250l97 14l40 -298z" />
    <glyph glyph-name="communiquer_n" unicode="&#xe81b;" 
d="M562 69c-21 0 -31 -12 -65 -12s-45 12 -66 12c-54 0 -98 -44 -98 -98v-19c0 -19 16 -35 35 -35h257c19 0 35 16 35 35v19c0 54 -44 98 -98 98zM497 96c58 0 105 47 105 105s-47 105 -105 105s-105 -47 -105 -105s47 -105 105 -105zM254 69c-21 0 -31 -12 -65 -12
s-45 12 -66 12c-54 0 -98 -44 -98 -98v-19c0 -19 16 -35 35 -35h257c19 0 35 16 35 35v19c0 54 -44 98 -98 98zM189 96c58 0 105 47 105 105s-47 105 -105 105s-105 -47 -105 -105s47 -105 105 -105zM870 69c-21 0 -31 -12 -65 -12c-35 0 -45 12 -66 12
c-54 0 -98 -44 -98 -98v-19c0 -19 16 -35 35 -35h257c20 0 35 16 35 35v19c0 54 -44 98 -98 98zM805 96c58 0 105 47 105 105s-47 105 -105 105s-105 -47 -105 -105s47 -105 105 -105zM638 389l1 -1c22 -16 57 -34 101 -34c6 0 11 3 13 9s1 11 -3 15c0 0 -23 25 -35 55l-1 3
l2 1c25 27 38 58 38 92c0 83 -83 150 -186 150s-186 -67 -186 -150s83 -151 186 -151c23 0 46 3 68 10zM709 386l-10 3c-15 5 -30 12 -44 22l-13 9l-15 -5c-19 -6 -39 -9 -59 -9c-87 0 -158 55 -158 123s71 122 158 122s158 -55 158 -122c0 -33 -17 -58 -30 -72l-14 -15
l7 -18c3 -10 8 -20 14 -30zM403 544h-54l-84 -64v64h-39c-14 0 -26 11 -26 26v156c0 15 12 27 26 27h275c14 0 26 -12 26 -27v-63l27 2v61c0 30 -24 54 -53 54h-275c-29 0 -53 -24 -53 -54v-156c0 -30 24 -54 53 -54h12v-70c0 -6 5 -10 10 -10c2 0 4 1 6 2l104 78h41z" />
    <glyph glyph-name="consignes-audio_n" unicode="&#xe81c;" 
d="M524 175c-94 0 -170 76 -170 170s76 170 170 170s170 -76 170 -170s-77 -170 -170 -170zM580 274c0 4 -3 7 -7 7h-21v113c0 4 -3 8 -7 8h-71c-4 0 -7 -4 -7 -8v-35c0 -4 3 -7 7 -7h21v-71h-21c-4 0 -7 -3 -7 -7v-35c0 -4 3 -7 7 -7h99c4 0 7 3 7 7v35zM552 472
c0 4 -3 7 -7 7h-43c-4 0 -7 -3 -7 -7v-35c0 -4 3 -7 7 -7h43c4 0 7 3 7 7v35zM732 747c-12 0 -21 -11 -21 -23c0 -10 3 -15 14 -22c4 -3 7 -4 11 -6c5 -2 9 -4 13 -6c17 -10 33 -20 46 -31c92 -73 147 -189 147 -311s-55 -239 -147 -311c-13 -11 -29 -21 -46 -31
c-4 -3 -8 -5 -13 -7c-4 -1 -7 -3 -11 -5c-11 -7 -14 -13 -14 -22c0 -16 14 -28 30 -21c148 68 244 224 244 397s-96 329 -244 397c-3 1 -6 2 -9 2zM677 610c-11 0 -21 -10 -21 -23c0 -6 1 -15 14 -22l5 -3c13 -7 26 -14 38 -23c56 -44 90 -116 90 -191
c0 -76 -34 -147 -90 -191c-12 -10 -25 -17 -38 -24l-5 -3c-13 -7 -14 -16 -14 -22c0 -12 10 -23 22 -23c2 0 6 1 9 2c95 44 159 148 159 261s-64 217 -160 260c-2 1 -6 2 -9 2zM254 122c-10 0 -18 4 -25 11l-107 107h-83c-19 0 -34 16 -34 35v129c0 19 15 34 34 34h83
l107 108c7 7 15 10 25 10c19 0 34 -15 34 -34v-365c0 -19 -15 -35 -34 -35z" />
    <glyph glyph-name="consultable-sur-un-cellulaire_n" unicode="&#xe81d;" 
d="M682 356c-39 -64 -110 -107 -186 -107s-146 43 -185 107c-3 4 -4 9 -4 14s1 11 4 15c39 64 110 107 185 107s147 -43 186 -107c2 -4 4 -9 4 -15s-2 -10 -4 -14zM578 445c9 -14 13 -31 13 -47c0 -53 -42 -95 -95 -95s-95 42 -95 95c0 16 5 33 13 47
c-33 -17 -60 -43 -80 -75c36 -55 94 -94 162 -94s127 39 163 94c-20 32 -48 58 -81 75zM496 462c-35 0 -64 -29 -64 -64c0 -6 5 -11 10 -11s10 5 10 11c0 24 20 44 44 44c6 0 10 4 10 10s-4 10 -10 10zM785 -37c0 -53 -44 -96 -97 -96h-386c-52 0 -96 43 -96 96v772
c0 53 44 96 96 96h386c53 0 97 -43 97 -96v-772zM713 614c0 13 -12 25 -25 25h-386c-12 0 -24 -12 -24 -25v-530c0 -13 12 -24 24 -24h386c13 0 24 11 24 24v530h1zM556 735h-121c-7 0 -12 -5 -12 -12s5 -12 12 -12h121c7 0 12 5 12 12s-5 12 -12 12zM495 24
c-33 0 -60 -28 -60 -61s27 -60 60 -60c34 0 61 27 61 60s-27 61 -61 61z" />
    <glyph glyph-name="consultable-sur-une-tablette_n" unicode="&#xe81e;" 
d="M897 -22c0 -60 -49 -108 -109 -108h-565c-59 0 -108 48 -108 108v739c0 60 49 109 108 109h565c60 0 109 -49 109 -109v-739zM810 717c0 12 -10 22 -22 22h-565c-11 0 -21 -10 -21 -22v-652c0 -11 10 -21 21 -21h565c12 0 22 10 22 21v652zM506 0c-24 0 -44 -20 -44 -44
c0 -23 20 -43 44 -43s43 20 43 43c0 24 -19 44 -43 44zM749 367c-53 -88 -150 -147 -253 -147s-200 59 -253 147c-4 6 -6 12 -6 20s2 14 6 20c53 87 151 146 253 146s200 -59 253 -146c4 -6 6 -13 6 -20c0 -8 -2 -14 -6 -20zM608 489c12 -20 18 -42 18 -65
c0 -72 -58 -130 -130 -130s-129 58 -129 130c0 23 6 45 17 65c-45 -23 -82 -60 -110 -102c50 -77 129 -130 222 -130s173 53 222 130c-27 42 -65 79 -110 102zM496 512c-48 0 -88 -40 -88 -88c0 -8 7 -14 14 -14s14 6 14 14c0 33 27 60 60 60c8 0 14 6 14 14s-6 14 -14 14z
" />
    <glyph glyph-name="consultable-sur-un-ordi_n" unicode="&#xe81f;" 
d="M709 413c-42 -69 -118 -116 -199 -116s-157 47 -199 116c-3 4 -5 10 -5 15s2 11 5 16c42 69 118 115 199 115s157 -46 199 -115c3 -5 5 -10 5 -16s-2 -11 -5 -15zM598 509c9 -16 14 -34 14 -52c0 -56 -46 -101 -102 -101s-102 45 -102 101c0 18 5 36 14 52
c-36 -19 -65 -47 -87 -81c39 -60 102 -102 175 -102s136 42 175 102c-22 34 -52 62 -87 81zM510 527c-38 0 -69 -32 -69 -70c0 -5 5 -10 11 -10s11 5 11 10c0 26 21 48 47 48c6 0 11 5 11 11s-5 11 -11 11zM991 133v-49c0 -27 -37 -49 -81 -49h-818c-45 0 -82 22 -82 49v49
h82h818h81zM141 247v360c0 45 37 82 82 82h556c45 0 82 -37 82 -82v-360c0 -44 -37 -81 -82 -81h-556c-45 0 -82 36 -82 81zM207 247c0 -8 7 -16 16 -16h556c8 0 16 8 16 16v360c0 9 -8 16 -16 16h-556c-9 0 -16 -7 -16 -16v-360zM550 92c0 5 -4 8 -8 8h-82
c-5 0 -8 -3 -8 -8s3 -8 8 -8h82c4 0 8 4 8 8z" />
    <glyph glyph-name="consulte-la-carte_n" unicode="&#xe820;" 
d="M416 215l-140 56v441l200 -80v-234c7 8 14 16 22 23v211l189 75v-214c15 0 30 -2 44 -4v251c0 8 -3 15 -9 19c-7 4 -14 5 -21 2l-214 -86l-214 86c-5 2 -11 2 -17 0l-222 -89c-8 -3 -14 -11 -14 -20v-489c0 -8 4 -15 10 -19c4 -2 8 -4 13 -4c2 0 5 1 8 2l214 86l158 -64
c-4 17 -6 34 -7 51zM254 271l-189 -75v441l189 75v-441zM970 -5l-108 109c26 36 39 81 39 125c0 123 -99 222 -222 222s-221 -99 -221 -222s99 -222 221 -222c45 0 89 14 126 40l108 -108c8 -8 18 -12 29 -12c22 0 40 18 40 40c0 11 -4 21 -12 28zM679 72
c-86 0 -157 70 -157 157s71 158 157 158s158 -71 158 -158s-71 -157 -158 -157z" />
    <glyph glyph-name="consulte-le-diagramme_n" unicode="&#xe821;" 
d="M306 796c-80 -8 -157 -47 -211 -115l244 -197zM82 625c-108 -134 -87 -330 47 -438l196 242zM433 203c0 145 118 263 263 263c4 0 8 -1 12 -1c-8 81 -46 159 -114 214c-68 54 -151 76 -231 67l33 -311l-194 -241c70 -57 158 -78 242 -65c-7 23 -11 48 -11 74zM985 -30
l-107 108c25 36 38 80 38 125c0 122 -98 221 -220 221s-221 -99 -221 -221s99 -221 221 -221c44 0 88 13 125 39l107 -107c8 -8 18 -12 29 -12c22 0 40 18 40 40c0 10 -5 21 -12 28zM696 46c-87 0 -157 70 -157 157s70 156 157 156s156 -70 156 -156
c0 -87 -70 -157 -156 -157z" />
    <glyph glyph-name="consulte-le-document_n" unicode="&#xe822;" 
d="M484 512h-293c-7 0 -13 -6 -13 -13v-27c0 -7 6 -13 13 -13h293c8 0 13 6 13 13v27c0 7 -5 13 -13 13zM191 299c-7 0 -13 -6 -13 -13v-27c0 -7 6 -13 13 -13h169c3 18 8 36 15 53h-184zM361 139h-290v639h320v-173c0 -22 18 -40 40 -40h173v-83c14 2 27 3 42 3h11v120
c0 22 -13 53 -28 68l-130 130c-15 16 -46 28 -68 28h-373c-22 0 -40 -17 -40 -39v-666c0 -22 18 -40 40 -40h319c-7 17 -13 35 -16 53zM444 775c7 -3 14 -6 17 -9l130 -130c3 -3 7 -10 9 -17h-156v156zM178 366c0 -8 6 -14 13 -14h211c13 20 28 38 44 53h-255
c-7 0 -13 -5 -13 -13v-26zM965 -62l-118 119c28 40 43 89 43 138c0 135 -110 244 -244 244s-244 -110 -244 -244s109 -244 244 -244c49 0 98 15 138 43l119 -119c8 -8 19 -13 31 -13c24 0 44 20 44 44c0 12 -5 24 -13 32zM646 22c-96 0 -173 77 -173 173s77 173 173 173
s173 -78 173 -173s-78 -173 -173 -173z" />
    <glyph glyph-name="consulte-le-graphique_n" unicode="&#xe823;" 
d="M982 31l-110 109c26 37 40 82 40 127c0 124 -101 224 -224 224s-225 -100 -225 -224s101 -224 225 -224c45 0 89 13 127 39l109 -109c7 -7 18 -12 29 -12c22 0 40 19 40 41c0 11 -4 21 -11 29zM688 108c-88 0 -159 71 -159 159s71 159 159 159s159 -71 159 -159
c-1 -88 -72 -159 -159 -159zM476 452v115h-85v-257h19c8 54 32 103 66 142zM605 536v159h-86v-203c26 19 55 34 86 44zM406 267h-358v471h-43v-514h405c-2 14 -4 28 -4 43zM262 652h86v-342h-86v342zM134 481h85v-171h-85v171z" />
    <glyph glyph-name="consulte-le-tableau_n" unicode="&#xe824;" 
d="M428 217c0 5 1 10 1 15c-2 -1 -3 -1 -5 -1h-134c-7 0 -13 6 -13 13v81c0 7 6 13 13 13h134c8 0 14 -6 14 -13v-39c11 41 32 78 60 108c-4 2 -7 6 -7 11v81c0 7 6 13 14 13h134c7 0 13 -6 13 -13v-12c12 2 24 3 36 3c6 0 12 0 18 -1v224c0 37 -30 67 -67 67h-563
c-37 0 -67 -30 -67 -67v-456c0 -37 30 -67 67 -67h355c-2 13 -3 26 -3 40zM491 646c0 8 6 14 14 14h134c7 0 13 -6 13 -14v-80c0 -8 -6 -13 -13 -13h-134c-8 0 -14 5 -14 13v80zM277 646c0 8 6 14 13 14h134c8 0 14 -6 14 -14v-80c0 -8 -6 -13 -14 -13h-134
c-7 0 -13 5 -13 13v80zM277 486c0 7 6 13 13 13h134c8 0 14 -6 14 -13v-81c0 -7 -6 -13 -14 -13h-134c-7 0 -13 6 -13 13v81zM223 244c0 -7 -6 -13 -13 -13h-134c-8 0 -14 6 -14 13v81c0 7 6 13 14 13h134c7 0 13 -6 13 -13v-81zM223 405c0 -7 -6 -13 -13 -13h-134
c-8 0 -14 6 -14 13v81c0 7 6 13 14 13h134c7 0 13 -6 13 -13v-81zM223 566c0 -8 -6 -13 -13 -13h-134c-8 0 -14 5 -14 13v80c0 8 6 14 14 14h134c7 0 13 -6 13 -14v-80zM269 370c0 -7 5 -12 12 -12h189c11 17 25 33 40 48h-229c-7 0 -12 -6 -12 -12v-24zM975 -13l-107 106
c25 36 39 80 39 124c0 121 -98 218 -219 218s-218 -97 -218 -218s98 -219 218 -219c44 0 88 14 124 39l107 -106c7 -8 17 -12 27 -12c22 0 40 18 40 40c0 10 -4 20 -11 28zM688 62c-85 0 -155 69 -155 155s70 155 155 155s155 -70 155 -155s-69 -155 -155 -155z" />
    <glyph glyph-name="consulte-limage_n" unicode="&#xe825;" 
d="M96 295h330c14 82 65 151 135 190l-115 115l-181 -181l-56 57l-113 -113v-68zM422 250h-360c-6 0 -11 5 -11 11v429c0 6 5 12 11 12h565c6 0 11 -6 11 -12v-176c15 3 30 5 45 5v171c0 31 -25 57 -56 57h-565c-31 0 -56 -26 -56 -57v-429c0 -31 25 -56 56 -56h364
c-2 14 -4 29 -4 45zM973 24l-104 104c24 36 38 79 38 122c0 119 -97 215 -215 215s-215 -96 -215 -215s96 -215 215 -215c43 0 86 13 121 38l105 -105c7 -7 17 -11 28 -11c21 0 39 18 39 39c0 10 -5 20 -12 28zM692 98c-84 0 -153 68 -153 152s69 152 153 152
s152 -68 152 -152s-68 -152 -152 -152z" />
    <glyph glyph-name="creativite_n" unicode="&#xe826;" 
d="M895 599l-658 -658c-6 -6 -14 -9 -23 -9s-17 3 -23 9l-101 101c-6 7 -10 15 -10 24s4 16 10 23l658 658c6 6 14 9 23 9s17 -3 23 -9l101 -102c6 -6 9 -14 9 -23c0 -8 -3 -17 -9 -23zM263 704l-50 -15l-15 -50l-16 50l-50 15l50 15l16 51l15 -51zM492 606l-100 -31
l-31 -100l-30 100l-101 31l101 31l30 100l31 -100zM591 704l-50 -15l-16 -50l-15 50l-50 15l50 15l15 51l16 -51zM826 622l-55 55l-150 -150l55 -55zM918 377l-50 -16l-15 -50l-16 50l-50 16l50 15l16 50l15 -50z" />
    <glyph glyph-name="criteres-de-succes_n" unicode="&#xe827;" 
d="M842 301c0 -77 -94 -162 -220 -168c-16 -21 -31 -33 -39 -39c-21 -19 -27 -40 -27 -65s13 -52 52 -52s78 -26 78 -65v-26c0 -7 -6 -13 -13 -13h-337c-7 0 -13 6 -13 13v26c0 39 39 65 78 65s52 26 52 52s-6 46 -28 65c-7 6 -22 18 -38 39c-126 6 -220 91 -220 168v52
c0 21 18 39 39 39h117v38c0 36 29 65 65 65h233c36 0 65 -29 65 -65v-38h117c21 0 39 -18 39 -39v-52zM323 340h-104v-39c0 -40 54 -95 134 -112c-17 38 -30 87 -30 151zM790 340h-104c0 -64 -13 -113 -30 -151c80 17 134 72 134 112v39zM600 741l-46 -45l11 -63v-3
c0 -3 -1 -6 -5 -6c-2 0 -3 0 -5 1l-57 30l-56 -30c-2 -1 -4 -1 -5 -1c-4 0 -6 3 -6 6c0 1 0 2 1 3l10 63l-46 45c-1 1 -3 3 -3 6s4 5 7 5l64 10l28 57c1 3 3 5 6 5s5 -2 6 -5l29 -57l63 -10c3 0 7 -2 7 -5s-1 -5 -3 -6zM576 739l-54 8l-24 48l-24 -48l-53 -8l39 -37l-9 -54
l47 25l48 -25l-9 54zM352 632l-45 -45l10 -63v-3c0 -3 -1 -6 -5 -6c-1 0 -3 1 -5 1l-57 30l-56 -30c-2 0 -4 -1 -5 -1c-4 0 -6 3 -6 6c0 1 1 2 1 3l10 63l-45 45c-2 1 -4 3 -4 6c0 4 4 5 7 6l64 9l28 57c1 3 4 5 6 5s6 -2 7 -5l28 -57l64 -9c3 -1 7 -2 7 -6
c0 -3 -2 -5 -4 -6zM328 630l-54 8l-24 48l-23 -48l-54 -8l39 -37l-9 -54l47 26l48 -26l-9 54zM848 632l-46 -45l11 -63v-3c0 -3 -1 -6 -5 -6c-2 0 -4 1 -5 1l-57 30l-57 -30c-1 0 -3 -1 -5 -1c-3 0 -5 3 -5 6v3l11 63l-46 45c-1 1 -3 3 -3 6c0 4 4 5 7 6l64 9l28 57
c1 3 3 5 6 5s5 -2 6 -5l29 -57l63 -9c3 -1 7 -2 7 -6c0 -3 -1 -5 -3 -6zM823 630l-53 8l-24 48l-24 -48l-53 -8l39 -37l-10 -54l48 26l48 -26l-9 54z" />
    <glyph glyph-name="vivre-ensemble-et-citoyennete_n" unicode="&#xe82a;" 
d="M563 -110h-8c-57 5 -109 30 -160 54c-76 35 -147 68 -229 38c-4 -2 -7 -3 -11 -4c-32 -13 -48 -14 -72 27c-27 46 -23 87 -18 127c2 17 4 35 3 53c0 5 2 10 5 13c4 4 8 5 13 6c44 0 91 3 137 22c38 15 96 34 153 21c46 -11 67 -23 84 -34c23 -14 40 -24 139 -20
c9 0 19 1 28 3c18 2 34 4 46 1c22 -5 37 -15 45 -28c7 -11 9 -25 6 -38c-3 -9 -7 -18 -13 -26c17 10 34 21 50 31c21 14 42 28 59 37c8 4 16 7 22 9l5 2c4 1 8 3 13 4c8 3 20 6 33 4c8 -1 15 -3 21 -8c9 -6 14 -15 16 -26c2 -19 -8 -42 -31 -70c-12 -16 -29 -35 -47 -48
l-11 -7c-95 -67 -211 -143 -278 -143zM232 30c63 0 121 -27 178 -54c51 -23 98 -45 149 -50c40 -4 128 42 262 136l10 8c15 10 29 27 40 40c24 30 23 42 23 44l-1 1s-1 1 -4 2c-4 0 -11 -1 -19 -3c-4 -2 -8 -3 -11 -4l-6 -2c-4 -1 -10 -4 -16 -7c-16 -8 -36 -21 -57 -35
c-24 -15 -52 -33 -79 -48l-8 -4c-25 -14 -54 -30 -85 -33c-29 -3 -57 5 -84 13c-10 2 -20 5 -29 7c-2 0 -6 2 -12 3c-10 3 -37 10 -46 11c-5 -1 -11 0 -15 4c-8 6 -9 18 -3 25c18 21 42 18 59 16c13 -2 24 -4 36 -6c20 -3 38 -6 57 -7c25 -1 57 0 84 16c10 6 18 13 24 20
c5 6 9 11 10 16c1 6 0 9 -1 10c-2 3 -7 9 -23 13c-6 1 -21 -1 -34 -2c-10 -2 -21 -3 -30 -3c-105 -4 -129 7 -160 25c-15 10 -32 20 -73 30c-47 11 -95 -5 -132 -20c-45 -18 -90 -23 -132 -24c-1 -14 -2 -27 -3 -40c-4 -37 -8 -69 13 -105c8 -15 12 -17 13 -18c1 0 9 3 15 6
c3 1 7 3 12 4c27 11 53 15 78 15zM545 801v-517v517zM803 543h-517h517zM766 673h-443h443zM766 408h-443h443z" />
    <glyph glyph-name="utilise-suite-bureautique-en-ligne_n" unicode="&#xe82b;" 
d="M978 126v-48c0 -27 -36 -48 -80 -48h-802c-44 0 -80 21 -80 48v48h80h802h80zM144 238v352c0 45 36 81 81 81h544c45 0 81 -36 81 -81v-352c0 -44 -36 -80 -81 -80h-544c-45 0 -81 36 -81 80zM209 238c0 -9 7 -16 16 -16h544c9 0 16 7 16 16v352c0 9 -7 17 -16 17h-544
c-9 0 -16 -8 -16 -17v-352zM545 86c0 4 -3 8 -8 8h-80c-5 0 -8 -4 -8 -8s3 -8 8 -8h80c5 0 8 3 8 8zM618 300h-228c-52 0 -94 35 -94 79c0 31 22 58 54 70c-1 3 -1 5 -1 8c0 49 48 89 108 89c45 0 83 -23 99 -56c9 7 21 11 35 11c29 0 54 -20 54 -44c0 -9 -4 -18 -9 -24
c36 -7 62 -34 62 -66c0 -37 -36 -67 -80 -67z" />
    <glyph glyph-name="univers_n" unicode="&#xe82c;" 
d="M499 490h-381l381 228l380 -228h-380zM181 81c-18 0 -33 15 -33 33v317c0 18 15 33 33 33s33 -15 33 -33v-317c0 -18 -15 -33 -33 -33zM287 81c-19 0 -34 15 -34 33v317c0 18 15 33 34 33c18 0 33 -15 33 -33v-317c0 -18 -15 -33 -33 -33zM392 81c-18 0 -33 15 -33 33
v317c0 18 15 33 33 33s33 -15 33 -33v-317c0 -18 -15 -33 -33 -33zM498 81c-19 0 -34 15 -34 33v317c0 18 15 33 34 33c18 0 33 -15 33 -33v-317c0 -18 -15 -33 -33 -33zM603 81c-18 0 -33 15 -33 33v317c0 18 15 33 33 33s33 -15 33 -33v-317c0 -18 -15 -33 -33 -33z
M709 81c-19 0 -34 15 -34 33v317c0 18 15 33 34 33c18 0 33 -15 33 -33v-317c0 -18 -15 -33 -33 -33zM814 81c-18 0 -33 15 -33 33v317c0 18 15 33 33 33s33 -15 33 -33v-317c0 -18 -15 -33 -33 -33zM65 122h867v-55h-867v55zM18 33h961v-51h-961v51z" />
    <glyph glyph-name="televerse-la-piece_n" unicode="&#xe82d;" 
d="M992 53c0 -23 -19 -42 -42 -42h-638c-23 0 -41 19 -41 42v138c0 23 18 42 41 42h186c11 -32 42 -55 78 -55h111c36 0 67 23 78 55h186c23 0 41 -19 41 -42v-138zM826 455h-111v-194c0 -15 -13 -28 -28 -28h-111c-15 0 -28 13 -28 28v194h-111c-11 0 -21 7 -25 17
c-5 10 -2 22 6 30l194 194c5 6 13 9 20 9s14 -3 19 -9l194 -194c8 -8 11 -20 6 -30c-4 -10 -14 -17 -25 -17zM798 122c-15 0 -28 -13 -28 -28s13 -27 28 -27s28 12 28 27s-13 28 -28 28zM909 122c-15 0 -28 -13 -28 -28s13 -27 28 -27s28 12 28 27s-13 28 -28 28zM346 414
c0 -31 -46 -42 -70 -42s-71 11 -71 42s47 42 71 42c14 0 29 -2 42 -8v118l-169 -52v-157c0 -31 -47 -42 -71 -42s-71 11 -71 42s47 43 71 43c14 0 29 -3 42 -9v214c0 9 6 17 15 20l184 57h6c12 0 21 -9 21 -21v-247z" />
    <glyph glyph-name="telecharge-la-piece-suivante_n" unicode="&#xe82e;" 
d="M972 -32c0 -30 -24 -55 -55 -55h-841c-30 0 -55 25 -55 55v183c0 30 25 55 55 55h266l77 -78c21 -20 48 -32 78 -32s56 12 77 32l78 78h265c31 0 55 -25 55 -55v-183zM778 436l-256 -256c-7 -7 -16 -11 -25 -11s-19 4 -26 11l-256 256c-11 11 -14 27 -8 40
c5 13 19 23 34 23h146v256c0 20 16 36 36 36h147c20 0 36 -16 36 -36v-256h147c15 0 28 -10 33 -23c6 -13 3 -29 -8 -40zM716 60c-20 0 -37 -17 -37 -37s17 -37 37 -37s37 17 37 37s-17 37 -37 37zM862 60c-20 0 -36 -17 -36 -37s16 -37 36 -37s37 17 37 37s-17 37 -37 37z
" />
    <glyph glyph-name="techniques_n" unicode="&#xe82f;" 
d="M47 327c0 -256 149 -439 347 -439s360 207 360 463s-162 463 -360 463c-114 0 109 -228 -38 -295c-75 -33 -97 64 -166 63c-100 -2 -143 -195 -143 -255zM646 560c0 -42 -34 -76 -76 -76s-76 34 -76 76s34 76 76 76s76 -34 76 -76zM566 285c-39 18 -55 63 -38 101
s63 55 101 38s55 -63 38 -101s-63 -55 -101 -38zM491 215c32 27 80 24 107 -8s24 -80 -8 -108s-80 -23 -107 9c-28 32 -24 80 8 107zM348 111c41 12 83 -12 94 -52c12 -41 -12 -83 -52 -94c-41 -12 -83 12 -94 52s12 83 52 94zM155 376c27 59 88 81 136 51
c47 -31 63 -110 37 -169s-89 -78 -136 -48c-48 31 -63 107 -37 166zM815 399c1 3 3 5 6 5h82c4 0 7 -1 11 -1c3 0 5 -2 6 -5v-12c0 -2 -1 -4 -2 -5c-1 0 -2 -1 -4 -1c-27 0 -54 1 -82 1h-12c-2 0 -5 2 -5 5v13zM816 419c0 -3 1 -4 2 -5s2 -1 3 -1h12l81 -1c3 0 5 3 5 6v12
c0 3 -2 6 -5 6h-12h-80c-3 0 -5 -2 -5 -5c-1 -4 -1 -8 -1 -12zM823 445h11h2c22 0 44 0 67 -1h10s6 3 6 6l-1 1c0 19 -2 38 -4 56c-2 24 -5 50 -15 73c-5 13 -14 27 -29 28h-1h-1c-7 0 -14 -4 -19 -9c-13 -15 -17 -36 -21 -55c-6 -29 -9 -60 -11 -90v-3c0 -3 3 -6 6 -6z
M914 371h-12c-27 1 -55 1 -82 1c-3 0 -5 -2 -6 -5v-40c-1 -76 1 -152 6 -228c3 -37 6 -73 10 -109c3 -27 6 -55 13 -82c2 -8 4 -17 7 -24c2 -5 6 -11 11 -12c13 -4 19 19 21 28c8 25 11 51 15 76c5 35 8 70 11 105c7 74 11 148 12 222v63c0 3 -3 5 -6 5zM813 830
c-5 0 -8 -7 -3 -10c17 -9 19 -33 17 -50c-1 -10 -5 -20 -8 -30c-4 -12 -8 -24 -11 -36c-4 -20 -4 -42 7 -60c18 -30 58 -37 87 -20c20 12 34 33 39 55c17 77 -51 152 -128 151z" />
    <glyph glyph-name="sante-et-bien-etre_n" unicode="&#xe830;" 
d="M250 210l124 115l206 -192l104 97h186c10 62 4 144 -61 229s-190 72 -262 56c0 18 -1 37 -5 55c14 7 24 35 32 35s26 -12 36 -15c17 -5 36 -8 55 -8c29 0 59 7 85 19c53 25 92 62 104 118c3 11 4 23 4 34c0 16 -7 68 -29 68c-16 0 -21 -8 -32 -17
c-27 -24 -111 -10 -150 -22c-55 -17 -104 -58 -104 -115c0 -6 0 -13 1 -19c1 -3 6 -13 6 -15c0 -5 -10 -11 -19 -19c-17 49 -43 96 -72 142c-24 39 -89 4 -65 -35c41 -66 84 -135 78 -212c-66 18 -212 45 -284 -50s-71 -184 -57 -249h119zM590 657c45 46 89 72 157 72
c7 0 12 -5 12 -11s-5 -12 -12 -12c-47 0 -77 -11 -112 -41c-10 -8 -18 -17 -28 -24c-2 -3 -5 -4 -8 -4c-7 0 -13 5 -13 12c0 3 2 5 4 8zM697 197l-117 -109l-206 192l-111 -103h-123c2 -7 4 -14 7 -20c22 -62 91 -259 250 -280c0 0 47 -16 102 30c54 -46 101 -30 101 -30
c159 21 228 218 250 280c5 11 9 25 13 40h-166z" />
    <glyph glyph-name="robotique_n" unicode="&#xe831;" 
d="M739 -118v111c0 17 -13 31 -30 31h-563c-17 0 -30 -14 -30 -31v-111h623zM370 485c-37 -54 -99 -89 -169 -89c-13 0 -26 1 -38 4l96 -343h317zM201 763c-89 0 -161 -72 -161 -161s72 -160 161 -160s160 72 160 160s-72 161 -160 161zM201 557c-25 0 -45 20 -45 45
s20 45 45 45s45 -20 45 -45s-20 -45 -45 -45zM754 483l-63 66v36v68v37l63 66l143 -40l12 20l-170 80l-85 -86h-84l-22 -34h-187c16 -28 25 -60 25 -94c0 -21 -4 -41 -10 -59h172s0 -35 22 -35h84l85 -86l170 80l-12 20zM921 541h-95c-16 0 -30 14 -30 31v94
c0 17 14 31 30 31h95c17 0 30 -14 30 -31v-94c0 -17 -13 -31 -30 -31z" />
    <glyph glyph-name="resoudre-un-probleme_n" unicode="&#xe832;" 
d="M551 250c0 81 72 146 161 146s161 -65 161 -146s-72 -146 -161 -146s-161 65 -161 146zM473 443c-19 -21 -44 -50 -46 -80c8 -5 13 -14 13 -23c0 -6 -3 -13 -7 -17c4 -5 7 -11 7 -18c0 -9 -5 -17 -13 -22c3 -4 4 -9 4 -13c0 -18 -14 -27 -30 -27c-7 -16 -23 -27 -41 -27
s-33 11 -41 27c-16 0 -30 9 -30 27c0 4 2 9 4 13c-8 5 -13 13 -13 22c0 7 3 13 7 18c-4 4 -7 11 -7 17c0 10 5 18 13 23c-2 30 -27 59 -46 80s-29 46 -29 75c0 75 72 124 142 124s142 -49 142 -124c0 -29 -10 -54 -29 -75zM360 606c-50 0 -106 -33 -106 -88
c0 -18 7 -37 19 -50c5 -6 11 -12 16 -18c20 -24 37 -52 40 -83h63c2 31 19 59 39 83c5 6 11 12 17 18c11 13 18 32 18 50c1 55 -56 88 -106 88zM413 509c-4 0 -9 4 -9 9c0 19 -29 26 -44 26c-5 0 -9 4 -9 9s4 9 9 9c26 0 62 -14 62 -44c0 -5 -4 -9 -9 -9zM545 162
c-53 -37 -116 -58 -185 -58c-179 0 -325 146 -325 325s146 325 325 325s325 -145 325 -325c8 1 15 2 22 2c-1 191 -156 345 -347 345s-347 -156 -347 -347s156 -347 347 -347c73 0 140 22 196 60c-4 6 -8 13 -11 20zM982 -77c-10 82 -80 145 -164 145h-206
c-84 0 -153 -63 -164 -145h534z" />
    <glyph glyph-name="recommencer-avec-nouveaux-exercices_n" unicode="&#xe833;" 
d="M312 34c-50 0 -98 22 -131 61c-2 3 -2 7 1 10l30 31c2 1 4 2 6 2c2 -1 4 -2 5 -3c21 -28 54 -44 89 -44c63 0 114 51 114 113s-51 114 -114 114c-29 0 -56 -11 -77 -30l31 -31c4 -4 5 -10 3 -15c-3 -6 -8 -9 -13 -9h-100c-8 0 -14 6 -14 14v100c0 5 3 10 9 13
c5 2 11 1 15 -3l29 -29c31 29 74 47 117 47c94 0 171 -77 171 -171s-77 -170 -171 -170zM656 58v-43c0 -31 -25 -55 -55 -55h-476c-30 0 -54 24 -54 55v655c0 30 24 55 54 55h240v-253c0 -14 11 -28 28 -28h226h38h54v43l-294 293l-292 1c-61 0 -111 -50 -111 -111v-655
c0 -61 50 -111 111 -111h475c62 0 111 50 111 111v43h-55zM420 696l199 -199h-199v199zM984 703c-6 24 -22 45 -44 57c-22 13 -47 16 -72 10c-24 -7 -44 -22 -57 -44l-260 -450c-2 -4 -3 -8 -4 -11l-18 -164c-1 -12 4 -23 14 -28c5 -3 9 -4 15 -4s12 2 16 5l133 98
c3 3 6 6 8 9l260 450c12 22 16 48 9 72zM638 192l-45 -33l6 56zM880 582l-200 -348l-65 38l200 347zM925 660l-16 -29l-65 38l16 28c5 9 14 15 23 18c10 2 20 1 29 -4s15 -13 17 -23c3 -9 1 -20 -4 -28z" />
    <glyph glyph-name="realite-virtuelle_n" unicode="&#xe834;" 
d="M546 482c12 -19 14 -40 6 -59l-1 -1l203 -91c2 5 3 10 5 15c30 127 -48 256 -175 287c-62 15 -125 4 -176 -26c61 -36 110 -80 138 -125zM262 699l-22 29c-15 -11 -29 -24 -43 -37l25 -26c13 12 26 24 40 34zM204 647l-26 24c-13 -14 -25 -29 -36 -44l30 -20
c10 14 21 27 32 40zM158 585l-31 19c-10 -17 -18 -33 -26 -50l33 -15c7 16 15 31 24 46zM124 515l-33 12c-7 -17 -12 -35 -16 -54l35 -8c4 17 9 34 14 50zM477 777l-2 35c-19 0 -38 -3 -56 -6l7 -36c17 4 34 6 51 7zM400 765l-8 35c-18 -5 -37 -11 -54 -18l13 -33
c16 6 33 12 49 16zM328 739l-16 32c-17 -8 -33 -17 -49 -27l20 -30c14 9 29 17 45 25zM105 440l-35 6c-3 -19 -5 -38 -5 -56l36 -1c0 17 2 34 4 51zM176 146l-29 -21c10 -15 22 -29 35 -43l27 25c-12 12 -23 25 -33 39zM227 88l-25 -26c14 -13 29 -25 44 -36l21 30
c-14 10 -28 21 -40 32zM137 213l-33 -15c8 -17 17 -33 27 -49l30 19c-9 14 -17 30 -24 45zM112 286l-35 -8c4 -18 9 -36 16 -54l34 13c-6 16 -12 33 -15 49zM101 363l-36 -2c1 -18 3 -37 6 -56l35 7c-3 16 -4 34 -5 51zM896 406l36 3c-2 18 -4 37 -8 55l-35 -7
c3 -16 6 -34 7 -51zM815 621l29 21c-12 15 -24 30 -37 43l-26 -26c12 -12 24 -25 34 -38zM856 555l32 16c-8 17 -18 33 -28 48l-30 -20c10 -14 18 -29 26 -44zM883 483l35 9c-5 18 -11 36 -18 53l-33 -14c6 -15 12 -32 16 -48zM897 379c0 -17 -1 -34 -3 -50l35 -5
c3 18 4 37 4 55v2h-36v-2zM845 183l31 -18c10 16 18 33 25 51l-33 13c-7 -16 -14 -31 -23 -46zM925 297l-36 6c-3 -16 -7 -33 -13 -49l35 -12c6 18 10 36 14 55zM786 704c-14 13 -29 24 -44 35l-20 -30c14 -10 27 -20 40 -32zM559 809c-18 2 -37 4 -56 4v-36
c17 0 34 -1 51 -4zM641 789c-17 6 -36 11 -54 15l-7 -35c16 -4 33 -8 49 -14zM718 754c-16 9 -33 18 -50 25l-14 -33c15 -7 31 -15 46 -23zM743 43l189 59l-146 134zM219 343c81 -36 163 -51 225 -41c10 2 17 7 20 15l1 1l-18 7c-9 5 -13 15 -9 24l39 87c2 4 5 7 10 9
s9 2 14 0l17 -8l1 1c3 7 2 16 -3 24c-34 54 -99 105 -180 141c-9 4 -19 8 -29 12c-5 2 -10 3 -14 3c-12 0 -22 -5 -26 -15l-94 -209c-6 -13 2 -29 18 -37c9 -5 19 -10 28 -14zM478 351l24 54l238 -107l-24 -54zM270 167c3 -1 15 -4 18 -4c7 -2 15 -4 22 -8
c12 -8 22 -72 26 -134v-4c0 -48 -31 -78 -53 -140h479c-42 64 -104 136 -159 184c-11 40 -12 81 8 118c26 10 49 24 70 42l-183 82l-1 -1c-8 -19 -26 -32 -47 -35c-15 -3 -31 -4 -47 -4c-54 0 -117 13 -178 38l-7 -83c-1 -12 2 -23 11 -31c12 -12 27 -17 41 -20z" />
    <glyph glyph-name="realite-augmentee_n" unicode="&#xe835;" 
d="M721 52h-429v135l-46 3v-195c0 -49 41 -89 90 -89h341c49 0 90 40 90 89v204c-15 -2 -30 -4 -46 -5v-142zM893 394l11 40l-113 -39l82 -81l9 34c38 -12 49 -22 52 -26c-12 -17 -109 -55 -339 -69l2 -47c106 6 198 18 265 35c82 21 120 47 120 81c0 38 -47 59 -89 72z
M349 313l-2 -53c-183 18 -278 55 -286 67c6 9 41 30 146 48l-8 47c-167 -29 -186 -68 -186 -95c0 -53 135 -95 330 -114l-2 -53l118 69zM677 798h-341c-49 0 -90 -40 -90 -89v-409c3 -1 46 -8 46 -8v360h429v-368c17 1 32 3 46 5v420c0 49 -41 89 -90 89zM555 714h-97
c-2 0 -4 2 -4 4s2 4 4 4h97c2 0 4 -2 4 -4s-2 -4 -4 -4z" />
    <glyph glyph-name="programmation_n" unicode="&#xe836;" 
d="M502 826c-264 0 -479 -214 -479 -479s214 -478 479 -478s478 214 478 478s-214 479 -478 479zM368 199c5 -5 5 -12 0 -17l-19 -20c-5 -5 -13 -5 -18 0l-181 181c-5 5 -5 13 0 18l181 181c5 5 13 5 18 0l19 -20c5 -5 5 -13 0 -18l-152 -152zM598 596l-145 -501
c-2 -7 -9 -11 -15 -9l-24 7c-7 2 -11 9 -9 15l145 501c2 7 9 11 15 9l24 -7c7 -2 11 -9 9 -15zM672 162c-5 -5 -13 -5 -18 0l-19 20c-5 5 -5 12 0 17l152 153l-152 152c-5 5 -5 13 0 18l19 20c5 5 13 5 18 0l181 -181c5 -5 5 -13 0 -18z" />
    <glyph glyph-name="prends-des-notes_n" unicode="&#xe837;" 
d="M880 827c-20 12 -43 15 -65 9s-41 -21 -52 -40l-237 -410c-2 -3 -3 -7 -3 -10l-17 -149c-1 -11 4 -21 13 -26c4 -2 8 -3 13 -3s11 1 15 5l121 89c3 2 5 5 7 8l237 409c23 42 9 94 -32 118zM605 310l-41 -30l6 50zM826 664l-183 -316l-59 34l183 317zM867 735l-15 -25
l-59 34l15 26c4 7 11 13 20 15c9 3 18 2 26 -3c8 -4 14 -12 16 -21s1 -18 -3 -26zM74 417h158c8 0 14 -6 14 -13v-27c0 -8 -6 -14 -14 -14h-158c-7 0 -13 6 -13 14v27c0 7 6 13 13 13zM246 295v-27c0 -8 -6 -14 -14 -14h-158c-7 0 -13 6 -13 14v27c0 8 6 14 13 14h158
c8 0 14 -6 14 -14zM246 186v-27c0 -8 -6 -14 -14 -14h-158c-7 0 -13 6 -13 14v27c0 8 6 14 13 14h158c8 0 14 -6 14 -14zM791 433v-435c0 -36 -29 -66 -66 -66h-472c-37 0 -66 30 -66 66v621c0 36 29 66 66 66h407l40 71h-447c-76 0 -137 -62 -137 -137v-621
c0 -75 61 -137 137 -137h472c76 0 137 62 137 137v557zM375 64c23 25 73 15 103 12c27 -3 54 -2 81 -2c33 1 66 -5 99 -5c16 1 32 3 48 5c13 3 30 9 43 7c21 -5 30 26 9 31c-32 7 -68 -10 -100 -10c-39 -1 -76 6 -115 5c-57 -2 -148 27 -191 -20c-15 -16 8 -39 23 -23z
M344 175c68 0 135 2 203 -2c37 -3 72 -10 109 -6c17 2 33 5 49 8c12 3 29 11 41 8c21 -4 30 28 9 32c-28 5 -57 -9 -84 -13c-39 -7 -77 0 -116 3c-71 4 -140 2 -211 2c-20 0 -20 -32 0 -32z" />
    <glyph glyph-name="pinceaux_n" unicode="&#xe838;" 
d="M376 168c-10 6 -22 1 -28 -10c0 0 -21 -38 -79 -41c-12 -1 -20 -11 -20 -23c1 -5 3 -9 7 -13s9 -6 16 -6c84 6 113 63 115 65c4 10 0 23 -11 28zM869 699c-29 30 -82 26 -118 -7l-314 -281l-1 -1l-15 -15l114 -113l-26 -26l-113 113l-30 -29l113 -114l-25 -25l-112 112
l-2 1c-24 6 -49 8 -71 3c-31 -7 -55 -27 -65 -56c-52 -141 -119 -208 -119 -209l-29 -28l39 -7c10 -2 240 -48 327 39c27 27 41 61 43 97c2 1 3 2 4 3l104 104l6 6l282 315c33 36 36 90 8 118zM392 85c-50 -49 -177 -43 -252 -33c26 34 68 98 103 195c6 15 17 25 36 28
c12 3 27 3 41 0l103 -103c3 -31 -8 -63 -31 -87zM831 610l-267 -297l-82 81l297 267c20 18 47 21 61 8c11 -12 8 -40 -9 -59z" />
    <glyph glyph-name="pastels_n" unicode="&#xe839;" 
d="M896 647l-113 112c-11 11 -25 16 -39 16s-29 -6 -40 -16l-76 -76l191 -192l77 77c21 22 21 57 0 79zM862 602l-43 -42l-122 122l43 42c1 2 3 2 4 2s4 0 5 -2l113 -112c1 -2 2 -4 2 -5s-1 -3 -2 -5zM397 140l-43 43l358 357l-35 35l-358 -358l-43 43l358 357l-35 35
l-385 -386c-2 -2 -4 -5 -5 -8l-112 -261c-4 -9 -2 -19 5 -26c5 -5 11 -8 17 -8c3 0 6 1 10 2l259 99c3 1 6 3 8 5l393 394l-35 34zM246 222l115 -116l-142 -54l-31 32z" />
    <glyph glyph-name="orientation-et-entrepreneuriat_n" unicode="&#xe83a;" 
d="M450 296l55 -70l52 66l66 -21v-166s4 -28 -19 -57v-71s3 -61 -48 -61h-106s-45 10 -45 51v73s-25 18 -25 66v165zM668 57v155l139 110l-29 36c-4 5 -6 12 -5 18c0 6 3 12 9 16c5 4 11 6 17 5l154 -18c7 0 13 -4 17 -9s5 -11 5 -17l-18 -154c-1 -7 -4 -13 -9 -17
s-11 -6 -18 -5c-6 1 -12 4 -16 9l-29 37l-197 -156c-1 -1 -2 -2 -4 -2zM691 201v-103l197 157l44 -55h2l18 155v2h-1l-154 18c-2 -1 -2 -2 -2 -3l43 -54zM321 57l-16 8c-2 0 -3 1 -5 2l-196 156l-29 -37c-4 -5 -10 -8 -16 -9c-7 0 -13 1 -18 5s-8 10 -9 17l-18 154
c0 6 1 12 5 17s10 9 17 9l154 18c6 1 12 -1 17 -5c6 -4 9 -10 9 -16s-1 -13 -5 -18l-29 -36l139 -110v-155zM100 255l198 -157v103l-147 117l43 54c0 1 0 2 -1 3l-156 -18v-2l17 -154l2 -1zM444 519l-2 18v79h-47c-13 0 -24 11 -24 24c0 7 2 13 7 17l110 110c9 9 25 9 34 0
l110 -110c4 -4 7 -10 7 -17c0 -13 -11 -24 -25 -24h-46l-1 -81l-2 -15l-13 6c-30 13 -65 13 -94 0zM496 759l8 -8l-110 -109c-1 -3 0 -3 1 -3h69v-87c26 8 55 8 81 0v87h70s1 0 1 1l-110 111z" />
    <glyph glyph-name="notions-cles_n" unicode="&#xe83b;" 
d="M807 311l-28 1c-2 -1 -6 9 -7 12c-39 88 -229 63 -235 63c-24 -2 -62 -3 -62 -3h-131c-30 -4 -43 -22 -44 -40c0 -8 1 -15 3 -22c10 -24 33 -27 62 -27h1l129 2c33 0 34 -35 11 -43c-19 -7 -216 -56 -325 2l-120 77c-15 8 -34 3 -44 -11c-1 -1 -2 -3 -3 -4
c-10 -20 6 -39 17 -49l81 -72s112 -86 192 -104l171 -33c6 -1 15 -1 19 -1c5 0 13 0 20 1l82 16v0v0l166 34h45v201zM981 84v253c0 4 -2 8 -6 11c-3 3 -8 5 -14 5h-116h-2c-10 -1 -18 -8 -18 -16l1 -253c0 -3 2 -7 5 -10c4 -3 9 -5 14 -5h116h3c9 1 17 7 17 15zM900 93
c-12 2 -19 14 -16 26s14 19 25 16s19 -14 17 -26c-3 -11 -14 -19 -26 -16zM615 565h-293l-1 1c-5 21 -15 41 -30 54c-15 15 -35 23 -55 23c-49 0 -89 -46 -89 -103s40 -103 89 -103c19 0 38 7 53 21c15 13 25 31 31 50v2h188v-57c0 -12 4 -16 16 -16h13s3 0 6 2c2 2 2 5 2 6
v8c0 9 7 16 16 17v0c9 -1 16 -8 16 -17v-8c0 -1 0 -4 2 -6s5 -2 5 -2h12c12 0 16 4 16 16v57h2c16 0 28 12 28 27s-12 28 -27 28zM236 481c-24 0 -44 27 -44 59s20 59 44 59c23 0 44 -27 44 -59s-21 -59 -44 -59z" />
    <glyph glyph-name="narration-dun-texte_n" unicode="&#xe83c;" 
d="M624 359c0 73 66 132 148 132s148 -59 148 -132s-66 -132 -148 -132s-148 59 -148 132zM5 526v-230c0 -51 41 -92 92 -92h335c46 0 84 34 90 78l85 60c6 5 10 13 10 21s-4 15 -10 20l-84 60v70v-3v16c0 50 -40 91 -90 91h-337c-50 0 -91 -41 -91 -91zM55 526
c0 23 19 42 42 42h294h41c23 0 41 -19 41 -42v-96c0 -8 4 -16 11 -21l65 -46l-65 -47c-7 -4 -11 -12 -11 -20c0 -23 -18 -42 -41 -42h-335c-23 0 -42 19 -42 42v230zM995 85c-9 70 -68 124 -140 124h-176c-72 0 -132 -54 -141 -124h457z" />
    <glyph glyph-name="methode-de-travail_n" unicode="&#xe83d;" 
d="M500 826c-264 0 -478 -214 -478 -479s214 -478 478 -478s479 214 479 478s-215 479 -479 479zM769 146c0 -16 -13 -29 -29 -29h-96c-16 0 -29 13 -29 29v96c0 16 13 29 29 29h29v57h-154v-57h29c16 0 29 -13 29 -29v-96c0 -16 -13 -29 -29 -29h-96c-16 0 -28 13 -28 29
v96c0 16 12 29 28 29h29v57h-153v-57h28c16 0 29 -13 29 -29v-96c0 -16 -13 -29 -29 -29h-96c-16 0 -28 13 -28 29v96c0 16 12 29 28 29h29v57c0 21 18 39 39 39h153v57h-29c-16 0 -28 13 -28 29v96c0 16 12 29 28 29h96c16 0 29 -13 29 -29v-96c0 -16 -13 -29 -29 -29h-29
v-57h154c21 0 38 -18 38 -39v-57h29c16 0 29 -13 29 -29v-96z" />
    <glyph glyph-name="media_n" unicode="&#xe83e;" 
d="M441 603c0 32 25 58 56 58s56 -26 56 -58s-25 -58 -56 -58s-56 26 -56 58zM743 418c-5 -1 -9 1 -13 4l-26 22c-6 5 -7 15 -2 21c44 64 38 150 -16 206c-6 6 -7 15 -1 22l22 26c3 3 7 5 12 5c4 1 8 -1 11 -4h1c38 -39 61 -90 65 -144c5 -54 -11 -108 -42 -152
c-3 -3 -7 -5 -11 -6zM841 334c-5 -1 -9 0 -13 3l-27 24c-7 6 -8 15 -2 22c89 117 76 283 -30 385c-6 6 -7 15 -1 22l23 27c3 4 7 6 12 6c4 0 8 -1 11 -4h1c64 -62 103 -144 110 -233s-19 -176 -73 -246c-3 -4 -7 -6 -11 -6zM244 424c-32 44 -47 98 -42 152
c4 54 27 105 65 144c0 0 1 0 1 1c3 2 7 4 11 3c5 0 9 -2 12 -5l27 -26c5 -6 0 -16 -6 -22c-54 -56 -60 -142 -16 -205c5 -7 4 -17 -2 -22l-26 -22c-4 -3 -8 -5 -13 -4c-4 1 -8 3 -11 6zM146 340c-54 70 -80 157 -73 246s46 171 110 233h1c3 3 7 4 11 4s8 -2 11 -6l24 -27
c5 -7 5 -16 -1 -22c-106 -103 -119 -268 -30 -385c6 -7 4 -16 -2 -22l-28 -24c-3 -3 -7 -4 -12 -3c-4 0 -8 2 -11 6zM550 496h-95s24 -351 -228 -616h114s29 101 167 101s160 -101 160 -101h109s-227 274 -227 616zM430 47c60 100 74 178 74 178c21 -81 75 -178 75 -178
c-75 30 -149 0 -149 0z" />
    <glyph glyph-name="lunettes-realitevirtuelle_n" unicode="&#xe83f;" 
d="M744 466l-213 20c-9 1 -23 2 -37 2s-27 -1 -37 -2l-213 -20c-26 -2 -49 -27 -50 -53l-4 -128c1 -1 2 -3 3 -4l83 -27c2 0 6 -1 12 -1c11 0 21 3 24 4l56 28c13 7 35 25 44 37l19 27c16 20 38 32 62 32s47 -12 62 -32l19 -27c9 -12 31 -30 44 -37l56 -28c4 -1 13 -4 24 -4
c6 0 10 1 12 1l83 27c1 1 3 3 3 4l-4 128c0 26 -23 51 -48 53zM749 519l-214 20c-22 2 -60 2 -83 0l-213 -20c-52 -5 -96 -52 -97 -104l-4 -128c-1 -23 16 -48 38 -55l83 -28c22 -7 56 -5 77 6l56 28c21 11 49 34 62 52c0 0 9 12 20 27c11 14 28 14 39 0l20 -27
c14 -18 41 -41 61 -52l57 -28c21 -11 55 -13 77 -6l83 28c22 7 39 32 38 55l-4 128c-1 52 -44 99 -96 104zM809 272l-86 -31c-2 -1 -7 -1 -13 -1c-12 0 -22 2 -25 4l-59 32c-13 8 -36 28 -45 41l-21 30c-16 23 -40 36 -65 36s-48 -13 -64 -36l-21 -30
c-9 -13 -32 -34 -46 -41l-58 -32c-4 -2 -14 -4 -25 -4c-7 0 -12 0 -14 1l-86 31c-1 0 -2 3 -2 4l4 143c1 30 25 57 52 60l223 22c9 0 23 1 38 1s28 -1 38 -1l222 -22c27 -3 51 -31 52 -60l5 -143zM909 487h-74c17 -21 26 -46 27 -71l4 -128c0 -6 -1 -11 -1 -16h45
c28 0 50 22 50 50v114c-1 28 -23 51 -51 51zM153 487h-74c-28 0 -50 -22 -50 -50v-115c0 -28 22 -50 50 -50h45c-1 6 -1 11 -1 16l4 129c0 24 9 49 26 70z" />
    <glyph glyph-name="livre-de-reference-a-se-procurer_n" unicode="&#xe840;" 
d="M751 517h246l-60 -54l53 -69l-276 1zM231 490c8 -8 13 -19 13 -31v-203h14v257c0 26 23 48 50 48s50 -22 50 -48v-257h15v203c0 26 22 47 50 47s50 -21 50 -47v-203h118c54 0 65 15 85 80l117 385c6 20 3 40 -8 56c-10 14 -28 23 -48 23h-324c-7 0 -14 -2 -21 -4v2
c-54 15 -57 -43 -75 -70c-7 -9 -17 -18 -19 -26c-1 -8 3 -15 2 -22c-2 -22 -19 -63 -29 -77c-7 -8 -16 -13 -19 -22c-3 -7 2 -17 1 -26c-2 -16 -12 -44 -22 -65zM400 651l9 27c3 8 11 14 18 14h258c8 0 12 -6 10 -14l-9 -27c-3 -8 -11 -14 -18 -14h-258c-8 0 -12 6 -10 14z
M365 542l9 27c3 8 11 14 18 14h258c8 0 12 -6 9 -14l-8 -27c-3 -8 -11 -14 -18 -14h-259c-7 0 -12 6 -9 14zM852 652c-6 8 -15 14 -25 18c1 -8 1 -16 -2 -24l-127 -420c-5 -15 -23 -24 -39 -24h-186v-54h18l26 33h128v-1c0 -12 -4 -23 -11 -32h25c36 0 73 28 84 64l117 385
c6 19 3 39 -8 55zM416 -108h-308c-28 0 -53 19 -58 46l-34 172c-2 11 -3 20 -3 28v212c0 35 30 63 66 63c19 0 37 -8 49 -20v66c0 35 29 63 66 63c19 0 36 -8 48 -21v12c0 35 30 63 66 63s66 -28 66 -63v-12c12 13 30 21 49 21c36 0 66 -28 66 -63v-288l20 25h151l1 -14
c0 -18 -5 -33 -15 -45l-172 -217c-14 -17 -36 -28 -58 -28zM79 382c-19 0 -34 -15 -34 -32v-212c0 -6 0 -14 2 -22l34 -172c2 -11 14 -20 27 -20h308c13 0 25 6 33 16l172 217c2 3 4 5 5 8h-102l-67 -85v379c0 17 -15 31 -34 31s-34 -14 -34 -31v-240h-46v294
c0 17 -16 32 -35 32s-34 -14 -34 -32v-294h-46v240c0 17 -15 31 -34 31s-35 -14 -35 -31v-240h-46v131c0 17 -15 32 -34 32z" />
    <glyph glyph-name="laisse-des-traces-demarche_n" unicode="&#xe841;" 
d="M983 704c-7 24 -22 44 -44 57c-22 12 -47 16 -72 9c-24 -6 -45 -22 -57 -44l-124 -214l-268 268l-292 1c-61 0 -110 -49 -110 -110v-653c0 -61 49 -111 110 -111h474c61 0 111 50 111 111v43h-56v-43c0 -30 -24 -55 -54 -55h-474c-30 0 -55 25 -55 55v653
c0 30 25 54 55 54h239v-252c0 -14 10 -27 27 -27h225h30l-97 -168c-2 -4 -3 -7 -4 -11l-18 -164c-1 -11 4 -22 14 -27c4 -3 9 -4 14 -4c6 0 12 2 17 5l132 98c4 2 6 5 8 9l259 448c13 22 16 47 10 72zM421 498v199l197 -199h-197zM593 162l6 55l39 -22zM679 237l-65 37
l200 346l65 -37zM924 660l-16 -28l-65 38l16 28c5 9 13 15 23 17s20 2 28 -3c9 -5 15 -13 18 -23c2 -10 1 -20 -4 -29zM329 433c0 -30 -25 -54 -55 -54s-54 24 -54 54s25 54 54 54s55 -24 55 -54zM265 445c-51 -48 -89 -109 -106 -177c-17 -70 3 -122 57 -168
c20 -16 38 -29 64 -27c35 3 64 29 101 23c40 -7 65 -39 108 -36c21 1 21 35 0 33c-32 -2 -53 19 -82 30c-16 6 -33 8 -50 6c-25 -2 -45 -16 -69 -20c-33 -7 -69 28 -87 54c-21 31 -17 67 -8 102c17 60 50 113 96 156c15 15 -8 38 -24 24zM533 57c0 -30 -24 -55 -54 -55
s-54 25 -54 55s24 54 54 54s54 -24 54 -54zM236 157c0 -30 -24 -55 -54 -55s-55 25 -55 55s25 54 55 54s54 -24 54 -54z" />
    <glyph glyph-name="jugement-critique_n" unicode="&#xe842;" 
d="M557 -141h-4c-12 2 -20 13 -18 25c4 26 17 47 37 61c47 34 124 21 169 14c21 -4 37 0 46 10c10 10 12 27 7 47v2c-4 13 -11 40 7 56c6 5 12 7 16 8c1 5 1 10 1 14c-3 11 3 23 14 26c3 1 6 3 10 4c-1 2 -2 3 -2 5c-4 12 -8 26 -9 39c-2 13 3 22 7 27c10 13 26 14 39 15
c8 1 18 2 21 5c2 7 -1 29 -60 107c-24 33 -18 81 -12 127c3 23 6 44 5 63c-5 83 -42 195 -189 256c-166 69 -365 -35 -367 -36c-8 -4 -182 -95 -177 -325c2 -13 22 -123 68 -171c62 -66 54 -285 -13 -356c-9 -9 -22 -9 -31 -1s-9 22 -1 31c52 55 61 246 14 296
c-58 61 -79 191 -80 196v3c-7 259 191 361 200 366c8 4 219 114 404 37c130 -54 207 -158 215 -294c1 -22 -2 -47 -5 -71c-5 -37 -10 -76 4 -95c45 -61 84 -118 61 -155c-14 -22 -38 -24 -54 -26h-6c2 -8 5 -17 7 -25c0 0 1 -1 1 -2c4 -7 11 -22 2 -36
c-4 -8 -14 -14 -23 -18v-2c0 -2 -1 -14 -2 -18c-4 -20 -18 -25 -26 -27c1 -4 2 -10 3 -12v-2c9 -35 2 -66 -17 -87s-49 -30 -85 -24s-104 18 -137 -6c-10 -7 -17 -18 -19 -33c-2 -11 -11 -18 -21 -18zM574 325c-1 0 -3 0 -4 1c-12 2 -19 13 -17 25c10 54 33 82 51 104
c20 26 35 45 31 100c-9 99 -120 99 -124 99c-5 0 -116 0 -124 -99c-5 -55 10 -74 31 -100c18 -22 40 -50 51 -104c2 -12 -6 -23 -18 -26c-11 -2 -23 6 -25 18c-8 43 -25 64 -42 85c-23 29 -46 59 -40 131c9 111 113 139 167 138c52 0 157 -27 167 -138
c6 -72 -18 -102 -41 -131c-17 -21 -33 -42 -42 -85c-2 -11 -11 -18 -21 -18zM575 291h-131h131zM575 269h-131c-12 0 -22 10 -22 22s10 21 22 21h131c12 0 21 -10 21 -21s-9 -22 -21 -22zM575 229h-131h131zM575 207h-131c-12 0 -22 10 -22 22s10 21 22 21h131
c12 0 21 -9 21 -21s-9 -22 -21 -22zM547 171h-76h76zM547 149h-76c-12 0 -21 10 -21 22s9 21 21 21h76c12 0 22 -10 22 -21s-10 -22 -22 -22z" />
    <glyph glyph-name="jette-un-oeil_n" unicode="&#xe843;" 
d="M964 310c-99 -162 -279 -271 -469 -271s-370 109 -468 271c-6 11 -11 23 -11 37s5 25 11 37c98 161 279 271 468 271s370 -110 469 -271c6 -12 10 -24 10 -37s-4 -26 -10 -37zM702 535c22 -36 33 -78 33 -120c0 -132 -108 -239 -240 -239s-239 107 -239 239
c0 42 11 84 32 120c-83 -42 -153 -110 -203 -188c91 -141 239 -240 410 -240s319 99 411 240c-51 78 -120 146 -204 188zM495 578c-89 0 -162 -74 -162 -163c0 -14 11 -26 25 -26s26 12 26 26c0 61 50 111 111 111c14 0 26 12 26 26s-12 26 -26 26z" />
    <glyph glyph-name="intentions_n" unicode="&#xe844;" 
d="M450 775c108 0 206 -40 282 -106l-55 -49c-62 51 -141 82 -227 82c-196 0 -354 -159 -354 -354s158 -355 354 -355s354 159 354 355c0 46 -9 90 -25 131l64 37c22 -51 35 -108 35 -168c0 -236 -192 -428 -428 -428s-428 192 -428 428s192 427 428 427zM450 602
c70 0 133 -29 179 -75l-62 -46c-31 27 -72 44 -117 44c-98 0 -177 -79 -177 -177s79 -177 177 -177s177 79 177 177c0 25 -5 49 -15 71l64 44c18 -35 28 -74 28 -115c0 -141 -114 -254 -254 -254s-254 113 -254 254s114 254 254 254zM450 430c13 0 26 -3 37 -9l-50 -37
c-19 -14 -22 -42 -5 -58c14 -12 32 -10 46 0l53 36c1 -4 1 -9 1 -14c0 -46 -37 -83 -82 -83s-83 37 -83 83c0 45 37 82 83 82zM858 644l8 119l-186 -166l-2 -58l-230 -171c-17 -13 -3 -42 19 -26l239 166l56 -17l213 126z" />
    <glyph glyph-name="important_n" unicode="&#xe845;" 
d="M942 347c0 -246 -199 -445 -445 -445s-445 199 -445 445s199 445 445 445s445 -199 445 -445zM580 629c0 4 -1 8 -5 10c-4 3 -9 5 -14 5h-128c-5 0 -10 -2 -14 -5c-4 -2 -6 -6 -6 -10l10 -360c0 -9 9 -15 20 -15h107c11 0 19 6 20 15zM571 179c0 11 -8 19 -18 19h-111
c-11 0 -19 -8 -19 -19v-110c0 -10 8 -19 19 -19h111c10 0 18 9 18 19v110z" />
    <glyph glyph-name="gouache_n" unicode="&#xe846;" 
d="M642 807l-84 -83l280 -280c-23 -10 -70 -31 -123 -72c-44 -35 -64 -52 -131 -109c-44 -37 -110 -93 -219 -184l-138 139c90 108 147 174 184 219c56 67 74 87 108 131c27 34 45 65 57 89l-30 31c-11 -23 -29 -57 -58 -95c-34 -44 -51 -64 -107 -130
c-41 -46 -100 -116 -197 -233c-3 -4 -4 -7 -5 -11l-5 -54l-5 4c-7 8 -20 8 -28 0l-65 -65c-8 -7 -8 -21 0 -28s21 -8 28 0l52 51l118 -119l-36 -37l-21 21l5 4c8 8 8 21 0 28c-7 8 -21 8 -28 0l-20 -19c-7 -8 -7 -21 0 -29l49 -48c8 -8 21 -8 28 0l66 65c3 3 6 9 6 15
s-2 10 -6 14l-5 5l54 5c4 0 8 2 11 5c117 97 187 157 233 196c66 56 87 73 130 107c70 54 127 71 127 71c2 1 5 2 6 4l80 79zM274 65l-62 62l4 45l103 -103zM871 469l-255 255l26 25l255 -255zM173 74c-8 8 -21 8 -29 0l-19 -19c-8 -8 -8 -21 0 -29s21 -7 29 0l19 20
c8 8 8 20 0 28zM415 267c35 -35 108 -17 166 41c59 58 76 131 41 166s-109 18 -167 -40s-76 -131 -40 -167zM484 406c43 43 93 57 109 40c16 -16 2 -67 -40 -109c-43 -43 -93 -57 -109 -40c-17 16 -3 66 40 109z" />
    <glyph glyph-name="gestes-et-materiel_n" unicode="&#xe847;" 
d="M954 735c0 -21 -17 -39 -39 -39h-843c-21 0 -38 18 -38 39v38c0 21 17 38 38 38h843c22 0 39 -17 39 -38v-38zM839 -32h-690c-42 0 -77 35 -77 77v690c0 42 35 76 77 76h690c42 0 76 -34 76 -76v-690c0 -42 -34 -77 -76 -77zM149 735v-690h690v690h-690zM494 -108
c-32 0 -58 26 -58 57s26 58 58 58s57 -26 57 -58c0 -31 -25 -57 -57 -57zM494 -32c-11 0 -19 -8 -19 -19s8 -19 19 -19s19 9 19 19s-9 19 -19 19zM250 434c4 -4 9 -6 14 -6s10 2 14 6l53 53l54 -53c3 -4 8 -6 13 -6s10 2 14 6c7 7 7 19 0 27l-54 53l54 54c7 7 7 20 0 27
c-8 8 -20 8 -27 0l-54 -53l-53 53c-8 8 -20 8 -28 0c-7 -7 -7 -20 0 -27l54 -54l-54 -53c-7 -8 -7 -20 0 -27zM647 332c-53 0 -96 -43 -96 -95c0 -53 43 -96 96 -96s96 43 96 96c0 52 -43 95 -96 95zM647 179c-32 0 -57 26 -57 58c0 31 25 57 57 57s58 -26 58 -57
c0 -32 -26 -58 -58 -58zM589 546l28 -19c4 -2 7 -3 11 -3c6 0 12 3 16 8c6 9 3 21 -5 27l-58 38c-6 5 -15 5 -21 0l-58 -38c-8 -6 -11 -18 -5 -27c6 -8 18 -11 27 -5l28 19c0 -1 -1 -2 -1 -3c0 -158 -129 -287 -287 -287c-11 0 -19 -9 -19 -19s8 -20 19 -20
c179 0 325 146 325 326c1 1 0 2 0 3z" />
    <glyph glyph-name="exporter-linformation_n" unicode="&#xe848;" 
d="M641 420h136v-136h-136v136zM816 486h92v-92h-92v92zM599 437l-162 -162l-31 -31c-4 -4 -9 -6 -15 -6s-11 2 -15 6l-31 31l-81 81c-4 4 -6 10 -6 15s2 11 6 15l31 31c4 4 9 6 15 6s11 -2 15 -6l66 -66l147 147c4 4 10 6 15 6s12 -2 16 -6l30 -30c4 -4 6 -10 6 -16
c0 -5 -2 -11 -6 -15zM784 98h-705h-70v-42c0 -23 32 -42 70 -42h705c38 0 70 19 70 42v42h-70zM467 56h-71c-4 0 -7 3 -7 7s3 7 7 7h71c4 0 7 -3 7 -7s-3 -7 -7 -7zM192 127h479c39 0 70 31 70 70v41h-56v-41c0 -7 -7 -14 -14 -14h-479c-8 0 -14 7 -14 14v310
c0 7 6 14 14 14h479c7 0 14 -7 14 -14v-43h56v43c0 39 -31 70 -70 70h-479c-39 0 -70 -31 -70 -70v-310c0 -39 31 -70 70 -70zM777 625h92v-93h-92v93zM908 685h73v-73h-73v73z" />
    <glyph glyph-name="exploiter-les-technologies_n" unicode="&#xe849;" 
d="M686 201c-3 -3 -7 -5 -11 -5h-35c-8 0 -15 7 -15 15c-8 140 -119 251 -259 259c-8 1 -15 7 -15 15v35c0 4 2 8 5 11s7 4 11 4v0c85 -4 164 -40 223 -100c60 -59 96 -138 100 -223c0 -4 -1 -8 -4 -11zM563 201c-3 -3 -7 -5 -11 -5h-33c-8 0 -14 6 -15 14
c-7 74 -65 132 -139 139c-8 0 -14 7 -14 15v32c0 5 2 9 6 12c2 2 6 4 10 4h1c51 -4 100 -27 136 -63s59 -85 63 -136c0 -4 -1 -9 -4 -12zM398 196c-26 0 -46 21 -46 47s20 46 46 46s46 -21 46 -46c0 -26 -21 -47 -46 -47zM745 9h-630c-14 0 -12 15 -12 24v58v415h-70
c-12 0 -23 11 -23 23c0 6 2 11 5 15l117 140c4 5 11 8 17 8s14 -3 18 -8l116 -140c4 -4 6 -9 6 -15c0 -12 -11 -23 -23 -23h-70v-404h491c3 0 7 -1 9 -4l58 -69c2 -3 3 -5 3 -8c0 -6 -6 -12 -12 -12zM984 157l-116 -139c-5 -5 -11 -9 -18 -9s-14 4 -18 9l-116 139
c-4 4 -6 10 -6 15c0 13 11 23 24 23h69v404h-491c-3 0 -7 1 -9 4l-58 70c-1 2 -3 5 -3 7c0 7 6 12 12 12h631c13 0 11 -14 11 -23v-58v-415h70c13 0 23 -11 23 -24c0 -5 -2 -11 -5 -15z" />
    <glyph glyph-name="environnement-et-consommation_n" unicode="&#xe84a;" 
d="M566 231c-89 0 -146 -37 -204 -101c-3 -3 -4 -6 -4 -11c0 -9 7 -16 16 -16c4 0 8 2 11 5c12 11 23 23 35 34c45 41 84 57 146 57c8 0 16 7 16 16s-8 16 -16 16zM809 583h-85c8 -60 5 -108 5 -112c-2 -26 -24 -46 -50 -44s-46 24 -44 50c0 1 3 51 -7 106h-256
c-11 -56 -9 -106 -9 -107c1 -26 -20 -48 -46 -49h-2c-11 0 -23 4 -31 12c-10 9 -15 21 -16 33c0 4 -1 52 8 111h-87c-20 0 -36 -16 -36 -36v-620c0 -20 16 -36 36 -36h620c20 0 36 16 36 36v620c0 20 -16 36 -36 36zM704 216c-16 -77 -66 -128 -135 -162
c-34 -17 -71 -27 -109 -27c-24 0 -49 4 -72 11c-12 4 -36 20 -46 20c-12 0 -27 -51 -49 -51c-16 0 -21 8 -27 19c-3 5 -4 6 -4 11c0 26 49 47 49 61c0 2 -6 16 -7 21c-2 8 -3 17 -3 26c0 79 64 136 135 159c51 17 160 -3 194 30c14 13 21 25 42 25c28 0 37 -73 37 -95
c0 -15 -1 -32 -5 -48zM682 449h-2c-13 1 -24 13 -23 27c0 2 9 166 -63 243c-24 25 -54 38 -92 38s-68 -13 -93 -39c-74 -77 -68 -241 -68 -243c0 -14 -11 -25 -24 -26c-15 0 -26 10 -27 24c0 8 -6 188 83 280c34 36 78 54 129 54c52 0 95 -18 129 -54
c87 -93 77 -273 76 -280c-1 -14 -12 -24 -25 -24z" />
    <glyph glyph-name="enregistre-une-video_n" unicode="&#xe84b;" 
d="M502 835c-268 0 -485 -217 -485 -485s217 -485 485 -485s485 217 485 485s-217 485 -485 485zM785 196c0 -8 -5 -16 -12 -19c-3 -1 -6 -1 -8 -1c-6 0 -11 1 -14 6l-128 127v-52c0 -51 -40 -91 -91 -91h-222c-50 0 -91 40 -91 91v222c0 50 41 91 91 91h222
c51 0 91 -41 91 -91v-52l128 127c3 4 8 6 14 6c2 0 5 -1 8 -2c7 -3 12 -10 12 -19v-343z" />
    <glyph glyph-name="enregistre-un-audio_n" unicode="&#xe84c;" 
d="M503 836c-268 0 -486 -218 -486 -486s218 -486 486 -486s486 217 486 486s-217 486 -486 486zM382 563c0 67 54 122 121 122s121 -55 121 -122v-194c0 -67 -54 -121 -121 -121s-121 54 -121 121v194zM722 369c0 -112 -85 -205 -195 -217v-50h98c13 0 24 -11 24 -24
c0 -14 -11 -25 -24 -25h-243c-14 0 -25 11 -25 25c0 13 11 24 25 24h97v50c-109 12 -194 105 -194 217v48c0 14 11 25 24 25s24 -11 24 -25v-48c0 -94 76 -170 170 -170s170 76 170 170v48c0 14 11 25 25 25s24 -11 24 -25v-48z" />
    <glyph glyph-name="ecoute-la-video_n" unicode="&#xe84d;" 
d="M503 836c-268 0 -486 -218 -486 -487s218 -486 486 -486s487 218 487 486s-218 487 -487 487zM819 170c0 -9 -6 -17 -14 -21c-3 -1 -6 -1 -9 -1c-6 0 -12 2 -16 6l-142 142v-58c0 -56 -45 -102 -101 -102h-248c-56 0 -101 46 -101 102v248c0 56 45 101 101 101h248
c56 0 101 -45 101 -101v-58l142 141c4 5 10 7 16 7c3 0 6 -1 9 -2c8 -4 14 -12 14 -21v-383zM410 196c-90 0 -163 73 -163 162c0 90 73 163 163 163s162 -73 162 -163c0 -89 -73 -162 -162 -162zM410 473c-64 0 -115 -51 -115 -115s51 -115 115 -115s115 52 115 115
s-52 115 -115 115zM491 347l-115 -68c-2 -1 -4 -2 -7 -2c-2 0 -4 1 -7 2c-4 2 -6 7 -6 11v136c0 5 2 9 6 12c5 2 10 2 14 -1l115 -67c4 -3 7 -7 7 -12s-3 -9 -7 -11z" />
    <glyph glyph-name="duree_n" unicode="&#xe84e;" 
d="M593 -38c-8 -2 -16 -4 -24 -5c-20 -4 -34 -24 -30 -44c2 -10 8 -18 16 -24s18 -8 28 -6s19 4 28 6c20 5 33 25 28 46c-5 20 -26 32 -46 27zM872 468c3 -8 8 -14 14 -19c10 -7 22 -9 34 -5c20 7 30 28 24 48c-3 9 -7 18 -10 27c-8 19 -30 28 -49 21
c-19 -8 -29 -30 -21 -49c3 -8 6 -15 8 -23zM716 16c-7 -4 -14 -9 -21 -13c-18 -10 -24 -33 -14 -51c3 -5 7 -9 11 -12c12 -8 28 -10 41 -2l24 15c18 11 22 35 11 52c-12 18 -35 23 -52 11zM967 363c-1 21 -18 37 -39 36s-37 -18 -36 -39v-24c0 -13 6 -25 16 -32
c6 -4 13 -7 21 -7c21 0 38 16 38 37c1 10 1 19 0 29zM866 115c-17 13 -40 10 -53 -7c-5 -7 -10 -13 -15 -19c-13 -16 -11 -40 4 -53c1 -1 2 -2 3 -2c16 -11 38 -9 51 6c6 7 12 15 17 23c13 16 10 40 -7 52zM921 252c-19 6 -41 -5 -47 -25c-2 -8 -5 -15 -8 -23
c-6 -16 0 -34 14 -44c2 -2 5 -3 8 -4c19 -8 41 2 49 21l9 27c6 20 -5 42 -25 48zM428 -43c-33 6 -66 16 -96 30c-1 1 -1 1 -2 1c-7 3 -14 7 -21 11v0c-13 7 -26 15 -38 23c-177 126 -220 372 -95 549c27 39 60 71 97 97c0 0 1 0 1 1c130 89 305 95 443 3l-30 -42
c-8 -12 -3 -21 11 -20l128 12c15 1 23 14 19 27l-34 124c-4 14 -14 16 -22 4l-30 -43c-100 68 -221 94 -341 73c-12 -2 -24 -5 -36 -8v0h-1c-104 -27 -194 -87 -259 -173c0 -1 -1 -1 -1 -2c-2 -3 -4 -6 -7 -9c-3 -5 -6 -10 -10 -15c0 0 0 -1 -1 -1
c-53 -83 -78 -178 -74 -275v-1c1 -9 1 -19 2 -28c0 -1 1 -2 1 -2c1 -10 2 -19 4 -29c17 -97 62 -184 131 -252l1 -1v0c18 -18 38 -35 60 -50c56 -40 119 -67 187 -79c21 -3 40 10 44 31c3 20 -10 40 -31 44zM475 649c-17 0 -31 -13 -31 -30v-304l279 -144c4 -3 9 -4 14 -4
c11 0 21 6 27 17c8 15 2 33 -13 41l-246 127v267c0 17 -13 30 -30 30z" />
    <glyph glyph-name="document-a-imprimer_n" unicode="&#xe84f;" 
d="M830 301c-22 0 -41 12 -51 31v-404h-555v846h333v-180c0 -23 19 -42 42 -42h180v-167c10 18 29 30 51 30h5v179c0 23 -13 55 -29 71l-136 136c-16 16 -48 29 -71 29h-389c-23 0 -42 -19 -42 -42v-874c0 -23 19 -41 42 -41h583c23 0 42 18 42 41v387h-5zM952 469h-914
c-14 0 -26 -12 -26 -27v-374h211v123h556v-123h200v374c0 15 -12 27 -27 27zM830 301c-32 0 -57 26 -57 57s25 58 57 58s57 -26 57 -58s-25 -57 -57 -57zM262 143h479v-34h-479v34zM262 77h479v-34h-479v34zM262 11h479v-34h-479v34z" />
    <glyph glyph-name="demande-un-casque-ecoute-micro_n" unicode="&#xe851;" 
d="M514 480c0 73 66 132 148 132s148 -59 148 -132s-66 -132 -148 -132s-148 59 -148 132zM947 605c-27 0 -49 -22 -49 -49v-208l-71 -141c-15 5 -30 7 -47 7h-180c-80 0 -135 -65 -135 -146v-38h445s8 92 -5 114l83 164c2 5 8 29 8 36v212c0 27 -22 49 -49 49zM455 364
l-5 -13l-52 -9c-8 -31 -36 -54 -69 -54v-9c0 -5 -4 -9 -9 -9h-18c-5 0 -9 4 -9 9v162c0 5 4 9 9 9h18c5 0 9 -4 9 -9v-9c26 0 50 -15 62 -37l19 3c5 18 8 36 8 54c0 85 -84 159 -179 159s-179 -74 -179 -159c0 -18 3 -36 8 -54l19 -3c12 22 35 37 62 37v9c0 5 4 9 9 9h18
c5 0 9 -4 9 -9v-162c0 -5 -4 -9 -9 -9h-18c-5 0 -9 4 -9 9v9c-33 0 -61 23 -69 54l-52 9l-5 13c-11 28 -17 58 -17 88c0 115 107 213 233 213s233 -98 233 -213c0 -30 -6 -60 -17 -88zM156 217c-7 0 -13 -2 -18 -7c-52 23 -80 79 -66 133l-41 14c-21 -78 21 -161 100 -189
c2 -1 3 -1 5 -1c5 -6 12 -9 20 -9c15 0 27 12 27 27v5c0 15 -12 27 -27 27z" />
    <glyph glyph-name="demande-un-cellulaire_n" unicode="&#xe852;" 
d="M469 480c0 73 66 132 148 132s148 -59 148 -132s-66 -132 -148 -132s-148 59 -148 132zM936 667c-31 0 -56 -26 -56 -57v-240l-83 -164c-17 5 -35 9 -54 9h-208c-93 0 -157 -76 -157 -169v-44h515s10 106 -6 132l96 189c3 6 10 34 10 41v246c0 31 -26 57 -57 57zM281 289
c0 -25 -20 -46 -45 -46h-181c-25 0 -46 21 -46 46v363c0 24 21 45 46 45h181c25 0 45 -21 45 -45v-363zM247 595c0 6 -5 11 -11 11h-181c-6 0 -12 -5 -12 -11v-250c0 -6 6 -11 12 -11h181c6 0 11 5 11 11v250zM174 652h-57c-3 0 -6 -3 -6 -6s3 -6 6 -6h57c3 0 5 3 5 6
s-2 6 -5 6zM145 317c-15 0 -28 -13 -28 -28s13 -29 28 -29s29 13 29 29s-13 28 -29 28z" />
    <glyph glyph-name="demande-une-tablette_n" unicode="&#xe853;" 
d="M490 445c0 73 66 132 148 132s148 -59 148 -132s-66 -132 -148 -132s-148 59 -148 132zM937 593c-30 0 -55 -24 -55 -54v-230l-79 -157c-16 5 -34 8 -52 8h-199c-89 0 -150 -73 -150 -162v-42h493s9 102 -6 126l92 182c3 6 10 32 10 40v235c0 30 -25 54 -54 54zM363 304
c0 -28 -22 -50 -49 -50h-258c-28 0 -50 22 -50 50v337c0 28 22 50 50 50h258c27 0 49 -22 49 -50v-337zM324 641c0 6 -5 10 -10 10h-258c-6 0 -10 -4 -10 -10v-298c0 -5 4 -10 10 -10h258c5 0 10 5 10 10v298zM185 314c-11 0 -20 -9 -20 -20s9 -20 20 -20s20 9 20 20
s-9 20 -20 20z" />
    <glyph glyph-name="demande-une-webcam_n" unicode="&#xe854;" 
d="M514 480c0 73 66 132 148 132s148 -59 148 -132s-66 -132 -148 -132s-148 59 -148 132zM938 656c-29 0 -52 -23 -52 -52v-222l-77 -151c-15 5 -32 8 -49 8h-192c-86 0 -145 -70 -145 -156v-40h475s9 98 -5 121l88 175c3 6 9 31 9 38v227c0 29 -23 52 -52 52zM438 361
c0 -20 -16 -36 -35 -36h-122c0 -19 14 -35 14 -43s-6 -14 -14 -14h-114c-8 0 -15 6 -15 14s15 24 15 43h-122c-20 0 -36 16 -36 36v243c0 20 16 36 36 36h358c19 0 35 -16 35 -36v-243zM410 604c0 4 -4 7 -7 7h-358c-4 0 -7 -3 -7 -7v-186c0 -4 3 -7 7 -7h358c3 0 7 3 7 7
v186zM341 457c0 -2 -2 -4 -5 -5c-1 0 -2 -1 -3 -1c-2 0 -4 1 -5 2l-49 39v-16c0 -15 -16 -28 -35 -28h-85c-19 0 -35 13 -35 28v67c0 15 16 27 35 27h85c19 0 35 -12 35 -27v-16l49 38c1 2 3 2 5 2h3c3 -1 5 -4 5 -6v-104z" />
    <glyph glyph-name="demande-un-ordinateur_n" unicode="&#xe855;" 
d="M514 480c0 73 66 132 148 132s148 -59 148 -132s-66 -132 -148 -132s-148 59 -148 132zM945 576c-26 0 -46 -21 -46 -47v-198l-69 -135c-14 5 -28 8 -44 8h-171c-76 0 -129 -63 -129 -139v-36h424s8 87 -5 108l78 156c3 5 9 28 9 34v202c0 26 -21 47 -47 47zM523 306v-26
c0 -14 -19 -25 -43 -25h-426c-24 0 -43 11 -43 25v26h43h426h43zM79 366v187c0 24 20 43 43 43h290c23 0 43 -19 43 -43v-187c0 -24 -20 -43 -43 -43h-290c-23 0 -43 19 -43 43zM114 366c0 -5 4 -9 8 -9h290c5 0 9 4 9 9v187c0 5 -4 9 -9 9h-290c-4 0 -8 -4 -8 -9v-187z
M293 285c0 2 -2 4 -5 4h-42c-3 0 -4 -2 -4 -4c0 -3 1 -5 4 -5h42c3 0 5 2 5 5z" />
    </font>
</defs>
</svg>
