<?xml version="1.0" standalone="no"?>
<!DOCTYPE svg PUBLIC "-//W3C//DTD SVG 1.1//EN" "http://www.w3.org/Graphics/SVG/1.1/DTD/svg11.dtd">
<!--Generator: Xara Designer (www.xara.com), SVG filter version: 6.2.0.0-->
<svg stroke-width="0.501" stroke-linejoin="bevel" fill-rule="evenodd" xmlns:xlink="http://www.w3.org/1999/xlink" xmlns="http://www.w3.org/2000/svg" version="1.1" overflow="visible" width="37.5pt" height="37.5pt" viewBox="0 0 37.5 37.5">
 <defs>
	</defs>
 <g id="Document" fill="none" stroke="black" font-family="Times New Roman" font-size="16" transform="scale(1 -1)">
  <g id="Spread" transform="translate(0 -37.5)">
   <g id="Layer 1">
    <path d="M 36.185,15.487 L 36.185,29.688 C 36.185,33.275 33.277,36.185 29.688,36.185 L 28.336,36.185 L 9.165,36.185 L 7.813,36.185 C 4.225,36.185 1.315,33.275 1.315,29.688 L 1.315,15.487 L 1.315,1.315 L 29.687,1.315 C 33.276,1.315 36.185,4.225 36.185,7.813 L 36.185,8.939 L 36.185,15.487 Z" stroke="none" fill="#0069bf" stroke-width="0.193" fill-rule="nonzero" stroke-linejoin="miter" marker-start="none" marker-end="none"/>
    <path d="M 13.524,11.362 L 13.524,7.227 L 32.739,7.227 L 32.739,26.442 L 29.681,26.442 C 29.486,26.442 29.298,26.522 29.162,26.663 C 28.264,27.599 27.226,28.338 26.099,28.926 C 25.431,29.275 25.679,30.285 26.432,30.285 L 33.7,30.285 C 35.292,30.285 36.583,28.995 36.583,27.403 L 36.583,6.266 C 36.583,4.675 35.292,3.384 33.7,3.384 L 12.563,3.384 C 10.971,3.384 9.681,4.675 9.681,6.266 L 9.681,11.598 C 9.681,12.096 10.173,12.443 10.643,12.278 C 11.3,12.044 12.004,11.976 12.695,12.074 C 13.131,12.138 13.524,11.804 13.524,11.362 Z M 2.446,23.473 L 11.093,15.307 C 12.004,14.446 13.524,15.084 13.524,16.355 L 13.524,20.676 C 22.205,20.618 25.867,18.568 23.418,10.388 C 23.149,9.487 24.19,8.791 24.92,9.346 C 27.259,11.123 29.377,14.523 29.377,17.955 C 29.377,26.597 22.315,28.312 13.524,28.362 L 13.524,32.687 C 13.524,33.957 12.004,34.594 11.093,33.734 L 2.446,25.567 C 1.844,25 1.844,24.041 2.446,23.473 Z" stroke="none" fill="#110f0d" stroke-width="0.131" fill-rule="nonzero" stroke-linejoin="miter" marker-start="none" marker-end="none"/>
    <path d="M 13.524,11.362 L 13.524,7.227 L 32.739,7.227 L 32.739,26.442 L 29.681,26.442 C 29.486,26.442 29.298,26.522 29.162,26.663 C 28.264,27.599 27.226,28.338 26.099,28.926 C 25.431,29.275 25.679,30.285 26.432,30.285 L 33.7,30.285 C 35.292,30.285 36.583,28.995 36.583,27.403 L 36.583,6.266 C 36.583,4.675 35.292,3.384 33.7,3.384 L 12.563,3.384 C 10.971,3.384 9.681,4.675 9.681,6.266 L 9.681,11.598 C 9.681,12.096 10.173,12.443 10.643,12.278 C 11.3,12.044 12.004,11.976 12.695,12.074 C 13.131,12.138 13.524,11.804 13.524,11.362 Z M 2.446,23.473 L 11.093,15.307 C 12.004,14.446 13.524,15.084 13.524,16.355 L 13.524,20.676 C 22.205,20.618 25.867,18.568 23.418,10.388 C 23.149,9.487 24.19,8.791 24.92,9.346 C 27.259,11.123 29.377,14.523 29.377,17.955 C 29.377,26.597 22.315,28.312 13.524,28.362 L 13.524,32.687 C 13.524,33.957 12.004,34.594 11.093,33.734 L 2.446,25.567 C 1.844,25 1.844,24.041 2.446,23.473 Z" fill="none" stroke="#ffffff" stroke-width="1.835" stroke-linejoin="round" stroke-linecap="round" marker-start="none" marker-end="none"/>
   </g>
  </g>
 </g>
</svg>
