<?xml version="1.0" encoding="utf-8"?>
<!-- Generator: Adobe Illustrator 23.0.3, SVG Export Plug-In . SVG Version: 6.00 Build 0)  -->
<svg version="1.1" id="Layer_1" xmlns="http://www.w3.org/2000/svg" xmlns:xlink="http://www.w3.org/1999/xlink" x="0px" y="0px"
	 viewBox="0 0 111.53 127.12" style="enable-background:new 0 0 111.53 127.12;" xml:space="preserve">
<style type="text/css">
	.st0{fill:#FAA32C;}
	.st1{fill:#0069BF;}
	.st2{fill:#231F20;}
	.st3{fill:#FFFFFF;}
	.st4{stroke:#231F20;stroke-miterlimit:10;}
	.st5{fill:none;}
	.st6{fill:none;stroke:#000000;stroke-width:3.5129;stroke-miterlimit:10;}
	.st7{stroke:#231F20;stroke-width:1.9309;stroke-miterlimit:10;}
	.st8{stroke:#000000;stroke-miterlimit:10;}
	.st9{stroke:#000000;stroke-width:2.2024;stroke-linecap:round;stroke-linejoin:round;stroke-miterlimit:10;}
	.st10{stroke:#231F20;stroke-width:0.25;stroke-miterlimit:10;}
	.st11{stroke:#231F20;stroke-width:2;stroke-miterlimit:10;}
	.st12{fill:none;stroke:#000000;stroke-width:3.5;stroke-miterlimit:10;}
	.st13{stroke:#231F20;stroke-width:0.5;stroke-miterlimit:10;}
	.st14{fill:none;stroke:#231F20;stroke-width:3;stroke-miterlimit:10;}
	.st15{fill:none;stroke:#231F20;stroke-width:3.5;stroke-miterlimit:10;}
	.st16{fill:#231F20;stroke:#231F20;stroke-width:1.25;stroke-miterlimit:10;}
	.st17{fill:#231F20;stroke:#000000;stroke-miterlimit:10;}
</style>
<g>
	<path class="st0" d="M108.17,73.37V30.68c0-10.78-8.74-19.53-19.53-19.53h-4.06H26.95h-4.06c-10.79,0-19.53,8.75-19.53,19.53v42.69
		v42.6h85.28c10.79,0,19.53-8.75,19.53-19.53v-3.38V73.37z"/>
	<g>
		<path class="st11" d="M110.21,19.64C107.67,10.24,88.79,1,55.76,1S3.85,10.24,1.32,19.64C1.14,19.96,1,20.32,1,20.71v1.1V47v1.1
			v1.1v26.42v1.1v1.1v28.61c0,0.35,0.09,0.69,0.26,0.99c2.59,10.72,25.73,18.73,54.51,18.73c28.71,0,51.82-7.97,54.49-18.65
			c0.18-0.31,0.27-0.67,0.27-1.06V77.8v-1.1v-1.1V49.19v-1.1V47V21.81v-1.1C110.53,20.32,110.39,19.96,110.21,19.64z M105.97,77.77
			c-0.06,0.27-0.15,0.53-0.25,0.8c-0.09,0.22-0.19,0.43-0.31,0.65c-0.15,0.27-0.31,0.54-0.51,0.81c-0.14,0.2-0.31,0.41-0.48,0.61
			c-0.24,0.29-0.5,0.57-0.8,0.86c-0.18,0.17-0.37,0.34-0.57,0.52c-0.36,0.31-0.73,0.62-1.15,0.93c-0.18,0.13-0.37,0.26-0.56,0.39
			c-0.5,0.34-1.01,0.68-1.58,1.01c-0.15,0.09-0.31,0.18-0.46,0.26c-0.65,0.37-1.33,0.73-2.07,1.09c-0.09,0.05-0.19,0.09-0.29,0.13
			c-0.82,0.39-1.68,0.77-2.6,1.14c-0.03,0.01-0.05,0.02-0.08,0.03c-4.97,1.99-11.34,3.66-18.75,4.75c-0.04,0-0.07,0.01-0.11,0.02
			c-1.44,0.21-2.92,0.4-4.44,0.57c-0.25,0.03-0.51,0.04-0.76,0.07c-1.33,0.14-2.67,0.27-4.05,0.37c-0.63,0.05-1.29,0.07-1.93,0.11
			c-1.04,0.06-2.07,0.13-3.13,0.17c-1.74,0.05-3.51,0.09-5.33,0.09s-3.59-0.04-5.33-0.1c-1.06-0.04-2.09-0.11-3.13-0.17
			c-0.64-0.04-1.3-0.06-1.93-0.11c-1.38-0.1-2.72-0.23-4.05-0.37c-0.25-0.03-0.51-0.04-0.76-0.07c-1.52-0.17-3-0.36-4.44-0.57
			c-0.04,0-0.07-0.01-0.11-0.02c-7.41-1.1-13.78-2.77-18.75-4.75c-0.03-0.01-0.05-0.02-0.08-0.03c-0.92-0.37-1.78-0.75-2.6-1.14
			c-0.09-0.05-0.19-0.09-0.29-0.13c-0.74-0.35-1.42-0.72-2.07-1.09c-0.15-0.09-0.32-0.17-0.46-0.26c-0.57-0.33-1.08-0.67-1.58-1.01
			C10,83.19,9.8,83.06,9.62,82.93C9.2,82.62,8.83,82.31,8.47,82c-0.19-0.17-0.39-0.34-0.57-0.52c-0.29-0.28-0.55-0.57-0.8-0.86
			c-0.17-0.2-0.34-0.4-0.48-0.61c-0.19-0.27-0.36-0.54-0.51-0.81C6,78.99,5.9,78.77,5.81,78.56c-0.11-0.27-0.19-0.53-0.25-0.8
			c-0.08-0.35-0.17-0.7-0.17-1.06c0-0.25,0.03-0.5,0.07-0.74c0.05-0.33,0.02-0.66-0.07-0.97V56.4c0.06,0.06,0.14,0.11,0.2,0.17
			c0.48,0.42,0.96,0.84,1.51,1.24c8.25,6.24,24.75,11.09,48.67,11.09c23.82,0,40.27-4.81,48.56-11.01c0.66-0.48,1.26-0.98,1.82-1.49
			l0,0v18.59c-0.09,0.31-0.12,0.64-0.07,0.97c0.04,0.25,0.07,0.49,0.07,0.74C106.15,77.06,106.06,77.41,105.97,77.77z M106.15,30.12
			v16.26c-0.09,0.31-0.12,0.64-0.07,0.97c0.04,0.25,0.07,0.49,0.07,0.74c0,0.35-0.09,0.71-0.17,1.06c-0.06,0.27-0.15,0.53-0.25,0.8
			c-0.09,0.22-0.19,0.43-0.31,0.65c-0.15,0.27-0.31,0.54-0.51,0.81c-0.14,0.2-0.31,0.41-0.48,0.61c-0.24,0.29-0.5,0.57-0.8,0.86
			c-0.18,0.17-0.37,0.34-0.57,0.52c-0.36,0.31-0.73,0.62-1.15,0.93c-0.18,0.13-0.37,0.26-0.56,0.39c-0.5,0.34-1.01,0.68-1.58,1.01
			c-0.15,0.09-0.31,0.18-0.46,0.26c-0.65,0.37-1.33,0.73-2.07,1.09c-0.09,0.05-0.19,0.09-0.29,0.13c-0.82,0.39-1.68,0.77-2.6,1.14
			c-0.03,0.01-0.05,0.02-0.08,0.03c-4.97,1.99-11.34,3.66-18.75,4.75c-0.04,0-0.07,0.01-0.11,0.02c-1.44,0.21-2.92,0.4-4.44,0.57
			c-0.25,0.03-0.51,0.04-0.76,0.07c-1.33,0.14-2.67,0.27-4.05,0.37c-0.63,0.05-1.29,0.07-1.93,0.11c-1.04,0.06-2.07,0.13-3.13,0.17
			c-1.74,0.05-3.51,0.09-5.33,0.09s-3.59-0.04-5.33-0.1c-1.06-0.04-2.09-0.11-3.13-0.17c-0.64-0.04-1.3-0.06-1.93-0.11
			c-1.38-0.1-2.72-0.23-4.05-0.37c-0.25-0.03-0.51-0.04-0.76-0.07c-1.52-0.17-3-0.36-4.44-0.57c-0.04,0-0.07-0.01-0.11-0.02
			c-7.41-1.1-13.78-2.77-18.75-4.75c-0.03-0.01-0.05-0.02-0.08-0.03c-0.92-0.37-1.78-0.75-2.6-1.14c-0.09-0.05-0.19-0.09-0.29-0.13
			c-0.74-0.35-1.42-0.72-2.07-1.09c-0.15-0.09-0.32-0.17-0.46-0.26c-0.57-0.33-1.08-0.67-1.58-1.01C10,54.58,9.8,54.46,9.62,54.32
			c-0.42-0.31-0.79-0.62-1.15-0.93c-0.19-0.17-0.39-0.34-0.57-0.52c-0.29-0.28-0.55-0.57-0.8-0.86c-0.17-0.2-0.34-0.4-0.48-0.61
			c-0.19-0.27-0.36-0.54-0.51-0.81C6,50.38,5.9,50.16,5.81,49.95c-0.11-0.27-0.19-0.53-0.25-0.8c-0.08-0.35-0.17-0.7-0.17-1.06
			c0-0.25,0.03-0.5,0.07-0.74c0.05-0.33,0.02-0.66-0.07-0.97V30.12c0.26,0.24,0.56,0.47,0.85,0.71c0.16,0.13,0.3,0.26,0.47,0.39
			c0.66,0.52,1.37,1.03,2.14,1.52c0.16,0.1,0.34,0.2,0.51,0.31c0.64,0.4,1.33,0.79,2.04,1.18c0.27,0.14,0.53,0.28,0.8,0.42
			c0.8,0.41,1.64,0.8,2.52,1.19c0.14,0.06,0.28,0.13,0.42,0.19c1.03,0.44,2.12,0.85,3.25,1.26c0.31,0.11,0.64,0.22,0.96,0.33
			c0.9,0.3,1.84,0.6,2.8,0.88c0.35,0.1,0.69,0.21,1.05,0.3c1.28,0.35,2.6,0.69,3.99,1c0.19,0.04,0.4,0.08,0.59,0.12
			c1.22,0.27,2.5,0.51,3.8,0.75c0.44,0.08,0.89,0.15,1.34,0.23c1.24,0.2,2.52,0.39,3.83,0.56c0.34,0.04,0.66,0.09,1,0.14
			c1.63,0.2,3.32,0.37,5.05,0.51c0.43,0.04,0.87,0.06,1.31,0.09c1.39,0.1,2.8,0.18,4.25,0.25c0.53,0.02,1.05,0.05,1.59,0.07
			c1.89,0.06,3.81,0.11,5.8,0.11c1.99,0,3.92-0.05,5.8-0.11c0.54-0.02,1.06-0.04,1.59-0.07c1.45-0.07,2.87-0.15,4.25-0.25
			c0.43-0.03,0.88-0.06,1.31-0.09c1.73-0.14,3.42-0.31,5.05-0.51c0.34-0.04,0.66-0.09,1-0.14c1.31-0.17,2.59-0.36,3.83-0.56
			c0.45-0.07,0.9-0.15,1.34-0.23c1.31-0.23,2.58-0.48,3.8-0.75c0.19-0.04,0.4-0.08,0.59-0.12c1.39-0.31,2.71-0.65,3.99-1
			c0.36-0.1,0.7-0.2,1.05-0.3c0.97-0.28,1.9-0.57,2.8-0.88c0.32-0.11,0.65-0.21,0.96-0.33c1.13-0.4,2.23-0.82,3.25-1.26
			c0.15-0.06,0.28-0.13,0.42-0.19c0.88-0.39,1.72-0.78,2.52-1.19c0.27-0.14,0.54-0.28,0.8-0.42c0.72-0.38,1.4-0.78,2.04-1.18
			c0.17-0.1,0.35-0.2,0.51-0.31c0.77-0.5,1.48-1.01,2.14-1.52c0.16-0.13,0.31-0.26,0.47-0.39
			C105.58,30.59,105.88,30.36,106.15,30.12z M55.76,5.38c29.69,0,50.38,8.66,50.38,16.43S85.46,38.24,55.76,38.24
			S5.38,29.58,5.38,21.81S26.07,5.38,55.76,5.38z M106.15,105.76c-0.03,0.1-0.05,0.19-0.07,0.3c-1.24,7.58-21.76,15.69-50.31,15.69
			s-49.07-8.11-50.31-15.69c-0.02-0.1-0.04-0.19-0.07-0.29V85.01c0.06,0.06,0.14,0.11,0.2,0.17c0.48,0.42,0.96,0.84,1.51,1.24
			c8.25,6.24,24.75,11.09,48.67,11.09c23.82,0,40.27-4.81,48.56-11.01c0.66-0.48,1.26-0.98,1.82-1.49l0,0V105.76z"/>
	</g>
</g>
</svg>
