<?xml version="1.0" encoding="utf-8"?>
<!-- Generator: Adobe Illustrator 23.0.3, SVG Export Plug-In . SVG Version: 6.00 Build 0)  -->
<svg version="1.1" id="Layer_1" xmlns="http://www.w3.org/2000/svg" xmlns:xlink="http://www.w3.org/1999/xlink" x="0px" y="0px"
	 viewBox="0 0 141.7 129.72" style="enable-background:new 0 0 141.7 129.72;" xml:space="preserve">
<style type="text/css">
	.st0{fill:#FAA32C;}
	.st1{fill:#0069BF;}
	.st2{fill:#231F20;}
	.st3{fill:#FFFFFF;}
	.st4{stroke:#231F20;stroke-miterlimit:10;}
	.st5{fill:none;}
	.st6{fill:none;stroke:#000000;stroke-width:3.5129;stroke-miterlimit:10;}
	.st7{stroke:#231F20;stroke-width:1.9309;stroke-miterlimit:10;}
	.st8{stroke:#000000;stroke-miterlimit:10;}
	.st9{stroke:#000000;stroke-width:2.2024;stroke-linecap:round;stroke-linejoin:round;stroke-miterlimit:10;}
	.st10{stroke:#231F20;stroke-width:0.25;stroke-miterlimit:10;}
	.st11{stroke:#231F20;stroke-width:2;stroke-miterlimit:10;}
	.st12{fill:none;stroke:#000000;stroke-width:3.5;stroke-miterlimit:10;}
	.st13{stroke:#231F20;stroke-width:0.5;stroke-miterlimit:10;}
	.st14{fill:none;stroke:#231F20;stroke-width:3;stroke-miterlimit:10;}
	.st15{fill:none;stroke:#231F20;stroke-width:3.5;stroke-miterlimit:10;}
	.st16{fill:#231F20;stroke:#231F20;stroke-width:1.25;stroke-miterlimit:10;}
	.st17{fill:#231F20;stroke:#000000;stroke-miterlimit:10;}
</style>
<g>
	<path class="st0" d="M104.82,62.22V19.53C104.82,8.75,96.07,0,85.29,0l-4.06,0L23.59,0h-4.06C8.74,0,0,8.75,0,19.53v42.69v42.6
		h85.28c10.79,0,19.53-8.75,19.53-19.53V81.9V62.22z"/>
	<g>
		<path d="M76.84,0C41.01,0,11.98,29.04,11.98,64.86c0,35.82,29.04,64.86,64.86,64.86c35.82,0,64.86-29.04,64.86-64.86
			C141.7,29.04,112.66,0,76.84,0z M128.04,43.37h-24.17c-1.97-12.74-5.73-24.13-11.19-31.69C108.68,16.42,121.64,28.17,128.04,43.37
			z M98.31,64.86c0,4.97-0.27,9.74-0.74,14.33H56.1c-0.47-4.59-0.74-9.36-0.74-14.33s0.27-9.74,0.74-14.33h41.48
			C98.04,55.12,98.31,59.89,98.31,64.86z M76.85,9.35c8.91,0,16.56,14.03,19.81,34.02H57.04C60.28,23.38,67.94,9.35,76.85,9.35z
			 M61,11.68c-5.46,7.57-9.22,18.96-11.17,31.69H25.66C32.04,28.17,45.02,16.42,61,11.68z M21.34,64.86c0-4.97,0.72-9.74,1.92-14.33
			h25.67c-0.47,4.7-0.74,9.51-0.74,14.33s0.27,9.62,0.72,14.33H23.26C22.05,74.6,21.34,69.83,21.34,64.86z M25.66,86.35h24.17
			c1.97,12.74,5.73,24.13,11.19,31.69C45.02,113.3,32.06,101.55,25.66,86.35z M76.85,120.37c-8.91,0-16.56-14.03-19.81-34.02h39.62
			C93.41,106.34,85.76,120.37,76.85,120.37z M92.69,118.04c5.46-7.57,9.22-18.96,11.19-31.69h24.17
			C121.66,101.55,108.68,113.3,92.69,118.04z M104.76,79.18c0.47-4.7,0.74-9.51,0.74-14.33s-0.27-9.62-0.74-14.33h25.67
			c1.21,4.59,1.9,9.36,1.9,14.33s-0.69,9.74-1.92,14.33H104.76z"/>
	</g>
</g>
</svg>
