<?xml version="1.0" encoding="utf-8"?>
<!-- Generator: Adobe Illustrator 23.0.3, SVG Export Plug-In . SVG Version: 6.00 Build 0)  -->
<svg version="1.1" id="Layer_1" xmlns="http://www.w3.org/2000/svg" xmlns:xlink="http://www.w3.org/1999/xlink" x="0px" y="0px"
	 viewBox="0 0 144.02 127.65" style="enable-background:new 0 0 144.02 127.65;" xml:space="preserve">
<style type="text/css">
	.st0{fill:#FAA32C;}
	.st1{fill:#0069BF;}
	.st2{fill:#231F20;}
	.st3{fill:#FFFFFF;}
	.st4{stroke:#231F20;stroke-miterlimit:10;}
	.st5{fill:none;}
	.st6{fill:none;stroke:#000000;stroke-width:3.5129;stroke-miterlimit:10;}
	.st7{stroke:#231F20;stroke-width:1.9309;stroke-miterlimit:10;}
	.st8{stroke:#000000;stroke-miterlimit:10;}
	.st9{stroke:#000000;stroke-width:2.2024;stroke-linecap:round;stroke-linejoin:round;stroke-miterlimit:10;}
	.st10{stroke:#231F20;stroke-width:0.25;stroke-miterlimit:10;}
	.st11{stroke:#231F20;stroke-width:2;stroke-miterlimit:10;}
	.st12{fill:none;stroke:#000000;stroke-width:3.5;stroke-miterlimit:10;}
	.st13{stroke:#231F20;stroke-width:0.5;stroke-miterlimit:10;}
	.st14{fill:none;stroke:#231F20;stroke-width:3;stroke-miterlimit:10;}
	.st15{fill:none;stroke:#231F20;stroke-width:3.5;stroke-miterlimit:10;}
	.st16{fill:#231F20;stroke:#231F20;stroke-width:1.25;stroke-miterlimit:10;}
	.st17{fill:#231F20;stroke:#000000;stroke-miterlimit:10;}
</style>
<g>
	<path class="st0" d="M104.82,62.84V20.16c0-10.78-8.74-19.53-19.53-19.53h-4.06H23.59h-4.06C8.74,0.62,0,9.37,0,20.16v42.69v42.6
		h85.28c10.79,0,19.53-8.75,19.53-19.53v-3.38V62.84z"/>
	<g>
		<g>
			<path class="st16" d="M103.68,47.59c-21.9,0-39.72,17.82-39.72,39.72s17.82,39.72,39.72,39.72s39.72-17.82,39.72-39.72
				S125.58,47.59,103.68,47.59z M103.68,121.28c-18.73,0-33.97-15.24-33.97-33.97s15.24-33.97,33.97-33.97s33.97,15.24,33.97,33.97
				S122.41,121.28,103.68,121.28z M103.68,92.23c-7.39,0-14.33,3.25-19.06,8.92c-1,1.22-0.84,3.03,0.37,4.04
				c1.22,1.01,3.03,0.85,4.04-0.37c3.62-4.36,8.95-6.87,14.64-6.87c5.67,0,11.01,2.5,14.64,6.87c1.02,1.21,2.83,1.38,4.05,0.37l0,0
				c0.59-0.49,0.96-1.18,1.03-1.95c0.07-0.76-0.16-1.51-0.65-2.1C118.01,95.49,111.06,92.23,103.68,92.23z M116.84,75.23
				c-2.31,0-4.19,1.88-4.19,4.19c0,2.31,1.88,4.19,4.19,4.19s4.19-1.88,4.19-4.19C121.02,77.1,119.14,75.23,116.84,75.23z
				 M90.52,75.23c-2.31,0-4.19,1.88-4.19,4.19c0,2.31,1.88,4.19,4.19,4.19s4.19-1.88,4.19-4.19C94.71,77.1,92.83,75.23,90.52,75.23z
				"/>
		</g>
		<g>
			<path class="st16" d="M47.13,0.62c-21.9,0-39.72,17.82-39.72,39.72s17.82,39.72,39.72,39.72s39.72-17.82,39.72-39.72
				S69.03,0.62,47.13,0.62z M47.13,74.31c-18.73,0-33.97-15.24-33.97-33.97S28.4,6.37,47.13,6.37S81.1,21.61,81.1,40.34
				S65.86,74.31,47.13,74.31z M30.28,49.3c-0.65,0-1.3,0.22-1.83,0.66c-1.21,1.01-1.38,2.82-0.37,4.05
				c4.72,5.67,11.67,8.92,19.06,8.92s14.33-3.25,19.06-8.92c1.01-1.21,0.84-3.03-0.37-4.04c-1.21-1.01-3.03-0.84-4.04,0.37l0,0
				c-3.63,4.36-8.97,6.87-14.64,6.87c-5.69,0-11.03-2.5-14.64-6.87C31.92,49.66,31.1,49.3,30.28,49.3z M60.29,28.26
				c-2.31,0-4.19,1.88-4.19,4.19s1.88,4.19,4.19,4.19c2.31,0,4.19-1.88,4.19-4.19S62.6,28.26,60.29,28.26z M33.97,28.26
				c-2.31,0-4.19,1.88-4.19,4.19s1.88,4.19,4.19,4.19s4.19-1.88,4.19-4.19S36.28,28.26,33.97,28.26z"/>
		</g>
	</g>
</g>
</svg>
