<?xml version="1.0" encoding="utf-8"?>
<!-- Generator: Adobe Illustrator 23.0.3, SVG Export Plug-In . SVG Version: 6.00 Build 0)  -->
<svg version="1.1" id="Layer_1" xmlns="http://www.w3.org/2000/svg" xmlns:xlink="http://www.w3.org/1999/xlink" x="0px" y="0px"
	 viewBox="0 0 112.64 130.39" style="enable-background:new 0 0 112.64 130.39;" xml:space="preserve">
<style type="text/css">
	.st0{fill:#FAA32C;}
	.st1{fill:#0069BF;}
	.st2{fill:#231F20;}
	.st3{fill:#FFFFFF;}
	.st4{stroke:#231F20;stroke-miterlimit:10;}
	.st5{fill:none;}
	.st6{fill:none;stroke:#000000;stroke-width:3.5129;stroke-miterlimit:10;}
	.st7{stroke:#231F20;stroke-width:1.9309;stroke-miterlimit:10;}
	.st8{stroke:#000000;stroke-miterlimit:10;}
	.st9{stroke:#000000;stroke-width:2.2024;stroke-linecap:round;stroke-linejoin:round;stroke-miterlimit:10;}
	.st10{stroke:#231F20;stroke-width:0.25;stroke-miterlimit:10;}
	.st11{stroke:#231F20;stroke-width:2;stroke-miterlimit:10;}
	.st12{fill:none;stroke:#000000;stroke-width:3.5;stroke-miterlimit:10;}
	.st13{stroke:#231F20;stroke-width:0.5;stroke-miterlimit:10;}
	.st14{fill:none;stroke:#231F20;stroke-width:3;stroke-miterlimit:10;}
	.st15{fill:none;stroke:#231F20;stroke-width:3.5;stroke-miterlimit:10;}
	.st16{fill:#231F20;stroke:#231F20;stroke-width:1.25;stroke-miterlimit:10;}
	.st17{fill:#231F20;stroke:#000000;stroke-miterlimit:10;}
</style>
<g>
	<path class="st1" d="M104.82,87.77V45.08c0-10.78-8.74-19.53-19.53-19.53h-4.06H23.59h-4.06C8.74,25.55,0,34.3,0,45.08v42.69v42.6
		h85.28c10.79,0,19.53-8.75,19.53-19.53v-3.38V87.77z"/>
	<g>
		<g>
			<path class="st2" d="M100.42,0H27.08c-6.75,0-12.22,5.47-12.22,12.22v118.17l48.9-28.52l48.9,28.52V12.22
				C112.64,5.47,107.17,0,100.42,0z M104.39,115.97L63.75,92.26L23.1,115.97V13.7c0-3.03,2.47-5.5,5.5-5.5h70.29
				c3.03,0,5.5,2.47,5.5,5.5V115.97z"/>
		</g>
		<g>
			<path class="st2" d="M60.47,22.45h7.31l25.45,59.47h-9.41l-5.96-14.7H49.55l-5.88,14.7h-9.41L60.47,22.45z M74.92,60.17
				l-11.09-27.3h-0.17l-11.26,27.3H74.92z"/>
		</g>
	</g>
</g>
</svg>
