<?xml version="1.0" encoding="utf-8"?>
<!-- Generator: Adobe Illustrator 23.0.3, SVG Export Plug-In . SVG Version: 6.00 Build 0)  -->
<svg version="1.1" id="Layer_1" xmlns="http://www.w3.org/2000/svg" xmlns:xlink="http://www.w3.org/1999/xlink" x="0px" y="0px"
	 viewBox="0 0 140.88 125.16" style="enable-background:new 0 0 140.88 125.16;" xml:space="preserve">
<style type="text/css">
	.st0{fill:#FAA32C;}
	.st1{fill:#0069BF;}
	.st2{fill:#231F20;}
	.st3{fill:#FFFFFF;}
	.st4{stroke:#231F20;stroke-miterlimit:10;}
	.st5{fill:none;}
	.st6{fill:none;stroke:#000000;stroke-width:3.5129;stroke-miterlimit:10;}
	.st7{stroke:#231F20;stroke-width:1.9309;stroke-miterlimit:10;}
	.st8{stroke:#000000;stroke-miterlimit:10;}
	.st9{stroke:#000000;stroke-width:2.2024;stroke-linecap:round;stroke-linejoin:round;stroke-miterlimit:10;}
	.st10{stroke:#231F20;stroke-width:0.25;stroke-miterlimit:10;}
	.st11{stroke:#231F20;stroke-width:2;stroke-miterlimit:10;}
	.st12{fill:none;stroke:#000000;stroke-width:3.5;stroke-miterlimit:10;}
	.st13{stroke:#231F20;stroke-width:0.5;stroke-miterlimit:10;}
	.st14{fill:none;stroke:#231F20;stroke-width:3;stroke-miterlimit:10;}
	.st15{fill:none;stroke:#231F20;stroke-width:3.5;stroke-miterlimit:10;}
	.st16{fill:#231F20;stroke:#231F20;stroke-width:1.25;stroke-miterlimit:10;}
	.st17{fill:#231F20;stroke:#000000;stroke-miterlimit:10;}
</style>
<g>
	<path class="st0" d="M140.88,63.97V21.28c0-10.78-8.74-19.53-19.53-19.53h-4.06H59.66H55.6c-10.79,0-19.53,8.75-19.53,19.53v42.69
		v42.6h85.28c10.79,0,19.53-8.75,19.53-19.53v-3.38V63.97z"/>
	<g>
		<path class="st12" d="M1.75,61.66v-48.5c0-6.3,5.11-11.41,11.41-11.41h48.5c3.03,0,5.93,1.2,8.07,3.34l50.35,50.35
			c4.45,4.45,4.45,11.68,0,16.13l-48.5,48.5c-4.45,4.45-11.68,4.45-16.13,0L5.09,69.73C2.95,67.59,1.75,64.68,1.75,61.66z
			 M31.07,19.66c-6.3,0-11.41,5.11-11.41,11.41s5.11,11.41,11.41,11.41s11.41-5.11,11.41-11.41S37.37,19.66,31.07,19.66z"/>
	</g>
</g>
</svg>
