<?xml version="1.0" encoding="utf-8"?>
<!-- Generator: Adobe Illustrator 23.0.3, SVG Export Plug-In . SVG Version: 6.00 Build 0)  -->
<svg version="1.1" id="Layer_1" xmlns="http://www.w3.org/2000/svg" xmlns:xlink="http://www.w3.org/1999/xlink" x="0px" y="0px"
	 viewBox="0 0 154.47 123.13" style="enable-background:new 0 0 154.47 123.13;" xml:space="preserve">
<style type="text/css">
	.st0{fill:#FAA32C;}
	.st1{fill:#0069BF;}
	.st2{fill:#231F20;}
	.st3{fill:#FFFFFF;}
	.st4{stroke:#231F20;stroke-miterlimit:10;}
	.st5{fill:none;}
	.st6{fill:none;stroke:#000000;stroke-width:3.5129;stroke-miterlimit:10;}
	.st7{stroke:#231F20;stroke-width:1.9309;stroke-miterlimit:10;}
	.st8{stroke:#000000;stroke-miterlimit:10;}
	.st9{stroke:#000000;stroke-width:2.2024;stroke-linecap:round;stroke-linejoin:round;stroke-miterlimit:10;}
	.st10{stroke:#231F20;stroke-width:0.25;stroke-miterlimit:10;}
	.st11{stroke:#231F20;stroke-width:2;stroke-miterlimit:10;}
	.st12{fill:none;stroke:#000000;stroke-width:3.5;stroke-miterlimit:10;}
	.st13{stroke:#231F20;stroke-width:0.5;stroke-miterlimit:10;}
	.st14{fill:none;stroke:#231F20;stroke-width:3;stroke-miterlimit:10;}
	.st15{fill:none;stroke:#231F20;stroke-width:3.5;stroke-miterlimit:10;}
	.st16{fill:#231F20;stroke:#231F20;stroke-width:1.25;stroke-miterlimit:10;}
	.st17{fill:#231F20;stroke:#000000;stroke-miterlimit:10;}
</style>
<g>
	<path class="st0" d="M154.47,63.97V21.28c0-10.78-8.74-19.53-19.53-19.53h-4.06H73.25h-4.06c-10.79,0-19.53,8.75-19.53,19.53v42.69
		v42.6h85.28c10.79,0,19.53-8.75,19.53-19.53v-3.38V63.97z"/>
	<g>
		<path class="st15" d="M121.81,46.5l-1.92,3.35c-0.7,1.24-2.2,1.76-3.54,1.27c-2.77-1.03-5.3-2.51-7.53-4.36
			c-1.08-0.89-1.36-2.46-0.66-3.68l1.92-3.35c-1.62-1.88-2.88-4.06-3.73-6.42h-3.87c-1.41,0-2.63-1.01-2.86-2.41
			c-0.47-2.81-0.49-5.77,0-8.7c0.23-1.41,1.45-2.44,2.86-2.44h3.87c0.84-2.37,2.11-4.55,3.73-6.42l-1.92-3.35
			c-0.7-1.22-0.45-2.79,0.66-3.68c2.23-1.85,4.78-3.33,7.53-4.36c1.34-0.49,2.84,0.02,3.54,1.27l1.92,3.35
			c2.46-0.45,4.97-0.45,7.43,0l1.92-3.35c0.7-1.24,2.2-1.76,3.54-1.27c2.77,1.03,5.3,2.51,7.53,4.36c1.08,0.89,1.36,2.46,0.66,3.68
			l-1.92,3.35c1.62,1.88,2.88,4.06,3.73,6.42h3.87c1.41,0,2.63,1.01,2.86,2.41c0.47,2.81,0.49,5.77,0,8.7
			c-0.23,1.41-1.45,2.44-2.86,2.44h-3.87c-0.84,2.37-2.11,4.55-3.73,6.42l1.92,3.35c0.7,1.22,0.45,2.79-0.66,3.68
			c-2.23,1.85-4.78,3.33-7.53,4.36c-1.34,0.49-2.84-0.02-3.54-1.27l-1.92-3.35C126.8,46.95,124.27,46.95,121.81,46.5z M92.31,68.8
			l7.9,3.94c2.37,1.36,3.4,4.24,2.46,6.82c-2.09,5.67-6.19,10.88-9.99,15.43c-1.73,2.09-4.74,2.6-7.1,1.24l-6.82-3.94
			c-3.75,3.21-8.11,5.77-12.87,7.43v7.88c0,2.72-1.95,5.06-4.62,5.53c-5.77,0.98-11.82,1.03-17.79,0c-2.7-0.47-4.69-2.79-4.69-5.53
			v-7.88c-4.76-1.69-9.12-4.22-12.87-7.43L19.1,96.2c-2.34,1.36-5.37,0.84-7.1-1.24c-3.8-4.55-7.81-9.75-9.89-15.4
			C1.17,77,2.2,74.12,4.57,72.73l7.81-3.94c-0.91-4.9-0.91-9.94,0-14.86l-7.81-3.96c-2.37-1.36-3.42-4.24-2.46-6.8
			C4.19,37.5,8.2,32.29,12,27.75c1.73-2.09,4.74-2.6,7.1-1.24l6.82,3.94c3.75-3.21,8.11-5.77,12.87-7.43v-7.9
			c0-2.7,1.92-5.04,4.59-5.51c5.77-0.98,11.84-1.03,17.82-0.02c2.7,0.47,4.69,2.79,4.69,5.53v7.88c4.76,1.69,9.12,4.22,12.87,7.43
			l6.82-3.94c2.34-1.36,5.37-0.84,7.1,1.24c3.8,4.55,7.78,9.75,9.87,15.43c0.94,2.56,0.02,5.44-2.34,6.82l-7.9,3.94
			C93.23,58.83,93.23,63.87,92.31,68.8z M121.81,116.57l-1.92,3.35c-0.7,1.24-2.2,1.76-3.54,1.27c-2.77-1.03-5.3-2.51-7.53-4.36
			c-1.08-0.89-1.36-2.46-0.66-3.68l1.92-3.35c-1.62-1.88-2.88-4.06-3.73-6.42h-3.87c-1.41,0-2.63-1.01-2.86-2.41
			c-0.47-2.81-0.49-5.77,0-8.7c0.23-1.41,1.45-2.44,2.86-2.44h3.87c0.84-2.37,2.11-4.55,3.73-6.42l-1.92-3.35
			c-0.7-1.22-0.45-2.79,0.66-3.68c2.23-1.85,4.78-3.33,7.53-4.36c1.34-0.49,2.84,0.02,3.54,1.27l1.92,3.35
			c2.46-0.45,4.97-0.45,7.43,0l1.92-3.35c0.7-1.24,2.2-1.76,3.54-1.27c2.77,1.03,5.3,2.51,7.53,4.36c1.08,0.89,1.36,2.46,0.66,3.68
			l-1.92,3.35c1.62,1.88,2.88,4.06,3.73,6.42h3.87c1.41,0,2.63,1.01,2.86,2.41c0.47,2.81,0.49,5.77,0,8.7
			c-0.23,1.41-1.45,2.44-2.86,2.44h-3.87c-0.84,2.37-2.11,4.55-3.73,6.42l1.92,3.35c0.7,1.22,0.45,2.79-0.66,3.68
			c-2.23,1.85-4.78,3.33-7.53,4.36c-1.34,0.49-2.84-0.02-3.54-1.27l-1.92-3.35C126.8,117.02,124.27,117.02,121.81,116.57z"/>
		<circle class="st15" cx="52.37" cy="61.05" r="17.11"/>
		<circle class="st14" cx="125.51" cy="26.6" r="7.65"/>
		<circle class="st14" cx="125.51" cy="96.64" r="7.65"/>
	</g>
</g>
</svg>
