<?xml version="1.0" encoding="utf-8"?>
<!-- Generator: Adobe Illustrator 23.0.3, SVG Export Plug-In . SVG Version: 6.00 Build 0)  -->
<svg version="1.1" id="Layer_1" xmlns="http://www.w3.org/2000/svg" xmlns:xlink="http://www.w3.org/1999/xlink" x="0px" y="0px"
	 viewBox="0 0 166.28 128.98" style="enable-background:new 0 0 166.28 128.98;" xml:space="preserve">
<style type="text/css">
	.st0{fill:#FAA32C;}
	.st1{fill:#0069BF;}
	.st2{fill:#231F20;}
	.st3{fill:#FFFFFF;}
	.st4{stroke:#231F20;stroke-miterlimit:10;}
	.st5{fill:none;}
	.st6{fill:none;stroke:#000000;stroke-width:3.5129;stroke-miterlimit:10;}
	.st7{stroke:#231F20;stroke-width:1.9309;stroke-miterlimit:10;}
	.st8{stroke:#000000;stroke-miterlimit:10;}
	.st9{stroke:#000000;stroke-width:2.2024;stroke-linecap:round;stroke-linejoin:round;stroke-miterlimit:10;}
	.st10{stroke:#231F20;stroke-width:0.25;stroke-miterlimit:10;}
	.st11{stroke:#231F20;stroke-width:2;stroke-miterlimit:10;}
	.st12{fill:none;stroke:#000000;stroke-width:3.5;stroke-miterlimit:10;}
	.st13{stroke:#231F20;stroke-width:0.5;stroke-miterlimit:10;}
	.st14{fill:none;stroke:#231F20;stroke-width:3;stroke-miterlimit:10;}
	.st15{fill:none;stroke:#231F20;stroke-width:3.5;stroke-miterlimit:10;}
	.st16{fill:#231F20;stroke:#231F20;stroke-width:1.25;stroke-miterlimit:10;}
	.st17{fill:#231F20;stroke:#000000;stroke-miterlimit:10;}
</style>
<g>
	<path class="st0" d="M104.82,62.46V19.77c0-10.78-8.74-19.53-19.53-19.53h-4.06H23.59h-4.06C8.74,0.24,0,8.99,0,19.77v42.69v42.6
		h85.28c10.79,0,19.53-8.75,19.53-19.53v-3.38V62.46z"/>
	<g>
		<path d="M39.06,128.98h69.92c8.99,0,16.3-7.31,16.3-16.3V16.3c0-8.99-7.31-16.3-16.3-16.3L65.99,0.18L22.76,43.29v69.39
			C22.76,121.67,30.07,128.98,39.06,128.98z M65.54,12.46v29.36H36.38L65.54,12.46z M69.61,49.55c2.45,0,4.04-2.03,4.04-4.07V8.25
			l35.24,0c4.44,0,8.05,3.61,8.05,8.05v96.38c0,4.44-3.61,8.05-8.05,8.05H38.97c-4.44,0-8.05-3.61-8.05-8.05l-0.17-63.12H69.61z"/>
		<g>
			<rect x="46.87" y="96.83" width="44.5" height="8.25"/>
			<rect x="46.87" y="80.61" width="44.5" height="8.25"/>
			<rect x="46.87" y="64.39" width="44.5" height="8.25"/>
		</g>
		<rect x="110.77" y="49.55" class="st3" width="23.96" height="56.75"/>
		<g>
			<g>
				<path class="st4" d="M159.4,4.04c-2.95-1.7-6.39-2.16-9.68-1.27c-3.29,0.88-6.04,2.99-7.74,5.94L103.76,74.9
					c-0.21,0.36-0.34,0.77-0.39,1.18l-2.69,24.1c-0.13,1.2,0.45,2.36,1.5,2.97c0.47,0.27,1,0.41,1.52,0.41c0.64,0,1.27-0.2,1.8-0.59
					l19.52-14.38c0.34-0.25,0.62-0.56,0.83-0.93l38.22-66.19C167.59,15.37,165.49,7.55,159.4,4.04z M107.49,93.95l1.4-12.58
					l8.79,5.07L107.49,93.95z M122.11,81.99l-11.57-6.68l30.67-53.12l11.57,6.68L122.11,81.99z M158.81,18.42l-2.99,5.18
					l-11.57-6.68l2.99-5.18c0.89-1.55,2.33-2.65,4.06-3.11c1.72-0.46,3.52-0.22,5.07,0.67c1.55,0.89,2.65,2.33,3.11,4.06
					C159.94,15.08,159.7,16.88,158.81,18.42z"/>
			</g>
		</g>
	</g>
</g>
</svg>
