<?xml version="1.0" encoding="utf-8"?>
<!-- Generator: Adobe Illustrator 23.0.3, SVG Export Plug-In . SVG Version: 6.00 Build 0)  -->
<svg version="1.1" id="Layer_1" xmlns="http://www.w3.org/2000/svg" xmlns:xlink="http://www.w3.org/1999/xlink" x="0px" y="0px"
	 viewBox="0 0 137.84 130.39" style="enable-background:new 0 0 137.84 130.39;" xml:space="preserve">
<style type="text/css">
	.st0{fill:#FAA32C;}
	.st1{fill:#0069BF;}
	.st2{fill:#231F20;}
	.st3{fill:#FFFFFF;}
	.st4{stroke:#231F20;stroke-miterlimit:10;}
	.st5{fill:none;}
	.st6{fill:none;stroke:#000000;stroke-width:3.5129;stroke-miterlimit:10;}
	.st7{stroke:#231F20;stroke-width:1.9309;stroke-miterlimit:10;}
	.st8{stroke:#000000;stroke-miterlimit:10;}
	.st9{stroke:#000000;stroke-width:2.2024;stroke-linecap:round;stroke-linejoin:round;stroke-miterlimit:10;}
	.st10{stroke:#231F20;stroke-width:0.25;stroke-miterlimit:10;}
	.st11{stroke:#231F20;stroke-width:2;stroke-miterlimit:10;}
	.st12{fill:none;stroke:#000000;stroke-width:3.5;stroke-miterlimit:10;}
	.st13{stroke:#231F20;stroke-width:0.5;stroke-miterlimit:10;}
	.st14{fill:none;stroke:#231F20;stroke-width:3;stroke-miterlimit:10;}
	.st15{fill:none;stroke:#231F20;stroke-width:3.5;stroke-miterlimit:10;}
	.st16{fill:#231F20;stroke:#231F20;stroke-width:1.25;stroke-miterlimit:10;}
	.st17{fill:#231F20;stroke:#000000;stroke-miterlimit:10;}
</style>
<g>
	<path class="st0" d="M104.82,62.22V19.53C104.82,8.75,96.07,0,85.29,0l-4.06,0L23.59,0h-4.06C8.74,0,0,8.75,0,19.53v42.69v42.6
		h85.28c10.79,0,19.53-8.75,19.53-19.53V81.9V62.22z"/>
	<g>
		<g>
			<path d="M130.2,69.67V57.56c0-2.11-1.71-3.82-3.82-3.82c-7.89,0-15.25,0.67-22.2,2.03c-4.05-3.91-8.99-6.75-14.34-8.3
				c5.83-4.91,9.55-12.26,9.55-20.46c0-14.89-12-27-26.74-27S45.9,12.11,45.9,27c0,8.2,3.71,15.55,9.55,20.46
				c-5.35,1.55-10.29,4.39-14.34,8.3c-6.95-1.36-14.31-2.03-22.2-2.03c-2.11,0-3.82,1.71-3.82,3.82v12.12
				c-4.45,1.58-7.64,5.82-7.64,10.8v7.64c0,4.98,3.19,9.23,7.64,10.8v12.12c0,2.11,1.71,3.82,3.82,3.82
				c19.97,0,36.38,4.73,51.62,14.89c1.28,0.85,2.96,0.85,4.24,0c15.24-10.16,31.64-14.89,51.62-14.89c2.11,0,3.82-1.71,3.82-3.82
				V98.92c4.45-1.58,7.64-5.82,7.64-10.8v-7.64C137.84,75.5,134.64,71.25,130.2,69.67z M53.54,27c0-10.67,8.57-19.36,19.1-19.36
				s19.1,8.68,19.1,19.36c0,10.53-8.57,19.1-19.1,19.1S53.54,37.53,53.54,27z M18.91,91.94c-2.11,0-3.82-1.71-3.82-3.82v-7.64
				c0-2.11,1.71-3.82,3.82-3.82s3.82,1.71,3.82,3.82v7.64C22.73,90.22,21.01,91.94,18.91,91.94z M68.82,119.72
				c-13.87-7.93-28.75-11.94-46.1-12.45v-8.35c4.45-1.58,7.64-5.82,7.64-10.8v-7.64c0-4.98-3.19-9.23-7.64-10.8v-8.24
				c17.95,0.52,32.38,4.74,46.1,13.48V119.72z M72.64,68.29c-7.05-4.45-14.39-7.84-22.22-10.22c4.3-2.8,9.37-4.34,14.58-4.34h15.28
				c5.21,0,10.28,1.54,14.58,4.34C87.03,60.45,79.69,63.84,72.64,68.29z M122.56,107.27c-17.35,0.51-32.23,4.52-46.1,12.45V74.91
				c13.72-8.73,28.15-12.96,46.1-13.48v8.24c-4.45,1.58-7.64,5.82-7.64,10.8v7.64c0,4.98,3.19,9.23,7.64,10.8V107.27z M130.2,88.12
				c0,2.11-1.71,3.82-3.82,3.82s-3.82-1.71-3.82-3.82v-7.64c0-2.11,1.71-3.82,3.82-3.82s3.82,1.71,3.82,3.82V88.12z"/>
		</g>
	</g>
</g>
</svg>
