<?xml version="1.0" encoding="utf-8"?>
<!-- Generator: Adobe Illustrator 23.0.3, SVG Export Plug-In . SVG Version: 6.00 Build 0)  -->
<svg version="1.1" id="Layer_1" xmlns="http://www.w3.org/2000/svg" xmlns:xlink="http://www.w3.org/1999/xlink" x="0px" y="0px"
	 viewBox="0 0 163.88 134.68" style="enable-background:new 0 0 163.88 134.68;" xml:space="preserve">
<style type="text/css">
	.st0{fill:#FAA32C;}
	.st1{fill:#0069BF;}
	.st2{fill:#231F20;}
	.st3{fill:#FFFFFF;}
	.st4{stroke:#231F20;stroke-miterlimit:10;}
	.st5{fill:none;}
	.st6{fill:none;stroke:#000000;stroke-width:3.5129;stroke-miterlimit:10;}
	.st7{stroke:#231F20;stroke-width:1.9309;stroke-miterlimit:10;}
	.st8{stroke:#000000;stroke-miterlimit:10;}
	.st9{stroke:#000000;stroke-width:2.2024;stroke-linecap:round;stroke-linejoin:round;stroke-miterlimit:10;}
	.st10{stroke:#231F20;stroke-width:0.25;stroke-miterlimit:10;}
	.st11{stroke:#231F20;stroke-width:2;stroke-miterlimit:10;}
	.st12{fill:none;stroke:#000000;stroke-width:3.5;stroke-miterlimit:10;}
	.st13{stroke:#231F20;stroke-width:0.5;stroke-miterlimit:10;}
	.st14{fill:none;stroke:#231F20;stroke-width:3;stroke-miterlimit:10;}
	.st15{fill:none;stroke:#231F20;stroke-width:3.5;stroke-miterlimit:10;}
	.st16{fill:#231F20;stroke:#231F20;stroke-width:1.25;stroke-miterlimit:10;}
	.st17{fill:#231F20;stroke:#000000;stroke-miterlimit:10;}
</style>
<g>
	<path class="st1" d="M163.88,76.33V33.64c0-10.78-8.74-19.53-19.53-19.53h-4.06H82.65h-4.06c-10.79,0-19.53,8.75-19.53,19.53v42.69
		v42.6h85.28c10.79,0,19.53-8.75,19.53-19.53v-3.38V76.33z"/>
	<g>
		<g>
			<path class="st6" d="M77.18,23.71h-30.5c-2.79,0-5.05,2.26-5.05,5.05v30.5c0,2.79,2.26,5.05,5.05,5.05h30.5
				c2.79,0,5.05-2.26,5.05-5.05v-30.5C82.23,25.98,79.97,23.71,77.18,23.71L77.18,23.71z M97.21,27.7l-11.59,7.99v16.64l11.59,7.98
				c2.24,1.54,5.33-0.03,5.33-2.73V30.43C102.54,27.74,99.46,26.16,97.21,27.7z"/>
		</g>
		<g>
			<path class="st7" d="M140.83,86.31H3.34c-1.31,0-2.37-1.06-2.37-2.37V10.45c0-5.23,4.25-9.48,9.48-9.48h123.27
				c5.23,0,9.48,4.25,9.48,9.48v73.49C143.2,85.24,142.14,86.31,140.83,86.31z M5.71,81.56h132.75V10.45c0-2.62-2.13-4.74-4.74-4.74
				H10.45c-2.61,0-4.74,2.13-4.74,4.74V81.56z"/>
			<path class="st7" d="M133.72,105.27H10.45c-5.23,0-9.48-4.25-9.48-9.48V83.94c0-1.31,1.06-2.37,2.37-2.37h137.49
				c1.31,0,2.37,1.06,2.37,2.37v11.85C143.2,101.02,138.94,105.27,133.72,105.27z M5.71,86.31v9.48c0,2.62,2.13,4.74,4.74,4.74
				h123.27c2.61,0,4.74-2.13,4.74-4.74v-9.48H5.71z"/>
			<path d="M79.19,95.79H64.97c-1.31,0-2.37-1.06-2.37-2.37c0-1.31,1.06-2.37,2.37-2.37h14.22c1.31,0,2.37,1.06,2.37,2.37
				C81.56,94.73,80.5,95.79,79.19,95.79z"/>
			<path class="st7" d="M102.9,133.72H41.27c-3.92,0-7.11-3.19-7.11-7.11s3.19-7.11,7.11-7.11h61.63c3.92,0,7.11,3.19,7.11,7.11
				S106.82,133.72,102.9,133.72z M41.27,124.24c-1.31,0-2.37,1.06-2.37,2.37c0,1.31,1.06,2.37,2.37,2.37h61.63
				c1.31,0,2.37-1.06,2.37-2.37c0-1.31-1.06-2.37-2.37-2.37H41.27z"/>
			<path class="st7" d="M98.16,124.24H46.01c-1.31,0-2.37-1.06-2.37-2.37c0-1.31,1.06-2.37,2.37-2.37c7.87,0,11.85-5.58,11.85-16.59
				c0-1.31,1.06-2.37,2.37-2.37h23.71c1.31,0,2.37,1.06,2.37,2.37c0,11.01,3.99,16.59,11.85,16.59c1.31,0,2.37,1.06,2.37,2.37
				C100.53,123.17,99.47,124.24,98.16,124.24z M57.55,119.49h29.06c-2.92-3.23-4.64-8.05-4.98-14.22H62.54
				C62.19,111.45,60.47,116.26,57.55,119.49z"/>
			<path class="st3" d="M41.27,124.35c-1.31,0-2.37,1.06-2.37,2.37c0,1.31,1.06,2.37,2.37,2.37h61.63c1.31,0,2.37-1.06,2.37-2.37
				c0-1.31-1.06-2.37-2.37-2.37H41.27z"/>
		</g>
	</g>
</g>
</svg>
